%TF.GenerationSoftware,KiCad,Pcbnew,(6.0.4)*%
%TF.CreationDate,2022-06-20T19:15:38-03:00*%
%TF.ProjectId,steeringmodule,73746565-7269-46e6-976d-6f64756c652e,rev?*%
%TF.SameCoordinates,Original*%
%TF.FileFunction,Copper,L1,Top*%
%TF.FilePolarity,Positive*%
%FSLAX46Y46*%
G04 Gerber Fmt 4.6, Leading zero omitted, Abs format (unit mm)*
G04 Created by KiCad (PCBNEW (6.0.4)) date 2022-06-20 19:15:38*
%MOMM*%
%LPD*%
G01*
G04 APERTURE LIST*
G04 Aperture macros list*
%AMRoundRect*
0 Rectangle with rounded corners*
0 $1 Rounding radius*
0 $2 $3 $4 $5 $6 $7 $8 $9 X,Y pos of 4 corners*
0 Add a 4 corners polygon primitive as box body*
4,1,4,$2,$3,$4,$5,$6,$7,$8,$9,$2,$3,0*
0 Add four circle primitives for the rounded corners*
1,1,$1+$1,$2,$3*
1,1,$1+$1,$4,$5*
1,1,$1+$1,$6,$7*
1,1,$1+$1,$8,$9*
0 Add four rect primitives between the rounded corners*
20,1,$1+$1,$2,$3,$4,$5,0*
20,1,$1+$1,$4,$5,$6,$7,0*
20,1,$1+$1,$6,$7,$8,$9,0*
20,1,$1+$1,$8,$9,$2,$3,0*%
G04 Aperture macros list end*
%TA.AperFunction,ComponentPad*%
%ADD10RoundRect,0.249999X1.550001X-0.790001X1.550001X0.790001X-1.550001X0.790001X-1.550001X-0.790001X0*%
%TD*%
%TA.AperFunction,ComponentPad*%
%ADD11O,3.600000X2.080000*%
%TD*%
%TA.AperFunction,ComponentPad*%
%ADD12RoundRect,0.249999X-0.790001X-1.550001X0.790001X-1.550001X0.790001X1.550001X-0.790001X1.550001X0*%
%TD*%
%TA.AperFunction,ComponentPad*%
%ADD13O,2.080000X3.600000*%
%TD*%
%TA.AperFunction,SMDPad,CuDef*%
%ADD14RoundRect,0.250000X-0.450000X0.325000X-0.450000X-0.325000X0.450000X-0.325000X0.450000X0.325000X0*%
%TD*%
%TA.AperFunction,SMDPad,CuDef*%
%ADD15RoundRect,0.250000X0.450000X-0.350000X0.450000X0.350000X-0.450000X0.350000X-0.450000X-0.350000X0*%
%TD*%
%TA.AperFunction,ComponentPad*%
%ADD16C,1.500000*%
%TD*%
%TA.AperFunction,WasherPad*%
%ADD17C,3.650000*%
%TD*%
%TA.AperFunction,ComponentPad*%
%ADD18R,1.500000X1.500000*%
%TD*%
%TA.AperFunction,ComponentPad*%
%ADD19C,2.500000*%
%TD*%
%TA.AperFunction,ComponentPad*%
%ADD20R,1.600000X1.600000*%
%TD*%
%TA.AperFunction,ComponentPad*%
%ADD21O,1.600000X1.600000*%
%TD*%
%TA.AperFunction,ComponentPad*%
%ADD22R,1.700000X1.700000*%
%TD*%
%TA.AperFunction,ComponentPad*%
%ADD23O,1.700000X1.700000*%
%TD*%
%TA.AperFunction,ViaPad*%
%ADD24C,1.500000*%
%TD*%
%TA.AperFunction,Conductor*%
%ADD25C,1.270000*%
%TD*%
%TA.AperFunction,Conductor*%
%ADD26C,0.762000*%
%TD*%
%TA.AperFunction,Conductor*%
%ADD27C,0.508000*%
%TD*%
G04 APERTURE END LIST*
D10*
%TO.P,J103,1,Pin_1*%
%TO.N,/HBRIDGE/OUT2*%
X194360800Y-101904800D03*
D11*
%TO.P,J103,2,Pin_2*%
%TO.N,/HBRIDGE/OUT1*%
X194360800Y-96824800D03*
%TD*%
D12*
%TO.P,J102,1,Pin_1*%
%TO.N,+5V*%
X148539200Y-112623600D03*
D13*
%TO.P,J102,2,Pin_2*%
%TO.N,Net-(J102-Pad2)*%
X153619200Y-112623600D03*
%TO.P,J102,3,Pin_3*%
%TO.N,GND*%
X158699200Y-112623600D03*
%TD*%
D14*
%TO.P,D403,1,K*%
%TO.N,GND*%
X120015000Y-69968000D03*
%TO.P,D403,2,A*%
%TO.N,Net-(D403-Pad2)*%
X120015000Y-72018000D03*
%TD*%
D15*
%TO.P,R404,1*%
%TO.N,/MCU/LED2*%
X122682000Y-79613000D03*
%TO.P,R404,2*%
%TO.N,Net-(D402-Pad2)*%
X122682000Y-77613000D03*
%TD*%
D16*
%TO.P,Y402,1,1*%
%TO.N,Net-(C407-Pad1)*%
X108979887Y-77901800D03*
%TO.P,Y402,2,2*%
%TO.N,Net-(C408-Pad1)*%
X113859887Y-77901800D03*
%TD*%
D15*
%TO.P,R405,1*%
%TO.N,/MCU/LED1*%
X120015000Y-79613000D03*
%TO.P,R405,2*%
%TO.N,Net-(D403-Pad2)*%
X120015000Y-77613000D03*
%TD*%
D10*
%TO.P,J101,1,Pin_1*%
%TO.N,/HBRIDGE/VS1*%
X194393300Y-86410800D03*
D11*
%TO.P,J101,2,Pin_2*%
%TO.N,GND*%
X194393300Y-81330800D03*
%TD*%
D17*
%TO.P,J201,*%
%TO.N,*%
X70662887Y-87045800D03*
X70662887Y-75615800D03*
D18*
%TO.P,J201,1*%
%TO.N,/CANBUS CONN/CAN_H*%
X77012887Y-76885800D03*
D16*
%TO.P,J201,2*%
%TO.N,/CANBUS CONN/CAN_L*%
X79552887Y-78155800D03*
%TO.P,J201,3*%
%TO.N,GND*%
X77012887Y-79425800D03*
%TO.P,J201,4*%
%TO.N,/CANBUS CONN/CAN_18V*%
X79552887Y-80695800D03*
%TO.P,J201,5*%
X77012887Y-81965800D03*
%TO.P,J201,6*%
%TO.N,GND*%
X79552887Y-83235800D03*
%TO.P,J201,7*%
X77012887Y-84505800D03*
%TO.P,J201,8*%
X79552887Y-85775800D03*
D19*
%TO.P,J201,9,SH*%
X73712887Y-73580800D03*
X73712887Y-89080800D03*
%TD*%
D16*
%TO.P,Y401,1,1*%
%TO.N,Net-(C403-Pad1)*%
X128066887Y-78409800D03*
%TO.P,Y401,2,2*%
%TO.N,Net-(C404-Pad1)*%
X132946887Y-78409800D03*
%TD*%
D17*
%TO.P,J202,*%
%TO.N,*%
X70635887Y-107878800D03*
X70635887Y-96448800D03*
D18*
%TO.P,J202,1*%
%TO.N,/CANBUS CONN/CAN_H*%
X76985887Y-97718800D03*
D16*
%TO.P,J202,2*%
%TO.N,/CANBUS CONN/CAN_L*%
X79525887Y-98988800D03*
%TO.P,J202,3*%
%TO.N,GND*%
X76985887Y-100258800D03*
%TO.P,J202,4*%
%TO.N,/CANBUS CONN/CAN_18V*%
X79525887Y-101528800D03*
%TO.P,J202,5*%
X76985887Y-102798800D03*
%TO.P,J202,6*%
%TO.N,GND*%
X79525887Y-104068800D03*
%TO.P,J202,7*%
X76985887Y-105338800D03*
%TO.P,J202,8*%
X79525887Y-106608800D03*
D19*
%TO.P,J202,9,SH*%
X73685887Y-94413800D03*
X73685887Y-109913800D03*
%TD*%
D14*
%TO.P,D402,1,K*%
%TO.N,GND*%
X122682000Y-69968000D03*
%TO.P,D402,2,A*%
%TO.N,Net-(D402-Pad2)*%
X122682000Y-72018000D03*
%TD*%
D20*
%TO.P,U401,1,~{RESET}/PC6*%
%TO.N,/MCU/RESET*%
X153339887Y-85013800D03*
D21*
%TO.P,U401,2,PD0*%
%TO.N,/MCU/USART_RX*%
X150799887Y-85013800D03*
%TO.P,U401,3,PD1*%
%TO.N,/MCU/USART_TX*%
X148259887Y-85013800D03*
%TO.P,U401,4,PD2*%
%TO.N,/HBRIDGE/INH*%
X145719887Y-85013800D03*
%TO.P,U401,5,PD3*%
%TO.N,/MCU/LED2*%
X143179887Y-85013800D03*
%TO.P,U401,6,PD4*%
%TO.N,unconnected-(U401-Pad6)*%
X140639887Y-85013800D03*
%TO.P,U401,7,VCC*%
%TO.N,+5V*%
X138099887Y-85013800D03*
%TO.P,U401,8,GND*%
%TO.N,GND*%
X135559887Y-85013800D03*
%TO.P,U401,9,XTAL1/PB6*%
%TO.N,Net-(C404-Pad1)*%
X133019887Y-85013800D03*
%TO.P,U401,10,XTAL2/PB7*%
%TO.N,Net-(C403-Pad1)*%
X130479887Y-85013800D03*
%TO.P,U401,11,PD5*%
%TO.N,/HBRIDGE/INPUT1*%
X127939887Y-85013800D03*
%TO.P,U401,12,PD6*%
%TO.N,/HBRIDGE/INPUT2*%
X125399887Y-85013800D03*
%TO.P,U401,13,PD7*%
%TO.N,unconnected-(U401-Pad13)*%
X122859887Y-85013800D03*
%TO.P,U401,14,PB0*%
%TO.N,/MCU/MCP_SS*%
X120319887Y-85013800D03*
%TO.P,U401,15,PB1*%
%TO.N,/MCU/MCP_INT*%
X120319887Y-92633800D03*
%TO.P,U401,16,PB2*%
%TO.N,/MCU/LED1*%
X122859887Y-92633800D03*
%TO.P,U401,17,PB3*%
%TO.N,/MCU/SPI_MOSI*%
X125399887Y-92633800D03*
%TO.P,U401,18,PB4*%
%TO.N,/MCU/SPI_MISO*%
X127939887Y-92633800D03*
%TO.P,U401,19,PB5*%
%TO.N,/MCU/SPI_SCK*%
X130479887Y-92633800D03*
%TO.P,U401,20,AVCC*%
%TO.N,+5V*%
X133019887Y-92633800D03*
%TO.P,U401,21,AREF*%
X135559887Y-92633800D03*
%TO.P,U401,22,GND*%
%TO.N,GND*%
X138099887Y-92633800D03*
%TO.P,U401,23,PC0*%
%TO.N,unconnected-(U401-Pad23)*%
X140639887Y-92633800D03*
%TO.P,U401,24,PC1*%
%TO.N,unconnected-(U401-Pad24)*%
X143179887Y-92633800D03*
%TO.P,U401,25,PC2*%
%TO.N,/MCU/POTVAL*%
X145719887Y-92633800D03*
%TO.P,U401,26,PC3*%
%TO.N,/HBRIDGE/IS*%
X148259887Y-92633800D03*
%TO.P,U401,27,PC4*%
%TO.N,unconnected-(U401-Pad27)*%
X150799887Y-92633800D03*
%TO.P,U401,28,PC5*%
%TO.N,unconnected-(U401-Pad28)*%
X153339887Y-92633800D03*
%TD*%
D22*
%TO.P,J401,1,Pin_1*%
%TO.N,GND*%
X145602887Y-75869800D03*
D23*
%TO.P,J401,2,Pin_2*%
%TO.N,Net-(J401-Pad2)*%
X148142887Y-75869800D03*
%TO.P,J401,3,Pin_3*%
%TO.N,Net-(J401-Pad3)*%
X150682887Y-75869800D03*
%TO.P,J401,4,Pin_4*%
%TO.N,Net-(C405-Pad2)*%
X153222887Y-75869800D03*
%TD*%
D24*
%TO.N,GND*%
X85471000Y-89027000D03*
X162013697Y-82296000D03*
X169799000Y-93345000D03*
X82169000Y-96139000D03*
X122174000Y-95262497D03*
X116967000Y-93853000D03*
X101346000Y-86741000D03*
X82169000Y-89027000D03*
%TO.N,+5V*%
X97078800Y-103733600D03*
X143100000Y-112600000D03*
X98933000Y-98806000D03*
X120929400Y-103759000D03*
%TO.N,/HBRIDGE/VS1*%
X187071000Y-79756000D03*
X189484000Y-83312000D03*
X187833000Y-81534000D03*
X189611000Y-79756000D03*
X190119000Y-81534000D03*
X174244000Y-93980000D03*
X191008000Y-84709000D03*
X189611000Y-77851000D03*
X173990000Y-82804000D03*
X187071000Y-77851000D03*
%TO.N,/CANBUS CONN/CAN_L*%
X83972400Y-97916699D03*
X83985887Y-92263790D03*
%TO.N,/HBRIDGE/OUT1*%
X182499000Y-87756699D03*
X179197000Y-89788699D03*
X180848000Y-89788699D03*
X177546000Y-87756699D03*
X182499000Y-85724699D03*
X179197000Y-83692699D03*
X184150000Y-87756699D03*
X182499000Y-83692699D03*
X184150000Y-83692699D03*
X184150000Y-85724699D03*
X177546000Y-89788699D03*
X180848000Y-87756699D03*
X184150000Y-89788699D03*
X180848000Y-85724699D03*
X177546000Y-85724699D03*
X177546000Y-83692699D03*
X180848000Y-83692699D03*
X182499000Y-89788699D03*
X179197000Y-85724699D03*
X179197000Y-87756699D03*
%TO.N,/HBRIDGE/OUT2*%
X177469800Y-102336299D03*
X184073800Y-98272299D03*
X180771800Y-102336299D03*
X177469800Y-104368299D03*
X177469800Y-98272299D03*
X182422800Y-102336299D03*
X180771800Y-104368299D03*
X180771800Y-100304299D03*
X184073800Y-100304299D03*
X177469800Y-100304299D03*
X179120800Y-98272299D03*
X184073800Y-102336299D03*
X182422800Y-98272299D03*
X179120800Y-100304299D03*
X182422800Y-100304299D03*
X184073800Y-104368299D03*
X179120800Y-102336299D03*
X179120800Y-104368299D03*
X180771800Y-98272299D03*
X182422800Y-104368299D03*
%TO.N,/HBRIDGE/INH*%
X163322000Y-99314000D03*
X163322000Y-88900000D03*
%TO.N,/HBRIDGE/IS*%
X167513000Y-84709000D03*
X167513000Y-97663000D03*
X162941000Y-106553000D03*
%TO.N,/HBRIDGE/INPUT1*%
X157500000Y-89300000D03*
%TO.N,/HBRIDGE/INPUT2*%
X156819600Y-96215200D03*
%TD*%
D25*
%TO.N,GND*%
X156812070Y-77500000D02*
X166912070Y-77500000D01*
D26*
%TO.N,+5V*%
X98933000Y-98806000D02*
X97078800Y-100660200D01*
X143100000Y-112623600D02*
X143100000Y-112600000D01*
X120929400Y-103759000D02*
X129794000Y-112623600D01*
X97078800Y-100660200D02*
X97078800Y-103733600D01*
X129794000Y-112623600D02*
X143100000Y-112623600D01*
D27*
%TO.N,Net-(D402-Pad2)*%
X122682000Y-77613000D02*
X122682000Y-72018000D01*
%TO.N,Net-(D403-Pad2)*%
X120015000Y-72018000D02*
X120015000Y-77613000D01*
%TO.N,/CANBUS CONN/CAN_L*%
X83972400Y-97916699D02*
X83986885Y-97902214D01*
X83986885Y-92264788D02*
X83985887Y-92263790D01*
X83986885Y-97902214D02*
X83986885Y-92264788D01*
%TO.N,/MCU/LED2*%
X124349000Y-81280000D02*
X139446087Y-81280000D01*
X122682000Y-79613000D02*
X124349000Y-81280000D01*
X139446087Y-81280000D02*
X143179887Y-85013800D01*
%TO.N,/MCU/LED1*%
X120015000Y-81280000D02*
X120015000Y-79613000D01*
X118237000Y-88010913D02*
X118237000Y-83058000D01*
X122859887Y-92633800D02*
X118237000Y-88010913D01*
X118237000Y-83058000D02*
X120015000Y-81280000D01*
%TO.N,/HBRIDGE/INH*%
X163322000Y-99314000D02*
X163322000Y-88900000D01*
%TO.N,/HBRIDGE/IS*%
X167513000Y-97663000D02*
X167513000Y-84709000D01*
X164084000Y-106553000D02*
X162941000Y-106553000D01*
X167513000Y-97663000D02*
X167513000Y-103124000D01*
X167513000Y-103124000D02*
X164084000Y-106553000D01*
D26*
%TO.N,/HBRIDGE/INPUT1*%
X157500000Y-89300000D02*
X157499000Y-89300000D01*
X130454487Y-87528400D02*
X127939887Y-85013800D01*
X155727400Y-87528400D02*
X130454487Y-87528400D01*
X157499000Y-89300000D02*
X155727400Y-87528400D01*
%TO.N,/HBRIDGE/INPUT2*%
X156819600Y-92938600D02*
X153898600Y-90017600D01*
X125399887Y-86842687D02*
X125399887Y-85013800D01*
X153898600Y-90017600D02*
X128574800Y-90017600D01*
X156819600Y-96215200D02*
X156819600Y-92938600D01*
X128574800Y-90017600D02*
X125399887Y-86842687D01*
%TD*%
%TA.AperFunction,Conductor*%
%TO.N,GND*%
G36*
X202361800Y-64422283D02*
G01*
X202417216Y-64477699D01*
X202437500Y-64553399D01*
X202437500Y-122199599D01*
X202417216Y-122275299D01*
X202361800Y-122330715D01*
X202286100Y-122350999D01*
X162016162Y-122350999D01*
X161940462Y-122330715D01*
X161909106Y-122306655D01*
X161808260Y-122205809D01*
X161796136Y-122192124D01*
X161618267Y-121965090D01*
X161607882Y-121950044D01*
X161458681Y-121703237D01*
X161450184Y-121687048D01*
X161331818Y-121424048D01*
X161325335Y-121406954D01*
X161239532Y-121131603D01*
X161235157Y-121113852D01*
X161183170Y-120830173D01*
X161180966Y-120812023D01*
X161163276Y-120519563D01*
X161163000Y-120510422D01*
X161163000Y-118147488D01*
X194677433Y-118147488D01*
X194677871Y-118152493D01*
X194695393Y-118352763D01*
X194703629Y-118446905D01*
X194769194Y-118740227D01*
X194872977Y-119022301D01*
X194875316Y-119026738D01*
X194875319Y-119026744D01*
X195010814Y-119283733D01*
X195010818Y-119283740D01*
X195013155Y-119288172D01*
X195187264Y-119533167D01*
X195190685Y-119536836D01*
X195190687Y-119536838D01*
X195388824Y-119749314D01*
X195388829Y-119749319D01*
X195392246Y-119752983D01*
X195624499Y-119943758D01*
X195628762Y-119946401D01*
X195628766Y-119946404D01*
X195783315Y-120042228D01*
X195879943Y-120102140D01*
X196154091Y-120225347D01*
X196158911Y-120226784D01*
X196158914Y-120226785D01*
X196437304Y-120309777D01*
X196437307Y-120309778D01*
X196442125Y-120311214D01*
X196738985Y-120358232D01*
X196743209Y-120358424D01*
X196743211Y-120358424D01*
X196831255Y-120362422D01*
X196831265Y-120362422D01*
X196832978Y-120362500D01*
X197020743Y-120362500D01*
X197023254Y-120362333D01*
X197023261Y-120362333D01*
X197239389Y-120347978D01*
X197239392Y-120347978D01*
X197244400Y-120347645D01*
X197539031Y-120288237D01*
X197823216Y-120190384D01*
X197857891Y-120173020D01*
X198087476Y-120058053D01*
X198087483Y-120058049D01*
X198091964Y-120055805D01*
X198252943Y-119946404D01*
X198336393Y-119889692D01*
X198336398Y-119889688D01*
X198340552Y-119886865D01*
X198564613Y-119686531D01*
X198567875Y-119682725D01*
X198567880Y-119682720D01*
X198756947Y-119462131D01*
X198760210Y-119458324D01*
X198923907Y-119206253D01*
X199052828Y-118934746D01*
X199054366Y-118929956D01*
X199143169Y-118653368D01*
X199143171Y-118653361D01*
X199144708Y-118648573D01*
X199197932Y-118352763D01*
X199211567Y-118052512D01*
X199194046Y-117852251D01*
X199185809Y-117758098D01*
X199185808Y-117758094D01*
X199185371Y-117753095D01*
X199119806Y-117459773D01*
X199016023Y-117177699D01*
X199013684Y-117173262D01*
X199013681Y-117173256D01*
X198878186Y-116916267D01*
X198878182Y-116916260D01*
X198875845Y-116911828D01*
X198701736Y-116666833D01*
X198698313Y-116663162D01*
X198500176Y-116450686D01*
X198500171Y-116450681D01*
X198496754Y-116447017D01*
X198264501Y-116256242D01*
X198260238Y-116253599D01*
X198260234Y-116253596D01*
X198080162Y-116141947D01*
X198009057Y-116097860D01*
X197734909Y-115974653D01*
X197730089Y-115973216D01*
X197730086Y-115973215D01*
X197451696Y-115890223D01*
X197451693Y-115890222D01*
X197446875Y-115888786D01*
X197150015Y-115841768D01*
X197145791Y-115841576D01*
X197145789Y-115841576D01*
X197057745Y-115837578D01*
X197057735Y-115837578D01*
X197056022Y-115837500D01*
X196868257Y-115837500D01*
X196865746Y-115837667D01*
X196865739Y-115837667D01*
X196649611Y-115852022D01*
X196649608Y-115852022D01*
X196644600Y-115852355D01*
X196349969Y-115911763D01*
X196065784Y-116009616D01*
X196061294Y-116011864D01*
X196061295Y-116011864D01*
X195801524Y-116141947D01*
X195801517Y-116141951D01*
X195797036Y-116144195D01*
X195792883Y-116147018D01*
X195792882Y-116147018D01*
X195552607Y-116310308D01*
X195552602Y-116310312D01*
X195548448Y-116313135D01*
X195324387Y-116513469D01*
X195321125Y-116517275D01*
X195321120Y-116517280D01*
X195192938Y-116666833D01*
X195128790Y-116741676D01*
X194965093Y-116993747D01*
X194836172Y-117265254D01*
X194834635Y-117270043D01*
X194834634Y-117270044D01*
X194745831Y-117546632D01*
X194745829Y-117546639D01*
X194744292Y-117551427D01*
X194691068Y-117847237D01*
X194677433Y-118147488D01*
X161163000Y-118147488D01*
X161163000Y-114183488D01*
X170960933Y-114183488D01*
X170961371Y-114188493D01*
X170978893Y-114388763D01*
X170987129Y-114482905D01*
X171052694Y-114776227D01*
X171156477Y-115058301D01*
X171158816Y-115062738D01*
X171158819Y-115062744D01*
X171294314Y-115319733D01*
X171294318Y-115319740D01*
X171296655Y-115324172D01*
X171470764Y-115569167D01*
X171474185Y-115572836D01*
X171474187Y-115572838D01*
X171672324Y-115785314D01*
X171672329Y-115785319D01*
X171675746Y-115788983D01*
X171907999Y-115979758D01*
X171912262Y-115982401D01*
X171912266Y-115982404D01*
X172066815Y-116078228D01*
X172163443Y-116138140D01*
X172437591Y-116261347D01*
X172442411Y-116262784D01*
X172442414Y-116262785D01*
X172720804Y-116345777D01*
X172720807Y-116345778D01*
X172725625Y-116347214D01*
X173022485Y-116394232D01*
X173026709Y-116394424D01*
X173026711Y-116394424D01*
X173114755Y-116398422D01*
X173114765Y-116398422D01*
X173116478Y-116398500D01*
X173304243Y-116398500D01*
X173306754Y-116398333D01*
X173306761Y-116398333D01*
X173522889Y-116383978D01*
X173522892Y-116383978D01*
X173527900Y-116383645D01*
X173822531Y-116324237D01*
X174106716Y-116226384D01*
X174141391Y-116209020D01*
X174370976Y-116094053D01*
X174370983Y-116094049D01*
X174375464Y-116091805D01*
X174536443Y-115982404D01*
X174619893Y-115925692D01*
X174619898Y-115925688D01*
X174624052Y-115922865D01*
X174848113Y-115722531D01*
X174851375Y-115718725D01*
X174851380Y-115718720D01*
X175040447Y-115498131D01*
X175043710Y-115494324D01*
X175207407Y-115242253D01*
X175336328Y-114970746D01*
X175337866Y-114965956D01*
X175426669Y-114689368D01*
X175426671Y-114689361D01*
X175428208Y-114684573D01*
X175481432Y-114388763D01*
X175495067Y-114088512D01*
X175477546Y-113888251D01*
X175469309Y-113794098D01*
X175469308Y-113794094D01*
X175468871Y-113789095D01*
X175403306Y-113495773D01*
X175299523Y-113213699D01*
X175297184Y-113209262D01*
X175297181Y-113209256D01*
X175161686Y-112952267D01*
X175161682Y-112952260D01*
X175159345Y-112947828D01*
X174985236Y-112702833D01*
X174892793Y-112603700D01*
X174783676Y-112486686D01*
X174783671Y-112486681D01*
X174780254Y-112483017D01*
X174601931Y-112336541D01*
X174551881Y-112295429D01*
X174551880Y-112295429D01*
X174548001Y-112292242D01*
X174543738Y-112289599D01*
X174543734Y-112289596D01*
X174296821Y-112136504D01*
X174292557Y-112133860D01*
X174018409Y-112010653D01*
X174013589Y-112009216D01*
X174013586Y-112009215D01*
X173735196Y-111926223D01*
X173735193Y-111926222D01*
X173730375Y-111924786D01*
X173433515Y-111877768D01*
X173429291Y-111877576D01*
X173429289Y-111877576D01*
X173341245Y-111873578D01*
X173341235Y-111873578D01*
X173339522Y-111873500D01*
X173151757Y-111873500D01*
X173149246Y-111873667D01*
X173149239Y-111873667D01*
X172933111Y-111888022D01*
X172933108Y-111888022D01*
X172928100Y-111888355D01*
X172633469Y-111947763D01*
X172349284Y-112045616D01*
X172344794Y-112047864D01*
X172344795Y-112047864D01*
X172085024Y-112177947D01*
X172085017Y-112177951D01*
X172080536Y-112180195D01*
X172076383Y-112183018D01*
X172076382Y-112183018D01*
X171836107Y-112346308D01*
X171836102Y-112346312D01*
X171831948Y-112349135D01*
X171607887Y-112549469D01*
X171604625Y-112553275D01*
X171604620Y-112553280D01*
X171476438Y-112702833D01*
X171412290Y-112777676D01*
X171248593Y-113029747D01*
X171119672Y-113301254D01*
X171118135Y-113306043D01*
X171118134Y-113306044D01*
X171029331Y-113582632D01*
X171029329Y-113582639D01*
X171027792Y-113587427D01*
X170974568Y-113883237D01*
X170960933Y-114183488D01*
X161163000Y-114183488D01*
X161163000Y-106905302D01*
X161183284Y-106829602D01*
X161238700Y-106774186D01*
X161314400Y-106753902D01*
X161390100Y-106774186D01*
X161445516Y-106829602D01*
X161461617Y-106869957D01*
X161498079Y-107021833D01*
X161589185Y-107241784D01*
X161614105Y-107282449D01*
X161694134Y-107413044D01*
X161713578Y-107444774D01*
X161717439Y-107449295D01*
X161717440Y-107449296D01*
X161758480Y-107497348D01*
X161868194Y-107625806D01*
X162049226Y-107780422D01*
X162054286Y-107783523D01*
X162054289Y-107783525D01*
X162133643Y-107832153D01*
X162252216Y-107904815D01*
X162472167Y-107995921D01*
X162477939Y-107997307D01*
X162477943Y-107997308D01*
X162587914Y-108023709D01*
X162703661Y-108051498D01*
X162941000Y-108070177D01*
X163178339Y-108051498D01*
X163294086Y-108023709D01*
X163404057Y-107997308D01*
X163404061Y-107997307D01*
X163409833Y-107995921D01*
X163629784Y-107904815D01*
X163748357Y-107832153D01*
X163827711Y-107783525D01*
X163827714Y-107783523D01*
X163832774Y-107780422D01*
X164013806Y-107625806D01*
X164017671Y-107621280D01*
X164021878Y-107617074D01*
X164023060Y-107618256D01*
X164080858Y-107578539D01*
X164118186Y-107570435D01*
X164123999Y-107569927D01*
X164129781Y-107569533D01*
X164130456Y-107569500D01*
X164134157Y-107569500D01*
X164137836Y-107569139D01*
X164137841Y-107569139D01*
X164151007Y-107567848D01*
X164177140Y-107565285D01*
X164178572Y-107565152D01*
X164209403Y-107562455D01*
X164264514Y-107557634D01*
X164264519Y-107557633D01*
X164271892Y-107556988D01*
X164277052Y-107555489D01*
X164282394Y-107554965D01*
X164289479Y-107552826D01*
X164289484Y-107552825D01*
X164339950Y-107537588D01*
X164371986Y-107527916D01*
X164373445Y-107527484D01*
X164456208Y-107503439D01*
X164456209Y-107503438D01*
X164463322Y-107501372D01*
X164468090Y-107498900D01*
X164473232Y-107497348D01*
X164479771Y-107493871D01*
X164479774Y-107493870D01*
X164555861Y-107453414D01*
X164557264Y-107452678D01*
X164633726Y-107413044D01*
X164633728Y-107413043D01*
X164640304Y-107409634D01*
X164644503Y-107406282D01*
X164649244Y-107403761D01*
X164721786Y-107344596D01*
X164723008Y-107343611D01*
X164759006Y-107314874D01*
X164762316Y-107312232D01*
X164765093Y-107309455D01*
X164769728Y-107305496D01*
X164803726Y-107277768D01*
X164832440Y-107243059D01*
X164842039Y-107232509D01*
X168186764Y-103887784D01*
X168198952Y-103876848D01*
X168202422Y-103874058D01*
X168227649Y-103853775D01*
X168260342Y-103814813D01*
X168264166Y-103810429D01*
X168264624Y-103809924D01*
X168267240Y-103807308D01*
X168269584Y-103804454D01*
X168269598Y-103804439D01*
X168294663Y-103773925D01*
X168295673Y-103772708D01*
X168351027Y-103706739D01*
X168351028Y-103706737D01*
X168355786Y-103701067D01*
X168358373Y-103696361D01*
X168361782Y-103692211D01*
X168406015Y-103609717D01*
X168406744Y-103608374D01*
X168418319Y-103587319D01*
X168451821Y-103526379D01*
X168453444Y-103521261D01*
X168455983Y-103516527D01*
X168483332Y-103427075D01*
X168483803Y-103425564D01*
X168509860Y-103343422D01*
X168509861Y-103343416D01*
X168512098Y-103336365D01*
X168512697Y-103331027D01*
X168514267Y-103325891D01*
X168523716Y-103232864D01*
X168523884Y-103231288D01*
X168529029Y-103185412D01*
X168529500Y-103181216D01*
X168529500Y-103177294D01*
X168529981Y-103171184D01*
X168533663Y-103134933D01*
X168533663Y-103134929D01*
X168534411Y-103127565D01*
X168530172Y-103082718D01*
X168529500Y-103068471D01*
X168529500Y-98853692D01*
X168549784Y-98777992D01*
X168577666Y-98744470D01*
X168577074Y-98743878D01*
X168581281Y-98739671D01*
X168585806Y-98735806D01*
X168692178Y-98611261D01*
X168736560Y-98559296D01*
X168736561Y-98559295D01*
X168740422Y-98554774D01*
X168750122Y-98538946D01*
X168802495Y-98453480D01*
X168864815Y-98351784D01*
X168955921Y-98131833D01*
X168957551Y-98125046D01*
X168997722Y-97957718D01*
X169011498Y-97900339D01*
X169030177Y-97663000D01*
X169011498Y-97425661D01*
X168983709Y-97309914D01*
X168957308Y-97199943D01*
X168957307Y-97199939D01*
X168955921Y-97194167D01*
X168864815Y-96974216D01*
X168740422Y-96771226D01*
X168585806Y-96590194D01*
X168581281Y-96586329D01*
X168577074Y-96582122D01*
X168578171Y-96581025D01*
X168538186Y-96522853D01*
X168529500Y-96472308D01*
X168529500Y-85899692D01*
X168549784Y-85823992D01*
X168577666Y-85790470D01*
X168577074Y-85789878D01*
X168581281Y-85785671D01*
X168585806Y-85781806D01*
X168740422Y-85600774D01*
X168864815Y-85397784D01*
X168955921Y-85177833D01*
X169011498Y-84946339D01*
X169030177Y-84709000D01*
X169011498Y-84471661D01*
X168955921Y-84240167D01*
X168864815Y-84020216D01*
X168740422Y-83817226D01*
X168585806Y-83636194D01*
X168404774Y-83481578D01*
X168399714Y-83478477D01*
X168399711Y-83478475D01*
X168320357Y-83429847D01*
X168201784Y-83357185D01*
X167981833Y-83266079D01*
X167976061Y-83264693D01*
X167976057Y-83264692D01*
X167831616Y-83230015D01*
X167750339Y-83210502D01*
X167513000Y-83191823D01*
X167275661Y-83210502D01*
X167194384Y-83230015D01*
X167049943Y-83264692D01*
X167049939Y-83264693D01*
X167044167Y-83266079D01*
X166824216Y-83357185D01*
X166705643Y-83429847D01*
X166626289Y-83478475D01*
X166626286Y-83478477D01*
X166621226Y-83481578D01*
X166440194Y-83636194D01*
X166285578Y-83817226D01*
X166161185Y-84020216D01*
X166070079Y-84240167D01*
X166014502Y-84471661D01*
X165995823Y-84709000D01*
X166014502Y-84946339D01*
X166070079Y-85177833D01*
X166161185Y-85397784D01*
X166285578Y-85600774D01*
X166440194Y-85781806D01*
X166444719Y-85785671D01*
X166448926Y-85789878D01*
X166447829Y-85790975D01*
X166487814Y-85849147D01*
X166496500Y-85899692D01*
X166496500Y-96472308D01*
X166476216Y-96548008D01*
X166448334Y-96581530D01*
X166448926Y-96582122D01*
X166444719Y-96586329D01*
X166440194Y-96590194D01*
X166285578Y-96771226D01*
X166161185Y-96974216D01*
X166070079Y-97194167D01*
X166068693Y-97199939D01*
X166068692Y-97199943D01*
X166042291Y-97309914D01*
X166014502Y-97425661D01*
X165995823Y-97663000D01*
X166014502Y-97900339D01*
X166028278Y-97957718D01*
X166068450Y-98125046D01*
X166070079Y-98131833D01*
X166161185Y-98351784D01*
X166223505Y-98453480D01*
X166275879Y-98538946D01*
X166285578Y-98554774D01*
X166289439Y-98559295D01*
X166289440Y-98559296D01*
X166333822Y-98611261D01*
X166440194Y-98735806D01*
X166444719Y-98739671D01*
X166448926Y-98743878D01*
X166447829Y-98744975D01*
X166487814Y-98803147D01*
X166496500Y-98853692D01*
X166496500Y-102640240D01*
X166476216Y-102715940D01*
X166452156Y-102747296D01*
X163942654Y-105256798D01*
X163874783Y-105295983D01*
X163796413Y-105295983D01*
X163756491Y-105278831D01*
X163634860Y-105204294D01*
X163634845Y-105204286D01*
X163629784Y-105201185D01*
X163409833Y-105110079D01*
X163404061Y-105108693D01*
X163404057Y-105108692D01*
X163294086Y-105082291D01*
X163178339Y-105054502D01*
X162941000Y-105035823D01*
X162703661Y-105054502D01*
X162587914Y-105082291D01*
X162477943Y-105108692D01*
X162477939Y-105108693D01*
X162472167Y-105110079D01*
X162252216Y-105201185D01*
X162247143Y-105204294D01*
X162054289Y-105322475D01*
X162054286Y-105322477D01*
X162049226Y-105325578D01*
X161868194Y-105480194D01*
X161713578Y-105661226D01*
X161589185Y-105864216D01*
X161498079Y-106084167D01*
X161496693Y-106089939D01*
X161496692Y-106089943D01*
X161461617Y-106236042D01*
X161424222Y-106304915D01*
X161357400Y-106345863D01*
X161279056Y-106347915D01*
X161210183Y-106310520D01*
X161169235Y-106243698D01*
X161163000Y-106200698D01*
X161163000Y-99314000D01*
X161804823Y-99314000D01*
X161823502Y-99551339D01*
X161879079Y-99782833D01*
X161970185Y-100002784D01*
X162094578Y-100205774D01*
X162249194Y-100386806D01*
X162430226Y-100541422D01*
X162435286Y-100544523D01*
X162435289Y-100544525D01*
X162514643Y-100593153D01*
X162633216Y-100665815D01*
X162853167Y-100756921D01*
X162858939Y-100758307D01*
X162858943Y-100758308D01*
X162968914Y-100784709D01*
X163084661Y-100812498D01*
X163322000Y-100831177D01*
X163559339Y-100812498D01*
X163675086Y-100784709D01*
X163785057Y-100758308D01*
X163785061Y-100758307D01*
X163790833Y-100756921D01*
X164010784Y-100665815D01*
X164129357Y-100593153D01*
X164208711Y-100544525D01*
X164208714Y-100544523D01*
X164213774Y-100541422D01*
X164394806Y-100386806D01*
X164549422Y-100205774D01*
X164673815Y-100002784D01*
X164764921Y-99782833D01*
X164820498Y-99551339D01*
X164839177Y-99314000D01*
X164820498Y-99076661D01*
X164764921Y-98845167D01*
X164673815Y-98625216D01*
X164601153Y-98506643D01*
X164552525Y-98427289D01*
X164552523Y-98427286D01*
X164549422Y-98422226D01*
X164394806Y-98241194D01*
X164390281Y-98237329D01*
X164386074Y-98233122D01*
X164387171Y-98232025D01*
X164347186Y-98173853D01*
X164338500Y-98123308D01*
X164338500Y-90090692D01*
X164358784Y-90014992D01*
X164386666Y-89981470D01*
X164386074Y-89980878D01*
X164390281Y-89976671D01*
X164394806Y-89972806D01*
X164549422Y-89791774D01*
X164673815Y-89588784D01*
X164764921Y-89368833D01*
X164820498Y-89137339D01*
X164839177Y-88900000D01*
X164820498Y-88662661D01*
X164764921Y-88431167D01*
X164673815Y-88211216D01*
X164549422Y-88008226D01*
X164394806Y-87827194D01*
X164213774Y-87672578D01*
X164208714Y-87669477D01*
X164208711Y-87669475D01*
X164129357Y-87620847D01*
X164010784Y-87548185D01*
X163790833Y-87457079D01*
X163785061Y-87455693D01*
X163785057Y-87455692D01*
X163675086Y-87429290D01*
X163559339Y-87401502D01*
X163322000Y-87382823D01*
X163084661Y-87401502D01*
X162968914Y-87429290D01*
X162858943Y-87455692D01*
X162858939Y-87455693D01*
X162853167Y-87457079D01*
X162633216Y-87548185D01*
X162514643Y-87620847D01*
X162435289Y-87669475D01*
X162435286Y-87669477D01*
X162430226Y-87672578D01*
X162249194Y-87827194D01*
X162094578Y-88008226D01*
X161970185Y-88211216D01*
X161879079Y-88431167D01*
X161823502Y-88662661D01*
X161804823Y-88900000D01*
X161823502Y-89137339D01*
X161879079Y-89368833D01*
X161970185Y-89588784D01*
X162094578Y-89791774D01*
X162249194Y-89972806D01*
X162253719Y-89976671D01*
X162257926Y-89980878D01*
X162256829Y-89981975D01*
X162296814Y-90040147D01*
X162305500Y-90090692D01*
X162305500Y-98123308D01*
X162285216Y-98199008D01*
X162257334Y-98232530D01*
X162257926Y-98233122D01*
X162253719Y-98237329D01*
X162249194Y-98241194D01*
X162094578Y-98422226D01*
X162091477Y-98427286D01*
X162091475Y-98427289D01*
X162042847Y-98506643D01*
X161970185Y-98625216D01*
X161879079Y-98845167D01*
X161823502Y-99076661D01*
X161804823Y-99314000D01*
X161163000Y-99314000D01*
X161163000Y-81926143D01*
X171699061Y-81926143D01*
X171699062Y-81927392D01*
X171699062Y-81927398D01*
X171704529Y-88216706D01*
X171709210Y-93601226D01*
X171709749Y-94221921D01*
X171711434Y-94272079D01*
X171712744Y-94291818D01*
X171712866Y-94293047D01*
X171712950Y-94294061D01*
X171713461Y-94307903D01*
X171704474Y-95323481D01*
X171704000Y-95377000D01*
X171704000Y-95631000D01*
X173059651Y-95631000D01*
X173069578Y-95631326D01*
X173069992Y-95631353D01*
X173070445Y-95631383D01*
X173070456Y-95631384D01*
X173071680Y-95631464D01*
X173072912Y-95631505D01*
X173072920Y-95631505D01*
X173120617Y-95633077D01*
X173121831Y-95633117D01*
X175169302Y-95633623D01*
X175244997Y-95653925D01*
X175300400Y-95709355D01*
X175320665Y-95785060D01*
X175309969Y-95840919D01*
X175300937Y-95863654D01*
X175280653Y-95939354D01*
X175275188Y-95961002D01*
X175254500Y-96138000D01*
X175254500Y-111684800D01*
X175254825Y-111707125D01*
X175280653Y-111883446D01*
X175300937Y-111959146D01*
X175313740Y-112001913D01*
X175316068Y-112006906D01*
X175316069Y-112006908D01*
X175333356Y-112043980D01*
X175389052Y-112163420D01*
X175499580Y-112303204D01*
X175554996Y-112358620D01*
X175587467Y-112389256D01*
X175683107Y-112456224D01*
X175693750Y-112463676D01*
X175733442Y-112491469D01*
X175899054Y-112557263D01*
X175947071Y-112570129D01*
X175974264Y-112577416D01*
X175974301Y-112577426D01*
X175974754Y-112577547D01*
X175996402Y-112583012D01*
X176173400Y-112603700D01*
X185776600Y-112603700D01*
X185798925Y-112603375D01*
X185975246Y-112577547D01*
X186050946Y-112557263D01*
X186093713Y-112544460D01*
X186255220Y-112469148D01*
X186395004Y-112358620D01*
X186450420Y-112303204D01*
X186481056Y-112270733D01*
X186561796Y-112155425D01*
X186578213Y-112131979D01*
X186578214Y-112131978D01*
X186583269Y-112124758D01*
X186649063Y-111959146D01*
X186669347Y-111883446D01*
X186674812Y-111861798D01*
X186695500Y-111684800D01*
X186695500Y-101018085D01*
X191798300Y-101018085D01*
X191798301Y-102791514D01*
X191798609Y-102797615D01*
X191837856Y-102992259D01*
X191840699Y-102999089D01*
X191840700Y-102999092D01*
X191911319Y-103168742D01*
X191911321Y-103168746D01*
X191914163Y-103175573D01*
X191918281Y-103181724D01*
X192017716Y-103330260D01*
X192024621Y-103340575D01*
X192165025Y-103480979D01*
X192171171Y-103485093D01*
X192171173Y-103485095D01*
X192237289Y-103529355D01*
X192330027Y-103591437D01*
X192336854Y-103594279D01*
X192336858Y-103594281D01*
X192506508Y-103664900D01*
X192506511Y-103664901D01*
X192513341Y-103667744D01*
X192602319Y-103685685D01*
X192702473Y-103705880D01*
X192702478Y-103705881D01*
X192707985Y-103706991D01*
X192714085Y-103707300D01*
X194347894Y-103707300D01*
X196007514Y-103707299D01*
X196013615Y-103706991D01*
X196019133Y-103705878D01*
X196019136Y-103705878D01*
X196086916Y-103692211D01*
X196208259Y-103667744D01*
X196215089Y-103664901D01*
X196215092Y-103664900D01*
X196384742Y-103594281D01*
X196384746Y-103594279D01*
X196391573Y-103591437D01*
X196484311Y-103529355D01*
X196550427Y-103485095D01*
X196550429Y-103485093D01*
X196556575Y-103480979D01*
X196696979Y-103340575D01*
X196703885Y-103330260D01*
X196803319Y-103181724D01*
X196807437Y-103175573D01*
X196810279Y-103168746D01*
X196810281Y-103168742D01*
X196880900Y-102999092D01*
X196880901Y-102999089D01*
X196883744Y-102992259D01*
X196922991Y-102797615D01*
X196923300Y-102791515D01*
X196923299Y-101018086D01*
X196922991Y-101011985D01*
X196883744Y-100817341D01*
X196859171Y-100758308D01*
X196810281Y-100640858D01*
X196810279Y-100640854D01*
X196807437Y-100634027D01*
X196696979Y-100469025D01*
X196556575Y-100328621D01*
X196391573Y-100218163D01*
X196384746Y-100215321D01*
X196384742Y-100215319D01*
X196215092Y-100144700D01*
X196215089Y-100144699D01*
X196208259Y-100141856D01*
X196104425Y-100120920D01*
X196019127Y-100103720D01*
X196019122Y-100103719D01*
X196013615Y-100102609D01*
X196007515Y-100102300D01*
X194373706Y-100102300D01*
X192714086Y-100102301D01*
X192707985Y-100102609D01*
X192702467Y-100103722D01*
X192702464Y-100103722D01*
X192643070Y-100115698D01*
X192513341Y-100141856D01*
X192506511Y-100144699D01*
X192506508Y-100144700D01*
X192336858Y-100215319D01*
X192336854Y-100215321D01*
X192330027Y-100218163D01*
X192165025Y-100328621D01*
X192024621Y-100469025D01*
X191914163Y-100634027D01*
X191911321Y-100640854D01*
X191911319Y-100640858D01*
X191862429Y-100758308D01*
X191837856Y-100817341D01*
X191798609Y-101011985D01*
X191798300Y-101018085D01*
X186695500Y-101018085D01*
X186695500Y-96935149D01*
X191796617Y-96935149D01*
X191797375Y-96940716D01*
X191797375Y-96940722D01*
X191831121Y-97188680D01*
X191832745Y-97200612D01*
X191907714Y-97457819D01*
X192019878Y-97701120D01*
X192166771Y-97925169D01*
X192345167Y-98125046D01*
X192349480Y-98128633D01*
X192349482Y-98128635D01*
X192388331Y-98160945D01*
X192551148Y-98296358D01*
X192555948Y-98299271D01*
X192555954Y-98299275D01*
X192650836Y-98356850D01*
X192780188Y-98435342D01*
X193027255Y-98538946D01*
X193286922Y-98604893D01*
X193366597Y-98612916D01*
X193505664Y-98626920D01*
X193505671Y-98626920D01*
X193509441Y-98627300D01*
X195188811Y-98627300D01*
X195387973Y-98612500D01*
X195393446Y-98611262D01*
X195393450Y-98611261D01*
X195518626Y-98582936D01*
X195649278Y-98553372D01*
X195658693Y-98549711D01*
X195893731Y-98458310D01*
X195898972Y-98456272D01*
X196131571Y-98323330D01*
X196135982Y-98319853D01*
X196135986Y-98319850D01*
X196337557Y-98160945D01*
X196337559Y-98160943D01*
X196341966Y-98157469D01*
X196371516Y-98126057D01*
X196521692Y-97966414D01*
X196525533Y-97962331D01*
X196572649Y-97894414D01*
X196675040Y-97746818D01*
X196675043Y-97746813D01*
X196678241Y-97742203D01*
X196796735Y-97501922D01*
X196822995Y-97419885D01*
X196876700Y-97252112D01*
X196876702Y-97252105D01*
X196878411Y-97246765D01*
X196886834Y-97195050D01*
X196920572Y-96987889D01*
X196921476Y-96982339D01*
X196921583Y-96974216D01*
X196924909Y-96720075D01*
X196924983Y-96714451D01*
X196917806Y-96661711D01*
X196889612Y-96454550D01*
X196889612Y-96454549D01*
X196888855Y-96448988D01*
X196813886Y-96191781D01*
X196701722Y-95948480D01*
X196695418Y-95938864D01*
X196557906Y-95729124D01*
X196557905Y-95729123D01*
X196554829Y-95724431D01*
X196376433Y-95524554D01*
X196337449Y-95492131D01*
X196199018Y-95377000D01*
X196170452Y-95353242D01*
X196165652Y-95350329D01*
X196165646Y-95350325D01*
X195946219Y-95217175D01*
X195946220Y-95217175D01*
X195941412Y-95214258D01*
X195694345Y-95110654D01*
X195434678Y-95044707D01*
X195328164Y-95033981D01*
X195215936Y-95022680D01*
X195215929Y-95022680D01*
X195212159Y-95022300D01*
X193532789Y-95022300D01*
X193333627Y-95037100D01*
X193328154Y-95038338D01*
X193328150Y-95038339D01*
X193202974Y-95066664D01*
X193072322Y-95096228D01*
X193067088Y-95098263D01*
X193067086Y-95098264D01*
X193035225Y-95110654D01*
X192822628Y-95193328D01*
X192590029Y-95326270D01*
X192585618Y-95329747D01*
X192585614Y-95329750D01*
X192453855Y-95433620D01*
X192379634Y-95492131D01*
X192375793Y-95496214D01*
X192375792Y-95496215D01*
X192331626Y-95543165D01*
X192196067Y-95687269D01*
X192173194Y-95720240D01*
X192046560Y-95902782D01*
X192046557Y-95902787D01*
X192043359Y-95907397D01*
X191924865Y-96147678D01*
X191923151Y-96153033D01*
X191844900Y-96397488D01*
X191844898Y-96397495D01*
X191843189Y-96402835D01*
X191842287Y-96408375D01*
X191842286Y-96408378D01*
X191831874Y-96472308D01*
X191800124Y-96667261D01*
X191800050Y-96672878D01*
X191800050Y-96672883D01*
X191798822Y-96766704D01*
X191796617Y-96935149D01*
X186695500Y-96935149D01*
X186695500Y-96138000D01*
X186695175Y-96115675D01*
X186669347Y-95939354D01*
X186649063Y-95863654D01*
X186639347Y-95831199D01*
X186637070Y-95752862D01*
X186674266Y-95683882D01*
X186740969Y-95642740D01*
X186784396Y-95636381D01*
X187235663Y-95636409D01*
X187236893Y-95636415D01*
X188145594Y-95645412D01*
X188705133Y-95650952D01*
X188705136Y-95650952D01*
X189255400Y-95656400D01*
X189758576Y-95433620D01*
X189758581Y-95433618D01*
X192571396Y-94188249D01*
X192582800Y-94183200D01*
X193161427Y-93920188D01*
X194892604Y-93133289D01*
X194902136Y-93129342D01*
X195211599Y-93013399D01*
X195231358Y-93007496D01*
X195548657Y-92935821D01*
X195569034Y-92932658D01*
X195898275Y-92904322D01*
X195908578Y-92903788D01*
X196808625Y-92887858D01*
X196808631Y-92887858D01*
X198247000Y-92862400D01*
X198247000Y-92245347D01*
X198249181Y-92242505D01*
X198250692Y-92240536D01*
X198306472Y-92157054D01*
X198326233Y-92122826D01*
X198370632Y-92032793D01*
X198418812Y-91916476D01*
X198451078Y-91821425D01*
X198461308Y-91783249D01*
X198480898Y-91684772D01*
X198498639Y-91550018D01*
X198500808Y-91527987D01*
X198503441Y-91501257D01*
X198503444Y-91501226D01*
X198503562Y-91500023D01*
X198504857Y-91480261D01*
X198506500Y-91430075D01*
X198506500Y-86381792D01*
X198506670Y-86374617D01*
X198529588Y-85891533D01*
X198529604Y-85891175D01*
X198529846Y-85885609D01*
X198529856Y-85885366D01*
X198529936Y-85883342D01*
X198529941Y-85883204D01*
X198530137Y-85877778D01*
X198530145Y-85877534D01*
X198530629Y-85862597D01*
X198530641Y-85862240D01*
X198530923Y-85851003D01*
X198531002Y-85846560D01*
X198531121Y-85834862D01*
X198531161Y-85819092D01*
X198531153Y-85813205D01*
X198531142Y-85811062D01*
X198531093Y-85805519D01*
X198528501Y-85595711D01*
X198514329Y-84448793D01*
X198514329Y-84448779D01*
X198514313Y-84447517D01*
X198512081Y-84397744D01*
X198510564Y-84378154D01*
X198505105Y-84328616D01*
X198485989Y-84195122D01*
X198465501Y-84097644D01*
X198454962Y-84059873D01*
X198453989Y-84057097D01*
X198422838Y-83968197D01*
X198422834Y-83968188D01*
X198422024Y-83965875D01*
X198373150Y-83850909D01*
X198358724Y-83822289D01*
X198329430Y-83764174D01*
X198329423Y-83764161D01*
X198328319Y-83761971D01*
X198308433Y-83728173D01*
X198286387Y-83695725D01*
X198253831Y-83647805D01*
X198253823Y-83647794D01*
X198252454Y-83645779D01*
X198247000Y-83638776D01*
X198247000Y-83439000D01*
X198074448Y-83439000D01*
X198008215Y-83381575D01*
X198008213Y-83381573D01*
X198006366Y-83379972D01*
X198004428Y-83378501D01*
X198004421Y-83378495D01*
X197908800Y-83305902D01*
X197906860Y-83304429D01*
X197846788Y-83264692D01*
X197825830Y-83250828D01*
X197825820Y-83250822D01*
X197823790Y-83249479D01*
X197821672Y-83248268D01*
X197821661Y-83248261D01*
X197791890Y-83231236D01*
X197791891Y-83231236D01*
X197789755Y-83230015D01*
X197787568Y-83228946D01*
X197787560Y-83228942D01*
X197712557Y-83192290D01*
X197700255Y-83186278D01*
X197584688Y-83138827D01*
X197542598Y-83124660D01*
X197492636Y-83107844D01*
X197492628Y-83107842D01*
X197490288Y-83107054D01*
X197487912Y-83106423D01*
X197487900Y-83106419D01*
X197471048Y-83101941D01*
X197452390Y-83096983D01*
X197354671Y-83077702D01*
X197352236Y-83077384D01*
X197352230Y-83077383D01*
X197222176Y-83060397D01*
X197222148Y-83060394D01*
X197220955Y-83060238D01*
X197205237Y-83058702D01*
X197172587Y-83055512D01*
X197172557Y-83055510D01*
X197171364Y-83055393D01*
X197170152Y-83055314D01*
X197170125Y-83055312D01*
X197152994Y-83054198D01*
X197152967Y-83054197D01*
X197151757Y-83054118D01*
X197150540Y-83054078D01*
X197150510Y-83054077D01*
X197103192Y-83052540D01*
X197103177Y-83052540D01*
X197101953Y-83052500D01*
X192434900Y-83052500D01*
X192359200Y-83032216D01*
X192303784Y-82976800D01*
X192283500Y-82901100D01*
X192283500Y-77479925D01*
X192281857Y-77429739D01*
X192280562Y-77409977D01*
X192280444Y-77408774D01*
X192280441Y-77408743D01*
X192275761Y-77361225D01*
X192275639Y-77359982D01*
X192257898Y-77225228D01*
X192238308Y-77126751D01*
X192228078Y-77088575D01*
X192195812Y-76993524D01*
X192147632Y-76877207D01*
X192103233Y-76787174D01*
X192083472Y-76752946D01*
X192027692Y-76669464D01*
X191951046Y-76569577D01*
X191884851Y-76494097D01*
X191856903Y-76466149D01*
X191781423Y-76399954D01*
X191681536Y-76323308D01*
X191679468Y-76321926D01*
X191600120Y-76268908D01*
X191600111Y-76268902D01*
X191598054Y-76267528D01*
X191563826Y-76247767D01*
X191473793Y-76203368D01*
X191471503Y-76202420D01*
X191471491Y-76202414D01*
X191359773Y-76156139D01*
X191359761Y-76156135D01*
X191357476Y-76155188D01*
X191262425Y-76122922D01*
X191224249Y-76112692D01*
X191221823Y-76112209D01*
X191221817Y-76112208D01*
X191190953Y-76106068D01*
X191125772Y-76093102D01*
X190991018Y-76075361D01*
X190966574Y-76072954D01*
X190942257Y-76070559D01*
X190942226Y-76070556D01*
X190941023Y-76070438D01*
X190939822Y-76070359D01*
X190939794Y-76070357D01*
X190922517Y-76069225D01*
X190922499Y-76069224D01*
X190921261Y-76069143D01*
X190871075Y-76067500D01*
X186668652Y-76067500D01*
X186667454Y-76067538D01*
X186667452Y-76067538D01*
X186621274Y-76069001D01*
X186621243Y-76069002D01*
X186620059Y-76069040D01*
X186618864Y-76069116D01*
X186618839Y-76069117D01*
X186610963Y-76069617D01*
X186600923Y-76070254D01*
X186576714Y-76072562D01*
X186553687Y-76074757D01*
X186553667Y-76074759D01*
X186552505Y-76074870D01*
X186551347Y-76075018D01*
X186551325Y-76075020D01*
X186424315Y-76091204D01*
X186424312Y-76091204D01*
X186421930Y-76091508D01*
X186419562Y-76091964D01*
X186419560Y-76091964D01*
X186411121Y-76093588D01*
X186409401Y-76093919D01*
X186331231Y-76088306D01*
X186266342Y-76044360D01*
X186243576Y-76009231D01*
X186183676Y-75880775D01*
X186179948Y-75872780D01*
X186069420Y-75732996D01*
X186014004Y-75677580D01*
X185981533Y-75646944D01*
X185885893Y-75579976D01*
X185842779Y-75549787D01*
X185842778Y-75549786D01*
X185835558Y-75544731D01*
X185669946Y-75478937D01*
X185621929Y-75466071D01*
X185594736Y-75458784D01*
X185594699Y-75458774D01*
X185594246Y-75458653D01*
X185572598Y-75453188D01*
X185395600Y-75432500D01*
X176300400Y-75432500D01*
X176278075Y-75432825D01*
X176101754Y-75458653D01*
X176026054Y-75478937D01*
X175983287Y-75491740D01*
X175821780Y-75567052D01*
X175681996Y-75677580D01*
X175626580Y-75732996D01*
X175595944Y-75765467D01*
X175493731Y-75911442D01*
X175427937Y-76077054D01*
X175407653Y-76152754D01*
X175402188Y-76174402D01*
X175381500Y-76351400D01*
X175381500Y-80382677D01*
X175361216Y-80458377D01*
X175305800Y-80513793D01*
X175230100Y-80534077D01*
X175210345Y-80532782D01*
X175160872Y-80526269D01*
X175117228Y-80520523D01*
X175117204Y-80520520D01*
X175116002Y-80520362D01*
X175114768Y-80520240D01*
X175114764Y-80520240D01*
X175067240Y-80515559D01*
X175067214Y-80515557D01*
X175066007Y-80515438D01*
X175047572Y-80514230D01*
X175047496Y-80514225D01*
X175047494Y-80514225D01*
X175046244Y-80514143D01*
X175029498Y-80513595D01*
X174997315Y-80512542D01*
X174997311Y-80512542D01*
X174996060Y-80512501D01*
X174051512Y-80512500D01*
X173111479Y-80512500D01*
X173061241Y-80514146D01*
X173048918Y-80514954D01*
X173042747Y-80515359D01*
X173042737Y-80515360D01*
X173041469Y-80515443D01*
X172991475Y-80520370D01*
X172856655Y-80538129D01*
X172808049Y-80547803D01*
X172760552Y-80557256D01*
X172760542Y-80557258D01*
X172758127Y-80557739D01*
X172755733Y-80558381D01*
X172722332Y-80567336D01*
X172722325Y-80567338D01*
X172719931Y-80567980D01*
X172624824Y-80600285D01*
X172622530Y-80601236D01*
X172510756Y-80647563D01*
X172510750Y-80647566D01*
X172508450Y-80648519D01*
X172418385Y-80692962D01*
X172384145Y-80712743D01*
X172300636Y-80768580D01*
X172200721Y-80845304D01*
X172125225Y-80911564D01*
X172123484Y-80913307D01*
X172123476Y-80913314D01*
X172111411Y-80925390D01*
X172097273Y-80939540D01*
X172031072Y-81015100D01*
X172022717Y-81026000D01*
X171831000Y-81026000D01*
X171828236Y-81338281D01*
X171786420Y-81439419D01*
X171754191Y-81534579D01*
X171743988Y-81572771D01*
X171724471Y-81671284D01*
X171706827Y-81806126D01*
X171701941Y-81856162D01*
X171700662Y-81875935D01*
X171699061Y-81926143D01*
X161163000Y-81926143D01*
X161163000Y-72183488D01*
X170960933Y-72183488D01*
X170961371Y-72188493D01*
X170978893Y-72388763D01*
X170987129Y-72482905D01*
X171052694Y-72776227D01*
X171156477Y-73058301D01*
X171158816Y-73062738D01*
X171158819Y-73062744D01*
X171294314Y-73319733D01*
X171294318Y-73319740D01*
X171296655Y-73324172D01*
X171470764Y-73569167D01*
X171474185Y-73572836D01*
X171474187Y-73572838D01*
X171672324Y-73785314D01*
X171672329Y-73785319D01*
X171675746Y-73788983D01*
X171907999Y-73979758D01*
X171912262Y-73982401D01*
X171912266Y-73982404D01*
X172066815Y-74078228D01*
X172163443Y-74138140D01*
X172437591Y-74261347D01*
X172442411Y-74262784D01*
X172442414Y-74262785D01*
X172720804Y-74345777D01*
X172720807Y-74345778D01*
X172725625Y-74347214D01*
X173022485Y-74394232D01*
X173026709Y-74394424D01*
X173026711Y-74394424D01*
X173114755Y-74398422D01*
X173114765Y-74398422D01*
X173116478Y-74398500D01*
X173304243Y-74398500D01*
X173306754Y-74398333D01*
X173306761Y-74398333D01*
X173522889Y-74383978D01*
X173522892Y-74383978D01*
X173527900Y-74383645D01*
X173822531Y-74324237D01*
X174106716Y-74226384D01*
X174141391Y-74209020D01*
X174370976Y-74094053D01*
X174370983Y-74094049D01*
X174375464Y-74091805D01*
X174536443Y-73982404D01*
X174619893Y-73925692D01*
X174619898Y-73925688D01*
X174624052Y-73922865D01*
X174848113Y-73722531D01*
X174851375Y-73718725D01*
X174851380Y-73718720D01*
X175040447Y-73498131D01*
X175043710Y-73494324D01*
X175207407Y-73242253D01*
X175336328Y-72970746D01*
X175337866Y-72965956D01*
X175426669Y-72689368D01*
X175426671Y-72689361D01*
X175428208Y-72684573D01*
X175481432Y-72388763D01*
X175495067Y-72088512D01*
X175477546Y-71888251D01*
X175469309Y-71794098D01*
X175469308Y-71794094D01*
X175468871Y-71789095D01*
X175403306Y-71495773D01*
X175299523Y-71213699D01*
X175297184Y-71209262D01*
X175297181Y-71209256D01*
X175161686Y-70952267D01*
X175161682Y-70952260D01*
X175159345Y-70947828D01*
X174985236Y-70702833D01*
X174981813Y-70699162D01*
X174783676Y-70486686D01*
X174783671Y-70486681D01*
X174780254Y-70483017D01*
X174548001Y-70292242D01*
X174543738Y-70289599D01*
X174543734Y-70289596D01*
X174296821Y-70136504D01*
X174292557Y-70133860D01*
X174018409Y-70010653D01*
X174013589Y-70009216D01*
X174013586Y-70009215D01*
X173735196Y-69926223D01*
X173735193Y-69926222D01*
X173730375Y-69924786D01*
X173433515Y-69877768D01*
X173429291Y-69877576D01*
X173429289Y-69877576D01*
X173341245Y-69873578D01*
X173341235Y-69873578D01*
X173339522Y-69873500D01*
X173151757Y-69873500D01*
X173149246Y-69873667D01*
X173149239Y-69873667D01*
X172933111Y-69888022D01*
X172933108Y-69888022D01*
X172928100Y-69888355D01*
X172633469Y-69947763D01*
X172349284Y-70045616D01*
X172344794Y-70047864D01*
X172344795Y-70047864D01*
X172085024Y-70177947D01*
X172085017Y-70177951D01*
X172080536Y-70180195D01*
X172076383Y-70183018D01*
X172076382Y-70183018D01*
X171836107Y-70346308D01*
X171836102Y-70346312D01*
X171831948Y-70349135D01*
X171607887Y-70549469D01*
X171604625Y-70553275D01*
X171604620Y-70553280D01*
X171474283Y-70705347D01*
X171412290Y-70777676D01*
X171248593Y-71029747D01*
X171119672Y-71301254D01*
X171118135Y-71306043D01*
X171118134Y-71306044D01*
X171029331Y-71582632D01*
X171029329Y-71582639D01*
X171027792Y-71587427D01*
X170974568Y-71883237D01*
X170960933Y-72183488D01*
X161163000Y-72183488D01*
X161163000Y-68627488D01*
X194677433Y-68627488D01*
X194677871Y-68632493D01*
X194695393Y-68832763D01*
X194703629Y-68926905D01*
X194769194Y-69220227D01*
X194872977Y-69502301D01*
X194875316Y-69506738D01*
X194875319Y-69506744D01*
X195010814Y-69763733D01*
X195010818Y-69763740D01*
X195013155Y-69768172D01*
X195187264Y-70013167D01*
X195190685Y-70016836D01*
X195190687Y-70016838D01*
X195388824Y-70229314D01*
X195388829Y-70229319D01*
X195392246Y-70232983D01*
X195624499Y-70423758D01*
X195628762Y-70426401D01*
X195628766Y-70426404D01*
X195714935Y-70479831D01*
X195879943Y-70582140D01*
X196154091Y-70705347D01*
X196158911Y-70706784D01*
X196158914Y-70706785D01*
X196437304Y-70789777D01*
X196437307Y-70789778D01*
X196442125Y-70791214D01*
X196738985Y-70838232D01*
X196743209Y-70838424D01*
X196743211Y-70838424D01*
X196831255Y-70842422D01*
X196831265Y-70842422D01*
X196832978Y-70842500D01*
X197020743Y-70842500D01*
X197023254Y-70842333D01*
X197023261Y-70842333D01*
X197239389Y-70827978D01*
X197239392Y-70827978D01*
X197244400Y-70827645D01*
X197539031Y-70768237D01*
X197823216Y-70670384D01*
X197857891Y-70653020D01*
X198087476Y-70538053D01*
X198087483Y-70538049D01*
X198091964Y-70535805D01*
X198164241Y-70486686D01*
X198336393Y-70369692D01*
X198336398Y-70369688D01*
X198340552Y-70366865D01*
X198564613Y-70166531D01*
X198567875Y-70162725D01*
X198567880Y-70162720D01*
X198756947Y-69942131D01*
X198760210Y-69938324D01*
X198923907Y-69686253D01*
X199052828Y-69414746D01*
X199054366Y-69409956D01*
X199143169Y-69133368D01*
X199143171Y-69133361D01*
X199144708Y-69128573D01*
X199197932Y-68832763D01*
X199211567Y-68532512D01*
X199194046Y-68332251D01*
X199185809Y-68238098D01*
X199185808Y-68238094D01*
X199185371Y-68233095D01*
X199119806Y-67939773D01*
X199016023Y-67657699D01*
X199013684Y-67653262D01*
X199013681Y-67653256D01*
X198878186Y-67396267D01*
X198878182Y-67396260D01*
X198875845Y-67391828D01*
X198701736Y-67146833D01*
X198698313Y-67143162D01*
X198500176Y-66930686D01*
X198500171Y-66930681D01*
X198496754Y-66927017D01*
X198264501Y-66736242D01*
X198260238Y-66733599D01*
X198260234Y-66733596D01*
X198013321Y-66580504D01*
X198009057Y-66577860D01*
X197734909Y-66454653D01*
X197730089Y-66453216D01*
X197730086Y-66453215D01*
X197451696Y-66370223D01*
X197451693Y-66370222D01*
X197446875Y-66368786D01*
X197150015Y-66321768D01*
X197145791Y-66321576D01*
X197145789Y-66321576D01*
X197057745Y-66317578D01*
X197057735Y-66317578D01*
X197056022Y-66317500D01*
X196868257Y-66317500D01*
X196865746Y-66317667D01*
X196865739Y-66317667D01*
X196649611Y-66332022D01*
X196649608Y-66332022D01*
X196644600Y-66332355D01*
X196349969Y-66391763D01*
X196065784Y-66489616D01*
X196061294Y-66491864D01*
X196061295Y-66491864D01*
X195801524Y-66621947D01*
X195801517Y-66621951D01*
X195797036Y-66624195D01*
X195792883Y-66627018D01*
X195792882Y-66627018D01*
X195552607Y-66790308D01*
X195552602Y-66790312D01*
X195548448Y-66793135D01*
X195324387Y-66993469D01*
X195321125Y-66997275D01*
X195321120Y-66997280D01*
X195192938Y-67146833D01*
X195128790Y-67221676D01*
X194965093Y-67473747D01*
X194836172Y-67745254D01*
X194834635Y-67750043D01*
X194834634Y-67750044D01*
X194745831Y-68026632D01*
X194745829Y-68026639D01*
X194744292Y-68031427D01*
X194691068Y-68327237D01*
X194677433Y-68627488D01*
X161163000Y-68627488D01*
X161163000Y-66214578D01*
X161163276Y-66205437D01*
X161180966Y-65912977D01*
X161183170Y-65894827D01*
X161235157Y-65611148D01*
X161239532Y-65593397D01*
X161325335Y-65318046D01*
X161331818Y-65300952D01*
X161450184Y-65037952D01*
X161458681Y-65021763D01*
X161607882Y-64774956D01*
X161618267Y-64759910D01*
X161796136Y-64532876D01*
X161808260Y-64519191D01*
X161881108Y-64446343D01*
X161948979Y-64407158D01*
X161988164Y-64401999D01*
X202286100Y-64401999D01*
X202361800Y-64422283D01*
G37*
%TD.AperFunction*%
%TD*%
%TA.AperFunction,Conductor*%
%TO.N,/HBRIDGE/OUT2*%
G36*
X185852300Y-96006884D02*
G01*
X185907716Y-96062300D01*
X185928000Y-96138000D01*
X185928000Y-111684800D01*
X185907716Y-111760500D01*
X185852300Y-111815916D01*
X185776600Y-111836200D01*
X176173400Y-111836200D01*
X176097700Y-111815916D01*
X176042284Y-111760500D01*
X176022000Y-111684800D01*
X176022000Y-96138000D01*
X176042284Y-96062300D01*
X176097700Y-96006884D01*
X176173400Y-95986600D01*
X185776600Y-95986600D01*
X185852300Y-96006884D01*
G37*
%TD.AperFunction*%
%TD*%
%TA.AperFunction,Conductor*%
%TO.N,/HBRIDGE/VS1*%
G36*
X190890837Y-76836295D02*
G01*
X191025591Y-76854036D01*
X191063767Y-76864266D01*
X191180084Y-76912446D01*
X191214312Y-76932207D01*
X191314199Y-77008853D01*
X191342147Y-77036801D01*
X191418793Y-77136688D01*
X191438554Y-77170916D01*
X191486734Y-77287233D01*
X191496964Y-77325409D01*
X191514705Y-77460163D01*
X191516000Y-77479925D01*
X191516000Y-83820000D01*
X197101953Y-83820000D01*
X197121560Y-83821275D01*
X197255276Y-83838739D01*
X197293174Y-83848810D01*
X197408741Y-83896261D01*
X197442776Y-83915725D01*
X197542282Y-83991268D01*
X197570177Y-84018821D01*
X197646940Y-84117381D01*
X197666826Y-84151179D01*
X197715700Y-84266145D01*
X197726239Y-84303916D01*
X197745355Y-84437410D01*
X197746872Y-84457000D01*
X197763652Y-85815002D01*
X197763663Y-85817145D01*
X197763623Y-85832915D01*
X197763544Y-85837358D01*
X197763040Y-85852896D01*
X197762950Y-85855163D01*
X197739732Y-86344552D01*
X197739727Y-86344683D01*
X197739000Y-86360000D01*
X197739000Y-91430075D01*
X197737705Y-91449837D01*
X197719964Y-91584591D01*
X197709734Y-91622767D01*
X197661554Y-91739084D01*
X197641793Y-91773312D01*
X197565147Y-91873199D01*
X197537199Y-91901147D01*
X197437312Y-91977793D01*
X197403084Y-91997554D01*
X197286767Y-92045734D01*
X197248591Y-92055964D01*
X197113837Y-92073705D01*
X197094075Y-92075000D01*
X194919600Y-92075000D01*
X194797141Y-92129026D01*
X194797138Y-92129027D01*
X192694799Y-93056530D01*
X191465200Y-93599000D01*
X191462034Y-93600439D01*
X191461981Y-93600463D01*
X191461768Y-93600560D01*
X188803796Y-94808729D01*
X188788765Y-94814616D01*
X188683471Y-94849504D01*
X188651969Y-94856327D01*
X188541665Y-94868131D01*
X188525554Y-94868990D01*
X186182185Y-94868843D01*
X186182126Y-94868843D01*
X185779385Y-94868744D01*
X173122020Y-94865617D01*
X173102273Y-94864319D01*
X173001631Y-94851054D01*
X172967614Y-94846570D01*
X172929469Y-94836347D01*
X172813227Y-94788202D01*
X172779023Y-94768460D01*
X172679185Y-94691885D01*
X172651250Y-94663967D01*
X172574621Y-94564186D01*
X172554859Y-94529997D01*
X172506639Y-94413778D01*
X172496392Y-94375638D01*
X172492158Y-94343669D01*
X172478559Y-94240994D01*
X172477249Y-94221255D01*
X172476710Y-93600560D01*
X172470416Y-86360000D01*
X172467660Y-83189911D01*
X172466561Y-81925477D01*
X172467840Y-81905704D01*
X172485484Y-81770862D01*
X172495687Y-81732670D01*
X172543822Y-81616249D01*
X172563574Y-81581992D01*
X172640210Y-81482012D01*
X172668162Y-81454036D01*
X172768077Y-81377312D01*
X172802317Y-81357531D01*
X172918691Y-81309297D01*
X172956887Y-81299056D01*
X173012276Y-81291760D01*
X173091707Y-81281297D01*
X173111479Y-81280000D01*
X174371064Y-81280000D01*
X174996060Y-81280001D01*
X175015823Y-81281296D01*
X175150572Y-81299036D01*
X175188746Y-81309266D01*
X175288038Y-81350394D01*
X175350214Y-81398102D01*
X175380205Y-81470507D01*
X175381500Y-81490269D01*
X175381500Y-91060000D01*
X175381825Y-91082325D01*
X175407653Y-91258646D01*
X175427937Y-91334346D01*
X175440740Y-91377113D01*
X175516052Y-91538620D01*
X175626580Y-91678404D01*
X175681996Y-91733820D01*
X175714467Y-91764456D01*
X175727115Y-91773312D01*
X175820750Y-91838876D01*
X175860442Y-91866669D01*
X176026054Y-91932463D01*
X176074071Y-91945329D01*
X176101264Y-91952616D01*
X176101301Y-91952626D01*
X176101754Y-91952747D01*
X176123402Y-91958212D01*
X176300400Y-91978900D01*
X185395600Y-91978900D01*
X185417925Y-91978575D01*
X185594246Y-91952747D01*
X185669946Y-91932463D01*
X185712713Y-91919660D01*
X185752415Y-91901147D01*
X185866225Y-91848076D01*
X185874220Y-91844348D01*
X186014004Y-91733820D01*
X186069420Y-91678404D01*
X186100056Y-91645933D01*
X186202269Y-91499958D01*
X186268063Y-91334346D01*
X186288347Y-91258646D01*
X186293812Y-91236998D01*
X186314500Y-91060000D01*
X186314500Y-77031884D01*
X186334784Y-76956184D01*
X186390200Y-76900768D01*
X186409714Y-76891296D01*
X186481892Y-76862450D01*
X186518941Y-76852852D01*
X186617830Y-76840251D01*
X186649516Y-76836214D01*
X186668652Y-76835000D01*
X190871075Y-76835000D01*
X190890837Y-76836295D01*
G37*
%TD.AperFunction*%
%TD*%
%TA.AperFunction,Conductor*%
%TO.N,/HBRIDGE/OUT1*%
G36*
X185471300Y-76220284D02*
G01*
X185526716Y-76275700D01*
X185547000Y-76351400D01*
X185547000Y-91060000D01*
X185526716Y-91135700D01*
X185471300Y-91191116D01*
X185395600Y-91211400D01*
X176300400Y-91211400D01*
X176224700Y-91191116D01*
X176169284Y-91135700D01*
X176149000Y-91060000D01*
X176149000Y-76351400D01*
X176169284Y-76275700D01*
X176224700Y-76220284D01*
X176300400Y-76200000D01*
X185395600Y-76200000D01*
X185471300Y-76220284D01*
G37*
%TD.AperFunction*%
%TD*%
%TA.AperFunction,Conductor*%
%TO.N,GND*%
G36*
X160087830Y-63965083D02*
G01*
X160143246Y-64020499D01*
X160163530Y-64096220D01*
X160155480Y-119881474D01*
X160155079Y-122656821D01*
X160134784Y-122732518D01*
X160079360Y-122787926D01*
X160003679Y-122808199D01*
X59689500Y-122808199D01*
X59613800Y-122787915D01*
X59558384Y-122732499D01*
X59538100Y-122656799D01*
X59538100Y-118210520D01*
X69293015Y-118210520D01*
X69293773Y-118216087D01*
X69293773Y-118216093D01*
X69328442Y-118470833D01*
X69329199Y-118476395D01*
X69404284Y-118734002D01*
X69516622Y-118977681D01*
X69663743Y-119202079D01*
X69842417Y-119402265D01*
X70048717Y-119573844D01*
X70278113Y-119713044D01*
X70328102Y-119734006D01*
X70520374Y-119814633D01*
X70520378Y-119814634D01*
X70525564Y-119816809D01*
X70531016Y-119818194D01*
X70531020Y-119818195D01*
X70722960Y-119866942D01*
X70785634Y-119882859D01*
X70791226Y-119883422D01*
X70791231Y-119883423D01*
X71004718Y-119904920D01*
X71004726Y-119904920D01*
X71008496Y-119905300D01*
X71168118Y-119905300D01*
X71367589Y-119890477D01*
X71373062Y-119889239D01*
X71373066Y-119889238D01*
X71498444Y-119860867D01*
X71629299Y-119831258D01*
X71662891Y-119818195D01*
X71874140Y-119736044D01*
X71879381Y-119734006D01*
X72112342Y-119600858D01*
X72323063Y-119434739D01*
X72326907Y-119430652D01*
X72326911Y-119430649D01*
X72503062Y-119243395D01*
X72503063Y-119243394D01*
X72506916Y-119239298D01*
X72529833Y-119206264D01*
X72656659Y-119023444D01*
X72656660Y-119023442D01*
X72659861Y-119018828D01*
X72778538Y-118778174D01*
X72860342Y-118522621D01*
X72903473Y-118257783D01*
X72904092Y-118210520D01*
X132940015Y-118210520D01*
X132940773Y-118216087D01*
X132940773Y-118216093D01*
X132975442Y-118470833D01*
X132976199Y-118476395D01*
X133051284Y-118734002D01*
X133163622Y-118977681D01*
X133310743Y-119202079D01*
X133489417Y-119402265D01*
X133695717Y-119573844D01*
X133925113Y-119713044D01*
X133975102Y-119734006D01*
X134167374Y-119814633D01*
X134167378Y-119814634D01*
X134172564Y-119816809D01*
X134178016Y-119818194D01*
X134178020Y-119818195D01*
X134369960Y-119866942D01*
X134432634Y-119882859D01*
X134438226Y-119883422D01*
X134438231Y-119883423D01*
X134651718Y-119904920D01*
X134651726Y-119904920D01*
X134655496Y-119905300D01*
X134815118Y-119905300D01*
X135014589Y-119890477D01*
X135020062Y-119889239D01*
X135020066Y-119889238D01*
X135145444Y-119860867D01*
X135276299Y-119831258D01*
X135309891Y-119818195D01*
X135521140Y-119736044D01*
X135526381Y-119734006D01*
X135759342Y-119600858D01*
X135970063Y-119434739D01*
X135973907Y-119430652D01*
X135973911Y-119430649D01*
X136150062Y-119243395D01*
X136150063Y-119243394D01*
X136153916Y-119239298D01*
X136176833Y-119206264D01*
X136303659Y-119023444D01*
X136303660Y-119023442D01*
X136306861Y-119018828D01*
X136425538Y-118778174D01*
X136507342Y-118522621D01*
X136550473Y-118257783D01*
X136551166Y-118204896D01*
X136553911Y-117995104D01*
X136553985Y-117989480D01*
X136546798Y-117936666D01*
X136518558Y-117729167D01*
X136518558Y-117729166D01*
X136517801Y-117723605D01*
X136442716Y-117465998D01*
X136330378Y-117222319D01*
X136183257Y-116997921D01*
X136004583Y-116797735D01*
X135798283Y-116626156D01*
X135568887Y-116486956D01*
X135423036Y-116425796D01*
X135326626Y-116385367D01*
X135326622Y-116385366D01*
X135321436Y-116383191D01*
X135315984Y-116381806D01*
X135315980Y-116381805D01*
X135066819Y-116318526D01*
X135066820Y-116318526D01*
X135061366Y-116317141D01*
X135055774Y-116316578D01*
X135055769Y-116316577D01*
X134842282Y-116295080D01*
X134842274Y-116295080D01*
X134838504Y-116294700D01*
X134678882Y-116294700D01*
X134479411Y-116309523D01*
X134473938Y-116310761D01*
X134473934Y-116310762D01*
X134348556Y-116339132D01*
X134217701Y-116368742D01*
X134212467Y-116370777D01*
X134212465Y-116370778D01*
X134174950Y-116385367D01*
X133967619Y-116465994D01*
X133734658Y-116599142D01*
X133523937Y-116765261D01*
X133520093Y-116769348D01*
X133520089Y-116769351D01*
X133343938Y-116956605D01*
X133340084Y-116960702D01*
X133336878Y-116965324D01*
X133336876Y-116965326D01*
X133190341Y-117176556D01*
X133187139Y-117181172D01*
X133068462Y-117421826D01*
X132986658Y-117677379D01*
X132943527Y-117942217D01*
X132943453Y-117947833D01*
X132943453Y-117947839D01*
X132941716Y-118080608D01*
X132940015Y-118210520D01*
X72904092Y-118210520D01*
X72904166Y-118204896D01*
X72906911Y-117995104D01*
X72906985Y-117989480D01*
X72899798Y-117936666D01*
X72871558Y-117729167D01*
X72871558Y-117729166D01*
X72870801Y-117723605D01*
X72795716Y-117465998D01*
X72683378Y-117222319D01*
X72536257Y-116997921D01*
X72357583Y-116797735D01*
X72151283Y-116626156D01*
X71921887Y-116486956D01*
X71776036Y-116425796D01*
X71679626Y-116385367D01*
X71679622Y-116385366D01*
X71674436Y-116383191D01*
X71668984Y-116381806D01*
X71668980Y-116381805D01*
X71419819Y-116318526D01*
X71419820Y-116318526D01*
X71414366Y-116317141D01*
X71408774Y-116316578D01*
X71408769Y-116316577D01*
X71195282Y-116295080D01*
X71195274Y-116295080D01*
X71191504Y-116294700D01*
X71031882Y-116294700D01*
X70832411Y-116309523D01*
X70826938Y-116310761D01*
X70826934Y-116310762D01*
X70701556Y-116339132D01*
X70570701Y-116368742D01*
X70565467Y-116370777D01*
X70565465Y-116370778D01*
X70527950Y-116385367D01*
X70320619Y-116465994D01*
X70087658Y-116599142D01*
X69876937Y-116765261D01*
X69873093Y-116769348D01*
X69873089Y-116769351D01*
X69696938Y-116956605D01*
X69693084Y-116960702D01*
X69689878Y-116965324D01*
X69689876Y-116965326D01*
X69543341Y-117176556D01*
X69540139Y-117181172D01*
X69421462Y-117421826D01*
X69339658Y-117677379D01*
X69296527Y-117942217D01*
X69296453Y-117947833D01*
X69296453Y-117947839D01*
X69294716Y-118080608D01*
X69293015Y-118210520D01*
X59538100Y-118210520D01*
X59538100Y-107856440D01*
X68500726Y-107856440D01*
X68517446Y-108146421D01*
X68573367Y-108431451D01*
X68667453Y-108706254D01*
X68797963Y-108965745D01*
X68800884Y-108969995D01*
X68834158Y-109018408D01*
X68962484Y-109205123D01*
X69157969Y-109419959D01*
X69380802Y-109606276D01*
X69626860Y-109760628D01*
X69631557Y-109762749D01*
X69631563Y-109762752D01*
X69699375Y-109793370D01*
X69891589Y-109880158D01*
X69896534Y-109881623D01*
X69896540Y-109881625D01*
X70036773Y-109923163D01*
X70170091Y-109962654D01*
X70175182Y-109963433D01*
X70452119Y-110005810D01*
X70452124Y-110005810D01*
X70457212Y-110006589D01*
X70462366Y-110006670D01*
X70567566Y-110008323D01*
X70747639Y-110011152D01*
X70752753Y-110010533D01*
X70752756Y-110010533D01*
X70863624Y-109997116D01*
X71035998Y-109976256D01*
X71316954Y-109902549D01*
X71321718Y-109900576D01*
X71321723Y-109900574D01*
X71580536Y-109793370D01*
X71585307Y-109791394D01*
X71589759Y-109788793D01*
X71589762Y-109788791D01*
X71696899Y-109726185D01*
X71836091Y-109644847D01*
X71885283Y-109606276D01*
X72060606Y-109468806D01*
X72060613Y-109468800D01*
X72064667Y-109465621D01*
X72266804Y-109257032D01*
X72438762Y-109022939D01*
X72577359Y-108767675D01*
X72680030Y-108495963D01*
X72744876Y-108212831D01*
X72770697Y-107923518D01*
X72771165Y-107878800D01*
X72751409Y-107589010D01*
X72692507Y-107304581D01*
X72595548Y-107030779D01*
X72462327Y-106772668D01*
X72295310Y-106535026D01*
X72279231Y-106517723D01*
X72101097Y-106326028D01*
X72101094Y-106326026D01*
X72097585Y-106322249D01*
X72083553Y-106310764D01*
X71876798Y-106141537D01*
X71876792Y-106141533D01*
X71872813Y-106138276D01*
X71790868Y-106088060D01*
X71629545Y-105989200D01*
X71629540Y-105989197D01*
X71625153Y-105986509D01*
X71607822Y-105978901D01*
X71363906Y-105871829D01*
X71363900Y-105871827D01*
X71359187Y-105869758D01*
X71332985Y-105862294D01*
X71297114Y-105852076D01*
X71079836Y-105790183D01*
X71007114Y-105779833D01*
X70797375Y-105749982D01*
X70797369Y-105749982D01*
X70792271Y-105749256D01*
X70501812Y-105747735D01*
X70213834Y-105785649D01*
X70208856Y-105787011D01*
X70208855Y-105787011D01*
X70117022Y-105812134D01*
X69933665Y-105862294D01*
X69666491Y-105976253D01*
X69417255Y-106125418D01*
X69303362Y-106216664D01*
X69194590Y-106303806D01*
X69194585Y-106303810D01*
X69190569Y-106307028D01*
X69187028Y-106310759D01*
X69187023Y-106310764D01*
X68994174Y-106513985D01*
X68990627Y-106517723D01*
X68821130Y-106753603D01*
X68685213Y-107010304D01*
X68585393Y-107283076D01*
X68523516Y-107566872D01*
X68500726Y-107856440D01*
X59538100Y-107856440D01*
X59538100Y-102783994D01*
X75925584Y-102783994D01*
X75942902Y-102990224D01*
X75944944Y-102997344D01*
X75944944Y-102997346D01*
X75953270Y-103026382D01*
X75999946Y-103189161D01*
X76094545Y-103373231D01*
X76223095Y-103535420D01*
X76380699Y-103669552D01*
X76387160Y-103673163D01*
X76387163Y-103673165D01*
X76468807Y-103718794D01*
X76561354Y-103770517D01*
X76758180Y-103834469D01*
X76765526Y-103835345D01*
X76765531Y-103835346D01*
X76921551Y-103853950D01*
X76963680Y-103858973D01*
X76971062Y-103858405D01*
X76971064Y-103858405D01*
X77098710Y-103848583D01*
X77170025Y-103843096D01*
X77369356Y-103787442D01*
X77505255Y-103718794D01*
X96018497Y-103718794D01*
X96035815Y-103925024D01*
X96092859Y-104123961D01*
X96187458Y-104308031D01*
X96316008Y-104470220D01*
X96473612Y-104604352D01*
X96480073Y-104607963D01*
X96480076Y-104607965D01*
X96525524Y-104633365D01*
X96654267Y-104705317D01*
X96851093Y-104769269D01*
X96858439Y-104770145D01*
X96858444Y-104770146D01*
X97014464Y-104788750D01*
X97056593Y-104793773D01*
X97063975Y-104793205D01*
X97063977Y-104793205D01*
X97191623Y-104783383D01*
X97262938Y-104777896D01*
X97462269Y-104722242D01*
X97646994Y-104628930D01*
X97810077Y-104501516D01*
X97945305Y-104344852D01*
X97948961Y-104338416D01*
X97948964Y-104338412D01*
X98043869Y-104171348D01*
X98047529Y-104164906D01*
X98112854Y-103968531D01*
X98138793Y-103763208D01*
X98139058Y-103744194D01*
X119869097Y-103744194D01*
X119886415Y-103950424D01*
X119943459Y-104149361D01*
X120038058Y-104333431D01*
X120166608Y-104495620D01*
X120324212Y-104629752D01*
X120330673Y-104633363D01*
X120330676Y-104633365D01*
X120452114Y-104701234D01*
X120504867Y-104730717D01*
X120701693Y-104794669D01*
X120709039Y-104795545D01*
X120709044Y-104795546D01*
X120865064Y-104814150D01*
X120907193Y-104819173D01*
X120941579Y-104816527D01*
X121018611Y-104830943D01*
X121060250Y-104860425D01*
X129288201Y-113088376D01*
X129295234Y-113095905D01*
X129331403Y-113137366D01*
X129381417Y-113172517D01*
X129387752Y-113177222D01*
X129428685Y-113209318D01*
X129428687Y-113209319D01*
X129435867Y-113214949D01*
X129444184Y-113218704D01*
X129451890Y-113223371D01*
X129459841Y-113227634D01*
X129467306Y-113232881D01*
X129475806Y-113236195D01*
X129475808Y-113236196D01*
X129524241Y-113255079D01*
X129531548Y-113258151D01*
X129578937Y-113279548D01*
X129578940Y-113279549D01*
X129587261Y-113283306D01*
X129596236Y-113284969D01*
X129604841Y-113287666D01*
X129613573Y-113289908D01*
X129622070Y-113293221D01*
X129631112Y-113294411D01*
X129631114Y-113294412D01*
X129682660Y-113301198D01*
X129690488Y-113302438D01*
X129750590Y-113313577D01*
X129759697Y-113313052D01*
X129759699Y-113313052D01*
X129810008Y-113310151D01*
X129818723Y-113309900D01*
X142250107Y-113309900D01*
X142325807Y-113330184D01*
X142348233Y-113346003D01*
X142494812Y-113470752D01*
X142501273Y-113474363D01*
X142501276Y-113474365D01*
X142622714Y-113542234D01*
X142675467Y-113571717D01*
X142872293Y-113635669D01*
X142879639Y-113636545D01*
X142879644Y-113636546D01*
X143035664Y-113655150D01*
X143077793Y-113660173D01*
X143085175Y-113659605D01*
X143085177Y-113659605D01*
X143212823Y-113649783D01*
X143284138Y-113644296D01*
X143483469Y-113588642D01*
X143668194Y-113495330D01*
X143831277Y-113367916D01*
X143966505Y-113211252D01*
X143970161Y-113204816D01*
X143970164Y-113204812D01*
X144024253Y-113109598D01*
X144068729Y-113031306D01*
X144134054Y-112834931D01*
X144159993Y-112629608D01*
X144160406Y-112600000D01*
X144140211Y-112394033D01*
X144080394Y-112195911D01*
X143983235Y-112013180D01*
X143852433Y-111852802D01*
X143692972Y-111720884D01*
X143651003Y-111698191D01*
X143517433Y-111625970D01*
X143517430Y-111625969D01*
X143510924Y-111622451D01*
X143503855Y-111620263D01*
X143503853Y-111620262D01*
X143320297Y-111563442D01*
X143320293Y-111563441D01*
X143313224Y-111561253D01*
X143305868Y-111560480D01*
X143305864Y-111560479D01*
X143114760Y-111540393D01*
X143114757Y-111540393D01*
X143107403Y-111539620D01*
X142901300Y-111558377D01*
X142894196Y-111560468D01*
X142894195Y-111560468D01*
X142709873Y-111614717D01*
X142702765Y-111616809D01*
X142519361Y-111712690D01*
X142358073Y-111842369D01*
X142323798Y-111883217D01*
X142259601Y-111928169D01*
X142207818Y-111937300D01*
X130140987Y-111937300D01*
X130065287Y-111917016D01*
X130033931Y-111892956D01*
X129171430Y-111030455D01*
X147193900Y-111030455D01*
X147193901Y-114216744D01*
X147194448Y-114221261D01*
X147194448Y-114221268D01*
X147203690Y-114297645D01*
X147204859Y-114307304D01*
X147208437Y-114316341D01*
X147208438Y-114316345D01*
X147250225Y-114421887D01*
X147260866Y-114448762D01*
X147267107Y-114456984D01*
X147267108Y-114456986D01*
X147337196Y-114549322D01*
X147352852Y-114569948D01*
X147361074Y-114576189D01*
X147465814Y-114655692D01*
X147465816Y-114655693D01*
X147474038Y-114661934D01*
X147483637Y-114665735D01*
X147483638Y-114665735D01*
X147605795Y-114714100D01*
X147615496Y-114717941D01*
X147625154Y-114719110D01*
X147625155Y-114719110D01*
X147647172Y-114721774D01*
X147706055Y-114728900D01*
X148538743Y-114728900D01*
X149372344Y-114728899D01*
X149376861Y-114728352D01*
X149376868Y-114728352D01*
X149453253Y-114719109D01*
X149453255Y-114719109D01*
X149462904Y-114717941D01*
X149471941Y-114714363D01*
X149471945Y-114714362D01*
X149594762Y-114665735D01*
X149594763Y-114665735D01*
X149604362Y-114661934D01*
X149612584Y-114655693D01*
X149612586Y-114655692D01*
X149717326Y-114576189D01*
X149725548Y-114569948D01*
X149741204Y-114549322D01*
X149811292Y-114456986D01*
X149811293Y-114456984D01*
X149817534Y-114448762D01*
X149828175Y-114421887D01*
X149869960Y-114316349D01*
X149869961Y-114316345D01*
X149873541Y-114307304D01*
X149884500Y-114216745D01*
X149884500Y-113442340D01*
X152273900Y-113442340D01*
X152274188Y-113445631D01*
X152286874Y-113590633D01*
X152289277Y-113618101D01*
X152290988Y-113624487D01*
X152290989Y-113624492D01*
X152296448Y-113644864D01*
X152350202Y-113845477D01*
X152449686Y-114058819D01*
X152584704Y-114251645D01*
X152751155Y-114418096D01*
X152943980Y-114553114D01*
X152949972Y-114555908D01*
X152949974Y-114555909D01*
X153151335Y-114649806D01*
X153151338Y-114649807D01*
X153157323Y-114652598D01*
X153163706Y-114654308D01*
X153163708Y-114654309D01*
X153378308Y-114711811D01*
X153378313Y-114711812D01*
X153384699Y-114713523D01*
X153391284Y-114714099D01*
X153391289Y-114714100D01*
X153612616Y-114733463D01*
X153619200Y-114734039D01*
X153625784Y-114733463D01*
X153847111Y-114714100D01*
X153847116Y-114714099D01*
X153853701Y-114713523D01*
X153860087Y-114711812D01*
X153860092Y-114711811D01*
X154074692Y-114654309D01*
X154074694Y-114654308D01*
X154081077Y-114652598D01*
X154087062Y-114649807D01*
X154087065Y-114649806D01*
X154258319Y-114569948D01*
X154294419Y-114553114D01*
X154443450Y-114448762D01*
X154481831Y-114421887D01*
X154481832Y-114421887D01*
X154487245Y-114418096D01*
X154653696Y-114251645D01*
X154788714Y-114058819D01*
X154888198Y-113845477D01*
X154941952Y-113644864D01*
X154947411Y-113624492D01*
X154947412Y-113624487D01*
X154949123Y-113618101D01*
X154951527Y-113590633D01*
X154964212Y-113445631D01*
X154964500Y-113442340D01*
X154964500Y-111804860D01*
X154949123Y-111629099D01*
X154946756Y-111620262D01*
X154889909Y-111408108D01*
X154889908Y-111408106D01*
X154888198Y-111401723D01*
X154788714Y-111188381D01*
X154653696Y-110995555D01*
X154487245Y-110829104D01*
X154294420Y-110694086D01*
X154244936Y-110671011D01*
X154087065Y-110597394D01*
X154087062Y-110597393D01*
X154081077Y-110594602D01*
X154074694Y-110592892D01*
X154074692Y-110592891D01*
X153860092Y-110535389D01*
X153860087Y-110535388D01*
X153853701Y-110533677D01*
X153847116Y-110533101D01*
X153847111Y-110533100D01*
X153625784Y-110513737D01*
X153619200Y-110513161D01*
X153612616Y-110513737D01*
X153391289Y-110533100D01*
X153391284Y-110533101D01*
X153384699Y-110533677D01*
X153378313Y-110535388D01*
X153378308Y-110535389D01*
X153163708Y-110592891D01*
X153163706Y-110592892D01*
X153157323Y-110594602D01*
X153151338Y-110597393D01*
X153151335Y-110597394D01*
X153018461Y-110659355D01*
X152943981Y-110694086D01*
X152938568Y-110697877D01*
X152938565Y-110697878D01*
X152756569Y-110825313D01*
X152751155Y-110829104D01*
X152584704Y-110995555D01*
X152449686Y-111188381D01*
X152350202Y-111401723D01*
X152348492Y-111408106D01*
X152348491Y-111408108D01*
X152291645Y-111620262D01*
X152289277Y-111629099D01*
X152273900Y-111804860D01*
X152273900Y-113442340D01*
X149884500Y-113442340D01*
X149884499Y-111030456D01*
X149883952Y-111025929D01*
X149874709Y-110949547D01*
X149874709Y-110949545D01*
X149873541Y-110939896D01*
X149869963Y-110930859D01*
X149869962Y-110930855D01*
X149821335Y-110808038D01*
X149821335Y-110808037D01*
X149817534Y-110798438D01*
X149741207Y-110697881D01*
X149731789Y-110685474D01*
X149725548Y-110677252D01*
X149616662Y-110594602D01*
X149612586Y-110591508D01*
X149612584Y-110591507D01*
X149604362Y-110585266D01*
X149474063Y-110533677D01*
X149471949Y-110532840D01*
X149471948Y-110532840D01*
X149462904Y-110529259D01*
X149453246Y-110528090D01*
X149453245Y-110528090D01*
X149431228Y-110525426D01*
X149372345Y-110518300D01*
X148539658Y-110518300D01*
X147706056Y-110518301D01*
X147701539Y-110518848D01*
X147701532Y-110518848D01*
X147625147Y-110528091D01*
X147625145Y-110528091D01*
X147615496Y-110529259D01*
X147606459Y-110532837D01*
X147606455Y-110532838D01*
X147483638Y-110581465D01*
X147474038Y-110585266D01*
X147465816Y-110591507D01*
X147465814Y-110591508D01*
X147461738Y-110594602D01*
X147352852Y-110677252D01*
X147346611Y-110685474D01*
X147337194Y-110697881D01*
X147260866Y-110798438D01*
X147257065Y-110808037D01*
X147257065Y-110808038D01*
X147248725Y-110829104D01*
X147204859Y-110939896D01*
X147193900Y-111030455D01*
X129171430Y-111030455D01*
X122033791Y-103892817D01*
X121994606Y-103824946D01*
X121989462Y-103783648D01*
X121989747Y-103763231D01*
X121989806Y-103759000D01*
X121988354Y-103744194D01*
X121970334Y-103560405D01*
X121970334Y-103560403D01*
X121969611Y-103553033D01*
X121909794Y-103354911D01*
X121812635Y-103172180D01*
X121681833Y-103011802D01*
X121522372Y-102879884D01*
X121427169Y-102828408D01*
X121346833Y-102784970D01*
X121346830Y-102784969D01*
X121340324Y-102781451D01*
X121333255Y-102779263D01*
X121333253Y-102779262D01*
X121149697Y-102722442D01*
X121149693Y-102722441D01*
X121142624Y-102720253D01*
X121135268Y-102719480D01*
X121135264Y-102719479D01*
X120944160Y-102699393D01*
X120944157Y-102699393D01*
X120936803Y-102698620D01*
X120730700Y-102717377D01*
X120723596Y-102719468D01*
X120723595Y-102719468D01*
X120539273Y-102773717D01*
X120532165Y-102775809D01*
X120348761Y-102871690D01*
X120187473Y-103001369D01*
X120154421Y-103040759D01*
X120059981Y-103153309D01*
X120054445Y-103159906D01*
X120050879Y-103166393D01*
X120050878Y-103166394D01*
X119964793Y-103322982D01*
X119954743Y-103341262D01*
X119892166Y-103538529D01*
X119869097Y-103744194D01*
X98139058Y-103744194D01*
X98139206Y-103733600D01*
X98122224Y-103560405D01*
X98119734Y-103535005D01*
X98119734Y-103535003D01*
X98119011Y-103527633D01*
X98059194Y-103329511D01*
X97979012Y-103178709D01*
X97965507Y-103153309D01*
X97965505Y-103153305D01*
X97962035Y-103146780D01*
X97831233Y-102986402D01*
X97825536Y-102981689D01*
X97825530Y-102981683D01*
X97819992Y-102977102D01*
X97774595Y-102913220D01*
X97765100Y-102860448D01*
X97765100Y-101007187D01*
X97785384Y-100931487D01*
X97809444Y-100900131D01*
X98799828Y-99909746D01*
X98867699Y-99870561D01*
X98907349Y-99865762D01*
X98910793Y-99866173D01*
X99117138Y-99850296D01*
X99316469Y-99794642D01*
X99501194Y-99701330D01*
X99664277Y-99573916D01*
X99799505Y-99417252D01*
X99803161Y-99410816D01*
X99803164Y-99410812D01*
X99898069Y-99243748D01*
X99901729Y-99237306D01*
X99908690Y-99216382D01*
X99964716Y-99047959D01*
X99967054Y-99040931D01*
X99992993Y-98835608D01*
X99993406Y-98806000D01*
X99991233Y-98783834D01*
X99973934Y-98607405D01*
X99973934Y-98607403D01*
X99973211Y-98600033D01*
X99913394Y-98401911D01*
X99828157Y-98241602D01*
X99819707Y-98225709D01*
X99819705Y-98225705D01*
X99816235Y-98219180D01*
X99685433Y-98058802D01*
X99525972Y-97926884D01*
X99466140Y-97894533D01*
X99350433Y-97831970D01*
X99350430Y-97831969D01*
X99343924Y-97828451D01*
X99336855Y-97826263D01*
X99336853Y-97826262D01*
X99153297Y-97769442D01*
X99153293Y-97769441D01*
X99146224Y-97767253D01*
X99138868Y-97766480D01*
X99138864Y-97766479D01*
X98947760Y-97746393D01*
X98947757Y-97746393D01*
X98940403Y-97745620D01*
X98734300Y-97764377D01*
X98727196Y-97766468D01*
X98727195Y-97766468D01*
X98712252Y-97770866D01*
X98535765Y-97822809D01*
X98352361Y-97918690D01*
X98191073Y-98048369D01*
X98058045Y-98206906D01*
X98054479Y-98213393D01*
X98054478Y-98213394D01*
X97972028Y-98363370D01*
X97958343Y-98388262D01*
X97895766Y-98585529D01*
X97872697Y-98791194D01*
X97873317Y-98798574D01*
X97874914Y-98817601D01*
X97861035Y-98894732D01*
X97831101Y-98937324D01*
X96614032Y-100154394D01*
X96606503Y-100161427D01*
X96571909Y-100191605D01*
X96571907Y-100191607D01*
X96565034Y-100197603D01*
X96559790Y-100205064D01*
X96559785Y-100205070D01*
X96529893Y-100247603D01*
X96525166Y-100253968D01*
X96493086Y-100294881D01*
X96493084Y-100294884D01*
X96487452Y-100302067D01*
X96483694Y-100310389D01*
X96479021Y-100318106D01*
X96474768Y-100326037D01*
X96469519Y-100333506D01*
X96466204Y-100342009D01*
X96447313Y-100390461D01*
X96444250Y-100397747D01*
X96419094Y-100453461D01*
X96417429Y-100462443D01*
X96414733Y-100471047D01*
X96412493Y-100479770D01*
X96409179Y-100488270D01*
X96407989Y-100497312D01*
X96407988Y-100497314D01*
X96401202Y-100548860D01*
X96399962Y-100556688D01*
X96388823Y-100616790D01*
X96389348Y-100625897D01*
X96389348Y-100625899D01*
X96392249Y-100676208D01*
X96392500Y-100684923D01*
X96392500Y-102858864D01*
X96372216Y-102934564D01*
X96347029Y-102967036D01*
X96342651Y-102971324D01*
X96336873Y-102975969D01*
X96203845Y-103134506D01*
X96200279Y-103140993D01*
X96200278Y-103140994D01*
X96147747Y-103236548D01*
X96104143Y-103315862D01*
X96041566Y-103513129D01*
X96040741Y-103520487D01*
X96040740Y-103520490D01*
X96038717Y-103538529D01*
X96018497Y-103718794D01*
X77505255Y-103718794D01*
X77554081Y-103694130D01*
X77717164Y-103566716D01*
X77852392Y-103410052D01*
X77856048Y-103403616D01*
X77856051Y-103403612D01*
X77950956Y-103236548D01*
X77954616Y-103230106D01*
X77984260Y-103140994D01*
X78017603Y-103040759D01*
X78019941Y-103033731D01*
X78045880Y-102828408D01*
X78046293Y-102798800D01*
X78038806Y-102722442D01*
X78026821Y-102600205D01*
X78026821Y-102600203D01*
X78026098Y-102592833D01*
X77966281Y-102394711D01*
X77900086Y-102270215D01*
X77872594Y-102218509D01*
X77872592Y-102218505D01*
X77869122Y-102211980D01*
X77738320Y-102051602D01*
X77578859Y-101919684D01*
X77536890Y-101896991D01*
X77403320Y-101824770D01*
X77403317Y-101824769D01*
X77396811Y-101821251D01*
X77389742Y-101819063D01*
X77389740Y-101819062D01*
X77206184Y-101762242D01*
X77206180Y-101762241D01*
X77199111Y-101760053D01*
X77191755Y-101759280D01*
X77191751Y-101759279D01*
X77000647Y-101739193D01*
X77000644Y-101739193D01*
X76993290Y-101738420D01*
X76787187Y-101757177D01*
X76780083Y-101759268D01*
X76780082Y-101759268D01*
X76764918Y-101763731D01*
X76588652Y-101815609D01*
X76405248Y-101911490D01*
X76243960Y-102041169D01*
X76110932Y-102199706D01*
X76107366Y-102206193D01*
X76107365Y-102206194D01*
X76055094Y-102301275D01*
X76011230Y-102381062D01*
X75948653Y-102578329D01*
X75947828Y-102585687D01*
X75947827Y-102585690D01*
X75947459Y-102588973D01*
X75925584Y-102783994D01*
X59538100Y-102783994D01*
X59538100Y-101513994D01*
X78465584Y-101513994D01*
X78482902Y-101720224D01*
X78484944Y-101727344D01*
X78484944Y-101727346D01*
X78488312Y-101739091D01*
X78539946Y-101919161D01*
X78634545Y-102103231D01*
X78763095Y-102265420D01*
X78920699Y-102399552D01*
X78927160Y-102403163D01*
X78927163Y-102403165D01*
X79048601Y-102471034D01*
X79101354Y-102500517D01*
X79298180Y-102564469D01*
X79305526Y-102565345D01*
X79305531Y-102565346D01*
X79461551Y-102583950D01*
X79503680Y-102588973D01*
X79511062Y-102588405D01*
X79511064Y-102588405D01*
X79642014Y-102578329D01*
X79710025Y-102573096D01*
X79909356Y-102517442D01*
X80094081Y-102424130D01*
X80257164Y-102296716D01*
X80392392Y-102140052D01*
X80396048Y-102133616D01*
X80396051Y-102133612D01*
X80490956Y-101966548D01*
X80494616Y-101960106D01*
X80559941Y-101763731D01*
X80585880Y-101558408D01*
X80586293Y-101528800D01*
X80566098Y-101322833D01*
X80506281Y-101124711D01*
X80409122Y-100941980D01*
X80278320Y-100781602D01*
X80118859Y-100649684D01*
X80058023Y-100616790D01*
X79943320Y-100554770D01*
X79943317Y-100554769D01*
X79936811Y-100551251D01*
X79929742Y-100549063D01*
X79929740Y-100549062D01*
X79746184Y-100492242D01*
X79746180Y-100492241D01*
X79739111Y-100490053D01*
X79731755Y-100489280D01*
X79731751Y-100489279D01*
X79540647Y-100469193D01*
X79540644Y-100469193D01*
X79533290Y-100468420D01*
X79327187Y-100487177D01*
X79320083Y-100489268D01*
X79320082Y-100489268D01*
X79292744Y-100497314D01*
X79128652Y-100545609D01*
X78945248Y-100641490D01*
X78783960Y-100771169D01*
X78650932Y-100929706D01*
X78647366Y-100936193D01*
X78647365Y-100936194D01*
X78642813Y-100944475D01*
X78551230Y-101111062D01*
X78488653Y-101308329D01*
X78465584Y-101513994D01*
X59538100Y-101513994D01*
X59538100Y-98973994D01*
X78465584Y-98973994D01*
X78482902Y-99180224D01*
X78539946Y-99379161D01*
X78634545Y-99563231D01*
X78763095Y-99725420D01*
X78920699Y-99859552D01*
X78927160Y-99863163D01*
X78927163Y-99863165D01*
X79010510Y-99909746D01*
X79101354Y-99960517D01*
X79298180Y-100024469D01*
X79305526Y-100025345D01*
X79305531Y-100025346D01*
X79461551Y-100043950D01*
X79503680Y-100048973D01*
X79511062Y-100048405D01*
X79511064Y-100048405D01*
X79638710Y-100038583D01*
X79710025Y-100033096D01*
X79909356Y-99977442D01*
X80094081Y-99884130D01*
X80257164Y-99756716D01*
X80392392Y-99600052D01*
X80396048Y-99593616D01*
X80396051Y-99593612D01*
X80490956Y-99426548D01*
X80494616Y-99420106D01*
X80559941Y-99223731D01*
X80585880Y-99018408D01*
X80586293Y-98988800D01*
X80585565Y-98981372D01*
X80566821Y-98790205D01*
X80566821Y-98790203D01*
X80566098Y-98782833D01*
X80506281Y-98584711D01*
X80445594Y-98470574D01*
X80412594Y-98408509D01*
X80412592Y-98408505D01*
X80409122Y-98401980D01*
X80278320Y-98241602D01*
X80118859Y-98109684D01*
X80015959Y-98054046D01*
X79943320Y-98014770D01*
X79943317Y-98014769D01*
X79936811Y-98011251D01*
X79929742Y-98009063D01*
X79929740Y-98009062D01*
X79746184Y-97952242D01*
X79746180Y-97952241D01*
X79739111Y-97950053D01*
X79731755Y-97949280D01*
X79731751Y-97949279D01*
X79540647Y-97929193D01*
X79540644Y-97929193D01*
X79533290Y-97928420D01*
X79327187Y-97947177D01*
X79320083Y-97949268D01*
X79320082Y-97949268D01*
X79135760Y-98003517D01*
X79128652Y-98005609D01*
X78945248Y-98101490D01*
X78783960Y-98231169D01*
X78650932Y-98389706D01*
X78647366Y-98396193D01*
X78647365Y-98396194D01*
X78562445Y-98550663D01*
X78551230Y-98571062D01*
X78488653Y-98768329D01*
X78487828Y-98775687D01*
X78487827Y-98775690D01*
X78481106Y-98835608D01*
X78465584Y-98973994D01*
X59538100Y-98973994D01*
X59538100Y-96426440D01*
X68500726Y-96426440D01*
X68517446Y-96716421D01*
X68518435Y-96721464D01*
X68518436Y-96721469D01*
X68537770Y-96820012D01*
X68573367Y-97001451D01*
X68667453Y-97276254D01*
X68731442Y-97403482D01*
X68783044Y-97506081D01*
X68797963Y-97535745D01*
X68800884Y-97539995D01*
X68958580Y-97769442D01*
X68962484Y-97775123D01*
X69157969Y-97989959D01*
X69380802Y-98176276D01*
X69626860Y-98330628D01*
X69631557Y-98332749D01*
X69631563Y-98332752D01*
X69784734Y-98401911D01*
X69891589Y-98450158D01*
X69896534Y-98451623D01*
X69896540Y-98451625D01*
X70007691Y-98484549D01*
X70170091Y-98532654D01*
X70175182Y-98533433D01*
X70452119Y-98575810D01*
X70452124Y-98575810D01*
X70457212Y-98576589D01*
X70462366Y-98576670D01*
X70554657Y-98578120D01*
X70747639Y-98581152D01*
X70752753Y-98580533D01*
X70752756Y-98580533D01*
X70884621Y-98564575D01*
X71035998Y-98546256D01*
X71158349Y-98514158D01*
X75930587Y-98514158D01*
X75933754Y-98540778D01*
X75947206Y-98571062D01*
X75974248Y-98631944D01*
X75974250Y-98631946D01*
X75979923Y-98644719D01*
X75989814Y-98654593D01*
X75989815Y-98654594D01*
X76014274Y-98679010D01*
X76060415Y-98725070D01*
X76129381Y-98755560D01*
X76142299Y-98761271D01*
X76164436Y-98771058D01*
X76175743Y-98772376D01*
X76175746Y-98772377D01*
X76181979Y-98773103D01*
X76190529Y-98774100D01*
X77781245Y-98774100D01*
X77795728Y-98772377D01*
X77796586Y-98772275D01*
X77796587Y-98772275D01*
X77807865Y-98770933D01*
X77856011Y-98749547D01*
X77899031Y-98730439D01*
X77899033Y-98730437D01*
X77911806Y-98724764D01*
X77992157Y-98644272D01*
X78038145Y-98540251D01*
X78041187Y-98514158D01*
X78041187Y-97901893D01*
X82912097Y-97901893D01*
X82929415Y-98108123D01*
X82986459Y-98307060D01*
X83081058Y-98491130D01*
X83209608Y-98653319D01*
X83367212Y-98787451D01*
X83373673Y-98791062D01*
X83373676Y-98791064D01*
X83460881Y-98839801D01*
X83547867Y-98888416D01*
X83744693Y-98952368D01*
X83752039Y-98953244D01*
X83752044Y-98953245D01*
X83908064Y-98971849D01*
X83950193Y-98976872D01*
X83957575Y-98976304D01*
X83957577Y-98976304D01*
X84085223Y-98966482D01*
X84156538Y-98960995D01*
X84355869Y-98905341D01*
X84540594Y-98812029D01*
X84651897Y-98725070D01*
X84697842Y-98689174D01*
X84697843Y-98689173D01*
X84703677Y-98684615D01*
X84838905Y-98527951D01*
X84842561Y-98521515D01*
X84842564Y-98521511D01*
X84910506Y-98401911D01*
X84941129Y-98348005D01*
X85006454Y-98151630D01*
X85032393Y-97946307D01*
X85032806Y-97916699D01*
X85024498Y-97831970D01*
X85013334Y-97718104D01*
X85013334Y-97718102D01*
X85012611Y-97710732D01*
X84952794Y-97512610D01*
X84904214Y-97421244D01*
X84859107Y-97336408D01*
X84859105Y-97336404D01*
X84855635Y-97329879D01*
X84724833Y-97169501D01*
X84719136Y-97164788D01*
X84719127Y-97164779D01*
X84601079Y-97067121D01*
X84555680Y-97003239D01*
X84546185Y-96950466D01*
X84546185Y-93239132D01*
X84566469Y-93163432D01*
X84604374Y-93119827D01*
X84711329Y-93036265D01*
X84711330Y-93036264D01*
X84717164Y-93031706D01*
X84852392Y-92875042D01*
X84856048Y-92868606D01*
X84856051Y-92868602D01*
X84950956Y-92701538D01*
X84954616Y-92695096D01*
X84957164Y-92687438D01*
X85017603Y-92505749D01*
X85019941Y-92498721D01*
X85045880Y-92293398D01*
X85046293Y-92263790D01*
X85043568Y-92235999D01*
X85026821Y-92065195D01*
X85026821Y-92065193D01*
X85026098Y-92057823D01*
X84966281Y-91859701D01*
X84869122Y-91676970D01*
X84738320Y-91516592D01*
X84578859Y-91384674D01*
X84536890Y-91361981D01*
X84403320Y-91289760D01*
X84403317Y-91289759D01*
X84396811Y-91286241D01*
X84389742Y-91284053D01*
X84389740Y-91284052D01*
X84206184Y-91227232D01*
X84206180Y-91227231D01*
X84199111Y-91225043D01*
X84191755Y-91224270D01*
X84191751Y-91224269D01*
X84000647Y-91204183D01*
X84000644Y-91204183D01*
X83993290Y-91203410D01*
X83787187Y-91222167D01*
X83780083Y-91224258D01*
X83780082Y-91224258D01*
X83595760Y-91278507D01*
X83588652Y-91280599D01*
X83405248Y-91376480D01*
X83243960Y-91506159D01*
X83110932Y-91664696D01*
X83107366Y-91671183D01*
X83107365Y-91671184D01*
X83062304Y-91753150D01*
X83011230Y-91846052D01*
X82948653Y-92043319D01*
X82925584Y-92248984D01*
X82942902Y-92455214D01*
X82999946Y-92654151D01*
X83094545Y-92838221D01*
X83223095Y-93000410D01*
X83228730Y-93005205D01*
X83228734Y-93005210D01*
X83374310Y-93129105D01*
X83418813Y-93193615D01*
X83427585Y-93244402D01*
X83427585Y-96928047D01*
X83407301Y-97003747D01*
X83371054Y-97046038D01*
X83230473Y-97159068D01*
X83097445Y-97317605D01*
X83093879Y-97324092D01*
X83093878Y-97324093D01*
X83089066Y-97332847D01*
X82997743Y-97498961D01*
X82935166Y-97696228D01*
X82934341Y-97703586D01*
X82934340Y-97703589D01*
X82925888Y-97778942D01*
X82912097Y-97901893D01*
X78041187Y-97901893D01*
X78041187Y-96923442D01*
X78038020Y-96896822D01*
X78006763Y-96826452D01*
X77997526Y-96805656D01*
X77997524Y-96805654D01*
X77991851Y-96792881D01*
X77981784Y-96782831D01*
X77921250Y-96722404D01*
X77911359Y-96712530D01*
X77807338Y-96666542D01*
X77796031Y-96665224D01*
X77796028Y-96665223D01*
X77789795Y-96664497D01*
X77781245Y-96663500D01*
X76190529Y-96663500D01*
X76178176Y-96664970D01*
X76175188Y-96665325D01*
X76175187Y-96665325D01*
X76163909Y-96666667D01*
X76115763Y-96688053D01*
X76072743Y-96707161D01*
X76072741Y-96707163D01*
X76059968Y-96712836D01*
X75979617Y-96793328D01*
X75933629Y-96897349D01*
X75930587Y-96923442D01*
X75930587Y-98514158D01*
X71158349Y-98514158D01*
X71316954Y-98472549D01*
X71321718Y-98470576D01*
X71321723Y-98470574D01*
X71503402Y-98395320D01*
X71585307Y-98361394D01*
X71589759Y-98358793D01*
X71589762Y-98358791D01*
X71780493Y-98247336D01*
X71836091Y-98214847D01*
X71885283Y-98176276D01*
X72060606Y-98038806D01*
X72060613Y-98038800D01*
X72064667Y-98035621D01*
X72266804Y-97827032D01*
X72311285Y-97766479D01*
X72435711Y-97597092D01*
X72438762Y-97592939D01*
X72577359Y-97337675D01*
X72680030Y-97065963D01*
X72744876Y-96782831D01*
X72770697Y-96493518D01*
X72771165Y-96448800D01*
X72755240Y-96215200D01*
X72751760Y-96164154D01*
X72751759Y-96164149D01*
X72751409Y-96159010D01*
X72692507Y-95874581D01*
X72595548Y-95600779D01*
X72462327Y-95342668D01*
X72295310Y-95105026D01*
X72279231Y-95087723D01*
X72101097Y-94896028D01*
X72101094Y-94896026D01*
X72097585Y-94892249D01*
X72083553Y-94880764D01*
X71876798Y-94711537D01*
X71876792Y-94711533D01*
X71872813Y-94708276D01*
X71790868Y-94658060D01*
X71629545Y-94559200D01*
X71629540Y-94559197D01*
X71625153Y-94556509D01*
X71607822Y-94548901D01*
X71363906Y-94441829D01*
X71363900Y-94441827D01*
X71359187Y-94439758D01*
X71332985Y-94432294D01*
X71297114Y-94422076D01*
X71079836Y-94360183D01*
X71007114Y-94349833D01*
X70797375Y-94319982D01*
X70797369Y-94319982D01*
X70792271Y-94319256D01*
X70501812Y-94317735D01*
X70213834Y-94355649D01*
X70208856Y-94357011D01*
X70208855Y-94357011D01*
X70117022Y-94382134D01*
X69933665Y-94432294D01*
X69666491Y-94546253D01*
X69417255Y-94695418D01*
X69303362Y-94786664D01*
X69194590Y-94873806D01*
X69194585Y-94873810D01*
X69190569Y-94877028D01*
X69187028Y-94880759D01*
X69187023Y-94880764D01*
X68994174Y-95083985D01*
X68990627Y-95087723D01*
X68821130Y-95323603D01*
X68685213Y-95580304D01*
X68585393Y-95853076D01*
X68523516Y-96136872D01*
X68500726Y-96426440D01*
X59538100Y-96426440D01*
X59538100Y-87023440D01*
X68527726Y-87023440D01*
X68544446Y-87313421D01*
X68600367Y-87598451D01*
X68694453Y-87873254D01*
X68755793Y-87995215D01*
X68818568Y-88120029D01*
X68824963Y-88132745D01*
X68827884Y-88136995D01*
X68976795Y-88353660D01*
X68989484Y-88372123D01*
X69184969Y-88586959D01*
X69407802Y-88773276D01*
X69653860Y-88927628D01*
X69658557Y-88929749D01*
X69658563Y-88929752D01*
X69726375Y-88960370D01*
X69918589Y-89047158D01*
X69923534Y-89048623D01*
X69923540Y-89048625D01*
X70052901Y-89086943D01*
X70197091Y-89129654D01*
X70202182Y-89130433D01*
X70479119Y-89172810D01*
X70479124Y-89172810D01*
X70484212Y-89173589D01*
X70489366Y-89173670D01*
X70594566Y-89175323D01*
X70774639Y-89178152D01*
X70779753Y-89177533D01*
X70779756Y-89177533D01*
X70890624Y-89164116D01*
X71062998Y-89143256D01*
X71343954Y-89069549D01*
X71348718Y-89067576D01*
X71348723Y-89067574D01*
X71607536Y-88960370D01*
X71612307Y-88958394D01*
X71616759Y-88955793D01*
X71616762Y-88955791D01*
X71730406Y-88889382D01*
X71863091Y-88811847D01*
X71912283Y-88773276D01*
X72087606Y-88635806D01*
X72087613Y-88635800D01*
X72091667Y-88632621D01*
X72293804Y-88424032D01*
X72317629Y-88391599D01*
X72391966Y-88290400D01*
X72465762Y-88189939D01*
X72528661Y-88074093D01*
X72601898Y-87939208D01*
X72601899Y-87939205D01*
X72604359Y-87934675D01*
X72707030Y-87662963D01*
X72771876Y-87379831D01*
X72797697Y-87090518D01*
X72798165Y-87045800D01*
X72784063Y-86838948D01*
X72778760Y-86761154D01*
X72778759Y-86761149D01*
X72778409Y-86756010D01*
X72719507Y-86471581D01*
X72622548Y-86197779D01*
X72489327Y-85939668D01*
X72322310Y-85702026D01*
X72306231Y-85684723D01*
X72128097Y-85493028D01*
X72128094Y-85493026D01*
X72124585Y-85489249D01*
X72110553Y-85477764D01*
X71903798Y-85308537D01*
X71903792Y-85308533D01*
X71899813Y-85305276D01*
X71766232Y-85223417D01*
X71656545Y-85156200D01*
X71656540Y-85156197D01*
X71652153Y-85153509D01*
X71634822Y-85145901D01*
X71390906Y-85038829D01*
X71390900Y-85038827D01*
X71386187Y-85036758D01*
X71359985Y-85029294D01*
X71203586Y-84984743D01*
X71106836Y-84957183D01*
X71034114Y-84946833D01*
X70824375Y-84916982D01*
X70824369Y-84916982D01*
X70819271Y-84916256D01*
X70528812Y-84914735D01*
X70240834Y-84952649D01*
X70235856Y-84954011D01*
X70235855Y-84954011D01*
X70148692Y-84977856D01*
X69960665Y-85029294D01*
X69693491Y-85143253D01*
X69444255Y-85292418D01*
X69337926Y-85377604D01*
X69221590Y-85470806D01*
X69221585Y-85470810D01*
X69217569Y-85474028D01*
X69214028Y-85477759D01*
X69214023Y-85477764D01*
X69052600Y-85647869D01*
X69017627Y-85684723D01*
X69014617Y-85688912D01*
X68873961Y-85884656D01*
X68848130Y-85920603D01*
X68712213Y-86177304D01*
X68612393Y-86450076D01*
X68550516Y-86733872D01*
X68527726Y-87023440D01*
X59538100Y-87023440D01*
X59538100Y-83075733D01*
X117672720Y-83075733D01*
X117674441Y-83085907D01*
X117674441Y-83085911D01*
X117675579Y-83092640D01*
X117677700Y-83117891D01*
X117677700Y-87995215D01*
X117677567Y-88001555D01*
X117674948Y-88064042D01*
X117677305Y-88074090D01*
X117677305Y-88074093D01*
X117684790Y-88106008D01*
X117687389Y-88120029D01*
X117693239Y-88162734D01*
X117697338Y-88172206D01*
X117698476Y-88174836D01*
X117706929Y-88200396D01*
X117709940Y-88213233D01*
X117730712Y-88251016D01*
X117736974Y-88263799D01*
X117754097Y-88303369D01*
X117762398Y-88313620D01*
X117777411Y-88335962D01*
X117783763Y-88347517D01*
X117790883Y-88355765D01*
X117814940Y-88379822D01*
X117825543Y-88391598D01*
X117850533Y-88422458D01*
X117858948Y-88428438D01*
X117858950Y-88428440D01*
X117864509Y-88432390D01*
X117883863Y-88448745D01*
X118686100Y-89250983D01*
X118725285Y-89318854D01*
X118730442Y-89358774D01*
X118725656Y-90344864D01*
X118719600Y-91592400D01*
X119428638Y-91592400D01*
X119504338Y-91612684D01*
X119559754Y-91668100D01*
X119580038Y-91743800D01*
X119559754Y-91819500D01*
X119528461Y-91857630D01*
X119519913Y-91865126D01*
X119519908Y-91865131D01*
X119514696Y-91869702D01*
X119388933Y-92029232D01*
X119385704Y-92035370D01*
X119385703Y-92035371D01*
X119315413Y-92168971D01*
X119294348Y-92209008D01*
X119234109Y-92403011D01*
X119210232Y-92604743D01*
X119213902Y-92660731D01*
X119221900Y-92782757D01*
X119223518Y-92807448D01*
X119225225Y-92814170D01*
X119225226Y-92814175D01*
X119261579Y-92957313D01*
X119273522Y-93004337D01*
X119276429Y-93010642D01*
X119276429Y-93010643D01*
X119353826Y-93178530D01*
X119358568Y-93188817D01*
X119475810Y-93354710D01*
X119480780Y-93359552D01*
X119480783Y-93359555D01*
X119536027Y-93413371D01*
X119621319Y-93496459D01*
X119627094Y-93500318D01*
X119627098Y-93500321D01*
X119704442Y-93552000D01*
X119790224Y-93609318D01*
X119976867Y-93689506D01*
X119983636Y-93691038D01*
X119983637Y-93691038D01*
X120168227Y-93732806D01*
X120174998Y-93734338D01*
X120181932Y-93734610D01*
X120181936Y-93734611D01*
X120309446Y-93739621D01*
X120377982Y-93742314D01*
X120384858Y-93741317D01*
X120384859Y-93741317D01*
X120444367Y-93732689D01*
X120579020Y-93713165D01*
X120585590Y-93710935D01*
X120585593Y-93710934D01*
X120764810Y-93650097D01*
X120764811Y-93650097D01*
X120771379Y-93647867D01*
X120948618Y-93548609D01*
X121104800Y-93418713D01*
X121234696Y-93262531D01*
X121333954Y-93085292D01*
X121362768Y-93000410D01*
X121397021Y-92899506D01*
X121397022Y-92899503D01*
X121399252Y-92892933D01*
X121428401Y-92691895D01*
X121429922Y-92633800D01*
X121411334Y-92431512D01*
X121389976Y-92355782D01*
X121388950Y-92277420D01*
X121427244Y-92209042D01*
X121494596Y-92168971D01*
X121572959Y-92167945D01*
X121642748Y-92207631D01*
X121728958Y-92293841D01*
X121768143Y-92361712D01*
X121772253Y-92418692D01*
X121750232Y-92604743D01*
X121753902Y-92660731D01*
X121761900Y-92782757D01*
X121763518Y-92807448D01*
X121765225Y-92814170D01*
X121765226Y-92814175D01*
X121801579Y-92957313D01*
X121813522Y-93004337D01*
X121816429Y-93010642D01*
X121816429Y-93010643D01*
X121893826Y-93178530D01*
X121898568Y-93188817D01*
X122015810Y-93354710D01*
X122020780Y-93359552D01*
X122020783Y-93359555D01*
X122076027Y-93413371D01*
X122161319Y-93496459D01*
X122167094Y-93500318D01*
X122167098Y-93500321D01*
X122244442Y-93552000D01*
X122330224Y-93609318D01*
X122516867Y-93689506D01*
X122523636Y-93691038D01*
X122523637Y-93691038D01*
X122708227Y-93732806D01*
X122714998Y-93734338D01*
X122721932Y-93734610D01*
X122721936Y-93734611D01*
X122849446Y-93739621D01*
X122917982Y-93742314D01*
X122924858Y-93741317D01*
X122924859Y-93741317D01*
X122984367Y-93732689D01*
X123119020Y-93713165D01*
X123125590Y-93710935D01*
X123125593Y-93710934D01*
X123304810Y-93650097D01*
X123304811Y-93650097D01*
X123311379Y-93647867D01*
X123488618Y-93548609D01*
X123644800Y-93418713D01*
X123774696Y-93262531D01*
X123873954Y-93085292D01*
X123902768Y-93000410D01*
X123937021Y-92899506D01*
X123937022Y-92899503D01*
X123939252Y-92892933D01*
X123968401Y-92691895D01*
X123969922Y-92633800D01*
X123951334Y-92431512D01*
X123896194Y-92235999D01*
X123882884Y-92209008D01*
X123809418Y-92060036D01*
X123806347Y-92053808D01*
X123792580Y-92035371D01*
X123688960Y-91896608D01*
X123684804Y-91891042D01*
X123645789Y-91854977D01*
X123603969Y-91788697D01*
X123600892Y-91710387D01*
X123637382Y-91641030D01*
X123703662Y-91599210D01*
X123748559Y-91592400D01*
X124508638Y-91592400D01*
X124584338Y-91612684D01*
X124639754Y-91668100D01*
X124660038Y-91743800D01*
X124639754Y-91819500D01*
X124608461Y-91857630D01*
X124599913Y-91865126D01*
X124599908Y-91865131D01*
X124594696Y-91869702D01*
X124468933Y-92029232D01*
X124465704Y-92035370D01*
X124465703Y-92035371D01*
X124395413Y-92168971D01*
X124374348Y-92209008D01*
X124314109Y-92403011D01*
X124290232Y-92604743D01*
X124293902Y-92660731D01*
X124301900Y-92782757D01*
X124303518Y-92807448D01*
X124305225Y-92814170D01*
X124305226Y-92814175D01*
X124341579Y-92957313D01*
X124353522Y-93004337D01*
X124356429Y-93010642D01*
X124356429Y-93010643D01*
X124433826Y-93178530D01*
X124438568Y-93188817D01*
X124555810Y-93354710D01*
X124560780Y-93359552D01*
X124560783Y-93359555D01*
X124616027Y-93413371D01*
X124701319Y-93496459D01*
X124707094Y-93500318D01*
X124707098Y-93500321D01*
X124784442Y-93552000D01*
X124870224Y-93609318D01*
X125056867Y-93689506D01*
X125063636Y-93691038D01*
X125063637Y-93691038D01*
X125248227Y-93732806D01*
X125254998Y-93734338D01*
X125261932Y-93734610D01*
X125261936Y-93734611D01*
X125389446Y-93739621D01*
X125457982Y-93742314D01*
X125464858Y-93741317D01*
X125464859Y-93741317D01*
X125524367Y-93732689D01*
X125659020Y-93713165D01*
X125665590Y-93710935D01*
X125665593Y-93710934D01*
X125844810Y-93650097D01*
X125844811Y-93650097D01*
X125851379Y-93647867D01*
X126028618Y-93548609D01*
X126184800Y-93418713D01*
X126314696Y-93262531D01*
X126413954Y-93085292D01*
X126442768Y-93000410D01*
X126477021Y-92899506D01*
X126477022Y-92899503D01*
X126479252Y-92892933D01*
X126508401Y-92691895D01*
X126509922Y-92633800D01*
X126491334Y-92431512D01*
X126436194Y-92235999D01*
X126422884Y-92209008D01*
X126349418Y-92060036D01*
X126346347Y-92053808D01*
X126332580Y-92035371D01*
X126228960Y-91896608D01*
X126224804Y-91891042D01*
X126185789Y-91854977D01*
X126143969Y-91788697D01*
X126140892Y-91710387D01*
X126177382Y-91641030D01*
X126243662Y-91599210D01*
X126288559Y-91592400D01*
X127048638Y-91592400D01*
X127124338Y-91612684D01*
X127179754Y-91668100D01*
X127200038Y-91743800D01*
X127179754Y-91819500D01*
X127148461Y-91857630D01*
X127139913Y-91865126D01*
X127139908Y-91865131D01*
X127134696Y-91869702D01*
X127008933Y-92029232D01*
X127005704Y-92035370D01*
X127005703Y-92035371D01*
X126935413Y-92168971D01*
X126914348Y-92209008D01*
X126854109Y-92403011D01*
X126830232Y-92604743D01*
X126833902Y-92660731D01*
X126841900Y-92782757D01*
X126843518Y-92807448D01*
X126845225Y-92814170D01*
X126845226Y-92814175D01*
X126881579Y-92957313D01*
X126893522Y-93004337D01*
X126896429Y-93010642D01*
X126896429Y-93010643D01*
X126973826Y-93178530D01*
X126978568Y-93188817D01*
X127095810Y-93354710D01*
X127100780Y-93359552D01*
X127100783Y-93359555D01*
X127156027Y-93413371D01*
X127241319Y-93496459D01*
X127247094Y-93500318D01*
X127247098Y-93500321D01*
X127324442Y-93552000D01*
X127410224Y-93609318D01*
X127596867Y-93689506D01*
X127603636Y-93691038D01*
X127603637Y-93691038D01*
X127788227Y-93732806D01*
X127794998Y-93734338D01*
X127801932Y-93734610D01*
X127801936Y-93734611D01*
X127929446Y-93739621D01*
X127997982Y-93742314D01*
X128004858Y-93741317D01*
X128004859Y-93741317D01*
X128064367Y-93732689D01*
X128199020Y-93713165D01*
X128205590Y-93710935D01*
X128205593Y-93710934D01*
X128384810Y-93650097D01*
X128384811Y-93650097D01*
X128391379Y-93647867D01*
X128568618Y-93548609D01*
X128724800Y-93418713D01*
X128854696Y-93262531D01*
X128953954Y-93085292D01*
X128982768Y-93000410D01*
X129017021Y-92899506D01*
X129017022Y-92899503D01*
X129019252Y-92892933D01*
X129048401Y-92691895D01*
X129049922Y-92633800D01*
X129031334Y-92431512D01*
X128976194Y-92235999D01*
X128962884Y-92209008D01*
X128889418Y-92060036D01*
X128886347Y-92053808D01*
X128872580Y-92035371D01*
X128768960Y-91896608D01*
X128764804Y-91891042D01*
X128725789Y-91854977D01*
X128683969Y-91788697D01*
X128680892Y-91710387D01*
X128717382Y-91641030D01*
X128783662Y-91599210D01*
X128828559Y-91592400D01*
X129588638Y-91592400D01*
X129664338Y-91612684D01*
X129719754Y-91668100D01*
X129740038Y-91743800D01*
X129719754Y-91819500D01*
X129688461Y-91857630D01*
X129679913Y-91865126D01*
X129679908Y-91865131D01*
X129674696Y-91869702D01*
X129548933Y-92029232D01*
X129545704Y-92035370D01*
X129545703Y-92035371D01*
X129475413Y-92168971D01*
X129454348Y-92209008D01*
X129394109Y-92403011D01*
X129370232Y-92604743D01*
X129373902Y-92660731D01*
X129381900Y-92782757D01*
X129383518Y-92807448D01*
X129385225Y-92814170D01*
X129385226Y-92814175D01*
X129421579Y-92957313D01*
X129433522Y-93004337D01*
X129436429Y-93010642D01*
X129436429Y-93010643D01*
X129513826Y-93178530D01*
X129518568Y-93188817D01*
X129635810Y-93354710D01*
X129640780Y-93359552D01*
X129640783Y-93359555D01*
X129696027Y-93413371D01*
X129781319Y-93496459D01*
X129787094Y-93500318D01*
X129787098Y-93500321D01*
X129864442Y-93552000D01*
X129950224Y-93609318D01*
X130136867Y-93689506D01*
X130143636Y-93691038D01*
X130143637Y-93691038D01*
X130328227Y-93732806D01*
X130334998Y-93734338D01*
X130341932Y-93734610D01*
X130341936Y-93734611D01*
X130469446Y-93739621D01*
X130537982Y-93742314D01*
X130544858Y-93741317D01*
X130544859Y-93741317D01*
X130604367Y-93732689D01*
X130739020Y-93713165D01*
X130745590Y-93710935D01*
X130745593Y-93710934D01*
X130924810Y-93650097D01*
X130924811Y-93650097D01*
X130931379Y-93647867D01*
X131108618Y-93548609D01*
X131264800Y-93418713D01*
X131394696Y-93262531D01*
X131493954Y-93085292D01*
X131522768Y-93000410D01*
X131557021Y-92899506D01*
X131557022Y-92899503D01*
X131559252Y-92892933D01*
X131588401Y-92691895D01*
X131589922Y-92633800D01*
X131571334Y-92431512D01*
X131516194Y-92235999D01*
X131502884Y-92209008D01*
X131429418Y-92060036D01*
X131426347Y-92053808D01*
X131412580Y-92035371D01*
X131308960Y-91896608D01*
X131304804Y-91891042D01*
X131265789Y-91854977D01*
X131223969Y-91788697D01*
X131220892Y-91710387D01*
X131257382Y-91641030D01*
X131323662Y-91599210D01*
X131368559Y-91592400D01*
X132128638Y-91592400D01*
X132204338Y-91612684D01*
X132259754Y-91668100D01*
X132280038Y-91743800D01*
X132259754Y-91819500D01*
X132228461Y-91857630D01*
X132219913Y-91865126D01*
X132219908Y-91865131D01*
X132214696Y-91869702D01*
X132088933Y-92029232D01*
X132085704Y-92035370D01*
X132085703Y-92035371D01*
X132015413Y-92168971D01*
X131994348Y-92209008D01*
X131934109Y-92403011D01*
X131910232Y-92604743D01*
X131913902Y-92660731D01*
X131921900Y-92782757D01*
X131923518Y-92807448D01*
X131925225Y-92814170D01*
X131925226Y-92814175D01*
X131961579Y-92957313D01*
X131973522Y-93004337D01*
X131976429Y-93010642D01*
X131976429Y-93010643D01*
X132053826Y-93178530D01*
X132058568Y-93188817D01*
X132175810Y-93354710D01*
X132180780Y-93359552D01*
X132180783Y-93359555D01*
X132236027Y-93413371D01*
X132321319Y-93496459D01*
X132327094Y-93500318D01*
X132327098Y-93500321D01*
X132404442Y-93552000D01*
X132490224Y-93609318D01*
X132676867Y-93689506D01*
X132683636Y-93691038D01*
X132683637Y-93691038D01*
X132868227Y-93732806D01*
X132874998Y-93734338D01*
X132881932Y-93734610D01*
X132881936Y-93734611D01*
X133009446Y-93739621D01*
X133077982Y-93742314D01*
X133084858Y-93741317D01*
X133084859Y-93741317D01*
X133144367Y-93732689D01*
X133279020Y-93713165D01*
X133285590Y-93710935D01*
X133285593Y-93710934D01*
X133464810Y-93650097D01*
X133464811Y-93650097D01*
X133471379Y-93647867D01*
X133648618Y-93548609D01*
X133804800Y-93418713D01*
X133934696Y-93262531D01*
X134033954Y-93085292D01*
X134062768Y-93000410D01*
X134097021Y-92899506D01*
X134097022Y-92899503D01*
X134099252Y-92892933D01*
X134128401Y-92691895D01*
X134129922Y-92633800D01*
X134111334Y-92431512D01*
X134056194Y-92235999D01*
X134042884Y-92209008D01*
X133969418Y-92060036D01*
X133966347Y-92053808D01*
X133952580Y-92035371D01*
X133848960Y-91896608D01*
X133844804Y-91891042D01*
X133805789Y-91854977D01*
X133763969Y-91788697D01*
X133760892Y-91710387D01*
X133797382Y-91641030D01*
X133863662Y-91599210D01*
X133908559Y-91592400D01*
X134668638Y-91592400D01*
X134744338Y-91612684D01*
X134799754Y-91668100D01*
X134820038Y-91743800D01*
X134799754Y-91819500D01*
X134768461Y-91857630D01*
X134759913Y-91865126D01*
X134759908Y-91865131D01*
X134754696Y-91869702D01*
X134628933Y-92029232D01*
X134625704Y-92035370D01*
X134625703Y-92035371D01*
X134555413Y-92168971D01*
X134534348Y-92209008D01*
X134474109Y-92403011D01*
X134450232Y-92604743D01*
X134453902Y-92660731D01*
X134461900Y-92782757D01*
X134463518Y-92807448D01*
X134465225Y-92814170D01*
X134465226Y-92814175D01*
X134501579Y-92957313D01*
X134513522Y-93004337D01*
X134516429Y-93010642D01*
X134516429Y-93010643D01*
X134593826Y-93178530D01*
X134598568Y-93188817D01*
X134715810Y-93354710D01*
X134720780Y-93359552D01*
X134720783Y-93359555D01*
X134776027Y-93413371D01*
X134861319Y-93496459D01*
X134867094Y-93500318D01*
X134867098Y-93500321D01*
X134944442Y-93552000D01*
X135030224Y-93609318D01*
X135216867Y-93689506D01*
X135223636Y-93691038D01*
X135223637Y-93691038D01*
X135408227Y-93732806D01*
X135414998Y-93734338D01*
X135421932Y-93734610D01*
X135421936Y-93734611D01*
X135549446Y-93739621D01*
X135617982Y-93742314D01*
X135624858Y-93741317D01*
X135624859Y-93741317D01*
X135684367Y-93732689D01*
X135819020Y-93713165D01*
X135825590Y-93710935D01*
X135825593Y-93710934D01*
X136004810Y-93650097D01*
X136004811Y-93650097D01*
X136011379Y-93647867D01*
X136188618Y-93548609D01*
X136344800Y-93418713D01*
X136474696Y-93262531D01*
X136573954Y-93085292D01*
X136602768Y-93000410D01*
X136637021Y-92899506D01*
X136637022Y-92899503D01*
X136639252Y-92892933D01*
X136668401Y-92691895D01*
X136669922Y-92633800D01*
X136651334Y-92431512D01*
X136596194Y-92235999D01*
X136582884Y-92209008D01*
X136509418Y-92060036D01*
X136506347Y-92053808D01*
X136492580Y-92035371D01*
X136388960Y-91896608D01*
X136384804Y-91891042D01*
X136345789Y-91854977D01*
X136303969Y-91788697D01*
X136300892Y-91710387D01*
X136337382Y-91641030D01*
X136403662Y-91599210D01*
X136448559Y-91592400D01*
X139748638Y-91592400D01*
X139824338Y-91612684D01*
X139879754Y-91668100D01*
X139900038Y-91743800D01*
X139879754Y-91819500D01*
X139848461Y-91857630D01*
X139839913Y-91865126D01*
X139839908Y-91865131D01*
X139834696Y-91869702D01*
X139708933Y-92029232D01*
X139705704Y-92035370D01*
X139705703Y-92035371D01*
X139635413Y-92168971D01*
X139614348Y-92209008D01*
X139554109Y-92403011D01*
X139530232Y-92604743D01*
X139533902Y-92660731D01*
X139541900Y-92782757D01*
X139543518Y-92807448D01*
X139545225Y-92814170D01*
X139545226Y-92814175D01*
X139581579Y-92957313D01*
X139593522Y-93004337D01*
X139596429Y-93010642D01*
X139596429Y-93010643D01*
X139673826Y-93178530D01*
X139678568Y-93188817D01*
X139795810Y-93354710D01*
X139800780Y-93359552D01*
X139800783Y-93359555D01*
X139856027Y-93413371D01*
X139941319Y-93496459D01*
X139947094Y-93500318D01*
X139947098Y-93500321D01*
X140024442Y-93552000D01*
X140110224Y-93609318D01*
X140296867Y-93689506D01*
X140303636Y-93691038D01*
X140303637Y-93691038D01*
X140488227Y-93732806D01*
X140494998Y-93734338D01*
X140501932Y-93734610D01*
X140501936Y-93734611D01*
X140629446Y-93739621D01*
X140697982Y-93742314D01*
X140704858Y-93741317D01*
X140704859Y-93741317D01*
X140764367Y-93732689D01*
X140899020Y-93713165D01*
X140905590Y-93710935D01*
X140905593Y-93710934D01*
X141084810Y-93650097D01*
X141084811Y-93650097D01*
X141091379Y-93647867D01*
X141268618Y-93548609D01*
X141424800Y-93418713D01*
X141554696Y-93262531D01*
X141653954Y-93085292D01*
X141682768Y-93000410D01*
X141717021Y-92899506D01*
X141717022Y-92899503D01*
X141719252Y-92892933D01*
X141748401Y-92691895D01*
X141749922Y-92633800D01*
X141731334Y-92431512D01*
X141676194Y-92235999D01*
X141662884Y-92209008D01*
X141589418Y-92060036D01*
X141586347Y-92053808D01*
X141572580Y-92035371D01*
X141468960Y-91896608D01*
X141464804Y-91891042D01*
X141425789Y-91854977D01*
X141383969Y-91788697D01*
X141380892Y-91710387D01*
X141417382Y-91641030D01*
X141483662Y-91599210D01*
X141528559Y-91592400D01*
X142288638Y-91592400D01*
X142364338Y-91612684D01*
X142419754Y-91668100D01*
X142440038Y-91743800D01*
X142419754Y-91819500D01*
X142388461Y-91857630D01*
X142379913Y-91865126D01*
X142379908Y-91865131D01*
X142374696Y-91869702D01*
X142248933Y-92029232D01*
X142245704Y-92035370D01*
X142245703Y-92035371D01*
X142175413Y-92168971D01*
X142154348Y-92209008D01*
X142094109Y-92403011D01*
X142070232Y-92604743D01*
X142073902Y-92660731D01*
X142081900Y-92782757D01*
X142083518Y-92807448D01*
X142085225Y-92814170D01*
X142085226Y-92814175D01*
X142121579Y-92957313D01*
X142133522Y-93004337D01*
X142136429Y-93010642D01*
X142136429Y-93010643D01*
X142213826Y-93178530D01*
X142218568Y-93188817D01*
X142335810Y-93354710D01*
X142340780Y-93359552D01*
X142340783Y-93359555D01*
X142396027Y-93413371D01*
X142481319Y-93496459D01*
X142487094Y-93500318D01*
X142487098Y-93500321D01*
X142564442Y-93552000D01*
X142650224Y-93609318D01*
X142836867Y-93689506D01*
X142843636Y-93691038D01*
X142843637Y-93691038D01*
X143028227Y-93732806D01*
X143034998Y-93734338D01*
X143041932Y-93734610D01*
X143041936Y-93734611D01*
X143169446Y-93739621D01*
X143237982Y-93742314D01*
X143244858Y-93741317D01*
X143244859Y-93741317D01*
X143304367Y-93732689D01*
X143439020Y-93713165D01*
X143445590Y-93710935D01*
X143445593Y-93710934D01*
X143624810Y-93650097D01*
X143624811Y-93650097D01*
X143631379Y-93647867D01*
X143808618Y-93548609D01*
X143964800Y-93418713D01*
X144094696Y-93262531D01*
X144193954Y-93085292D01*
X144222768Y-93000410D01*
X144257021Y-92899506D01*
X144257022Y-92899503D01*
X144259252Y-92892933D01*
X144288401Y-92691895D01*
X144289922Y-92633800D01*
X144271334Y-92431512D01*
X144216194Y-92235999D01*
X144202884Y-92209008D01*
X144129418Y-92060036D01*
X144126347Y-92053808D01*
X144112580Y-92035371D01*
X144008960Y-91896608D01*
X144004804Y-91891042D01*
X143965789Y-91854977D01*
X143923969Y-91788697D01*
X143920892Y-91710387D01*
X143957382Y-91641030D01*
X144023662Y-91599210D01*
X144068559Y-91592400D01*
X144828638Y-91592400D01*
X144904338Y-91612684D01*
X144959754Y-91668100D01*
X144980038Y-91743800D01*
X144959754Y-91819500D01*
X144928461Y-91857630D01*
X144919913Y-91865126D01*
X144919908Y-91865131D01*
X144914696Y-91869702D01*
X144788933Y-92029232D01*
X144785704Y-92035370D01*
X144785703Y-92035371D01*
X144715413Y-92168971D01*
X144694348Y-92209008D01*
X144634109Y-92403011D01*
X144610232Y-92604743D01*
X144613902Y-92660731D01*
X144621900Y-92782757D01*
X144623518Y-92807448D01*
X144625225Y-92814170D01*
X144625226Y-92814175D01*
X144661579Y-92957313D01*
X144673522Y-93004337D01*
X144676429Y-93010642D01*
X144676429Y-93010643D01*
X144753826Y-93178530D01*
X144758568Y-93188817D01*
X144875810Y-93354710D01*
X144880780Y-93359552D01*
X144880783Y-93359555D01*
X144936027Y-93413371D01*
X145021319Y-93496459D01*
X145027094Y-93500318D01*
X145027098Y-93500321D01*
X145104442Y-93552000D01*
X145190224Y-93609318D01*
X145376867Y-93689506D01*
X145383636Y-93691038D01*
X145383637Y-93691038D01*
X145568227Y-93732806D01*
X145574998Y-93734338D01*
X145581932Y-93734610D01*
X145581936Y-93734611D01*
X145709446Y-93739621D01*
X145777982Y-93742314D01*
X145784858Y-93741317D01*
X145784859Y-93741317D01*
X145844367Y-93732689D01*
X145979020Y-93713165D01*
X145985590Y-93710935D01*
X145985593Y-93710934D01*
X146164810Y-93650097D01*
X146164811Y-93650097D01*
X146171379Y-93647867D01*
X146348618Y-93548609D01*
X146504800Y-93418713D01*
X146634696Y-93262531D01*
X146733954Y-93085292D01*
X146762768Y-93000410D01*
X146797021Y-92899506D01*
X146797022Y-92899503D01*
X146799252Y-92892933D01*
X146828401Y-92691895D01*
X146829922Y-92633800D01*
X146811334Y-92431512D01*
X146756194Y-92235999D01*
X146742884Y-92209008D01*
X146669418Y-92060036D01*
X146666347Y-92053808D01*
X146652580Y-92035371D01*
X146548960Y-91896608D01*
X146544804Y-91891042D01*
X146505789Y-91854977D01*
X146463969Y-91788697D01*
X146460892Y-91710387D01*
X146497382Y-91641030D01*
X146563662Y-91599210D01*
X146608559Y-91592400D01*
X147368638Y-91592400D01*
X147444338Y-91612684D01*
X147499754Y-91668100D01*
X147520038Y-91743800D01*
X147499754Y-91819500D01*
X147468461Y-91857630D01*
X147459913Y-91865126D01*
X147459908Y-91865131D01*
X147454696Y-91869702D01*
X147328933Y-92029232D01*
X147325704Y-92035370D01*
X147325703Y-92035371D01*
X147255413Y-92168971D01*
X147234348Y-92209008D01*
X147174109Y-92403011D01*
X147150232Y-92604743D01*
X147153902Y-92660731D01*
X147161900Y-92782757D01*
X147163518Y-92807448D01*
X147165225Y-92814170D01*
X147165226Y-92814175D01*
X147201579Y-92957313D01*
X147213522Y-93004337D01*
X147216429Y-93010642D01*
X147216429Y-93010643D01*
X147293826Y-93178530D01*
X147298568Y-93188817D01*
X147415810Y-93354710D01*
X147420780Y-93359552D01*
X147420783Y-93359555D01*
X147476027Y-93413371D01*
X147561319Y-93496459D01*
X147567094Y-93500318D01*
X147567098Y-93500321D01*
X147644442Y-93552000D01*
X147730224Y-93609318D01*
X147916867Y-93689506D01*
X147923636Y-93691038D01*
X147923637Y-93691038D01*
X148108227Y-93732806D01*
X148114998Y-93734338D01*
X148121932Y-93734610D01*
X148121936Y-93734611D01*
X148249446Y-93739621D01*
X148317982Y-93742314D01*
X148324858Y-93741317D01*
X148324859Y-93741317D01*
X148384367Y-93732689D01*
X148519020Y-93713165D01*
X148525590Y-93710935D01*
X148525593Y-93710934D01*
X148704810Y-93650097D01*
X148704811Y-93650097D01*
X148711379Y-93647867D01*
X148888618Y-93548609D01*
X149044800Y-93418713D01*
X149174696Y-93262531D01*
X149273954Y-93085292D01*
X149302768Y-93000410D01*
X149337021Y-92899506D01*
X149337022Y-92899503D01*
X149339252Y-92892933D01*
X149368401Y-92691895D01*
X149369922Y-92633800D01*
X149351334Y-92431512D01*
X149296194Y-92235999D01*
X149282884Y-92209008D01*
X149209418Y-92060036D01*
X149206347Y-92053808D01*
X149192580Y-92035371D01*
X149088960Y-91896608D01*
X149084804Y-91891042D01*
X149045789Y-91854977D01*
X149003969Y-91788697D01*
X149000892Y-91710387D01*
X149037382Y-91641030D01*
X149103662Y-91599210D01*
X149148559Y-91592400D01*
X149908638Y-91592400D01*
X149984338Y-91612684D01*
X150039754Y-91668100D01*
X150060038Y-91743800D01*
X150039754Y-91819500D01*
X150008461Y-91857630D01*
X149999913Y-91865126D01*
X149999908Y-91865131D01*
X149994696Y-91869702D01*
X149868933Y-92029232D01*
X149865704Y-92035370D01*
X149865703Y-92035371D01*
X149795413Y-92168971D01*
X149774348Y-92209008D01*
X149714109Y-92403011D01*
X149690232Y-92604743D01*
X149693902Y-92660731D01*
X149701900Y-92782757D01*
X149703518Y-92807448D01*
X149705225Y-92814170D01*
X149705226Y-92814175D01*
X149741579Y-92957313D01*
X149753522Y-93004337D01*
X149756429Y-93010642D01*
X149756429Y-93010643D01*
X149833826Y-93178530D01*
X149838568Y-93188817D01*
X149955810Y-93354710D01*
X149960780Y-93359552D01*
X149960783Y-93359555D01*
X150016027Y-93413371D01*
X150101319Y-93496459D01*
X150107094Y-93500318D01*
X150107098Y-93500321D01*
X150184442Y-93552000D01*
X150270224Y-93609318D01*
X150456867Y-93689506D01*
X150463636Y-93691038D01*
X150463637Y-93691038D01*
X150648227Y-93732806D01*
X150654998Y-93734338D01*
X150661932Y-93734610D01*
X150661936Y-93734611D01*
X150789446Y-93739621D01*
X150857982Y-93742314D01*
X150864858Y-93741317D01*
X150864859Y-93741317D01*
X150924367Y-93732689D01*
X151059020Y-93713165D01*
X151065590Y-93710935D01*
X151065593Y-93710934D01*
X151244810Y-93650097D01*
X151244811Y-93650097D01*
X151251379Y-93647867D01*
X151428618Y-93548609D01*
X151584800Y-93418713D01*
X151714696Y-93262531D01*
X151813954Y-93085292D01*
X151842768Y-93000410D01*
X151877021Y-92899506D01*
X151877022Y-92899503D01*
X151879252Y-92892933D01*
X151908401Y-92691895D01*
X151909922Y-92633800D01*
X151891334Y-92431512D01*
X151836194Y-92235999D01*
X151822884Y-92209008D01*
X151749418Y-92060036D01*
X151746347Y-92053808D01*
X151732580Y-92035371D01*
X151628960Y-91896608D01*
X151624804Y-91891042D01*
X151585789Y-91854977D01*
X151543969Y-91788697D01*
X151540892Y-91710387D01*
X151577382Y-91641030D01*
X151643662Y-91599210D01*
X151688559Y-91592400D01*
X152448638Y-91592400D01*
X152524338Y-91612684D01*
X152579754Y-91668100D01*
X152600038Y-91743800D01*
X152579754Y-91819500D01*
X152548461Y-91857630D01*
X152539913Y-91865126D01*
X152539908Y-91865131D01*
X152534696Y-91869702D01*
X152408933Y-92029232D01*
X152405704Y-92035370D01*
X152405703Y-92035371D01*
X152335413Y-92168971D01*
X152314348Y-92209008D01*
X152254109Y-92403011D01*
X152230232Y-92604743D01*
X152233902Y-92660731D01*
X152241900Y-92782757D01*
X152243518Y-92807448D01*
X152245225Y-92814170D01*
X152245226Y-92814175D01*
X152281579Y-92957313D01*
X152293522Y-93004337D01*
X152296429Y-93010642D01*
X152296429Y-93010643D01*
X152373826Y-93178530D01*
X152378568Y-93188817D01*
X152495810Y-93354710D01*
X152500780Y-93359552D01*
X152500783Y-93359555D01*
X152556027Y-93413371D01*
X152641319Y-93496459D01*
X152647094Y-93500318D01*
X152647098Y-93500321D01*
X152724442Y-93552000D01*
X152810224Y-93609318D01*
X152996867Y-93689506D01*
X153003636Y-93691038D01*
X153003637Y-93691038D01*
X153188227Y-93732806D01*
X153194998Y-93734338D01*
X153201932Y-93734610D01*
X153201936Y-93734611D01*
X153329446Y-93739621D01*
X153397982Y-93742314D01*
X153404858Y-93741317D01*
X153404859Y-93741317D01*
X153464367Y-93732689D01*
X153599020Y-93713165D01*
X153605590Y-93710935D01*
X153605593Y-93710934D01*
X153784810Y-93650097D01*
X153784811Y-93650097D01*
X153791379Y-93647867D01*
X153968618Y-93548609D01*
X154124800Y-93418713D01*
X154254696Y-93262531D01*
X154353954Y-93085292D01*
X154382768Y-93000410D01*
X154417021Y-92899506D01*
X154417022Y-92899503D01*
X154419252Y-92892933D01*
X154448401Y-92691895D01*
X154449922Y-92633800D01*
X154431334Y-92431512D01*
X154376194Y-92235999D01*
X154362884Y-92209008D01*
X154289418Y-92060036D01*
X154286347Y-92053808D01*
X154272580Y-92035371D01*
X154168960Y-91896608D01*
X154164804Y-91891042D01*
X154125789Y-91854977D01*
X154083969Y-91788697D01*
X154080892Y-91710387D01*
X154117382Y-91641030D01*
X154183662Y-91599210D01*
X154228559Y-91592400D01*
X154440113Y-91592400D01*
X154515813Y-91612684D01*
X154547169Y-91636744D01*
X156088956Y-93178530D01*
X156128141Y-93246401D01*
X156133300Y-93285586D01*
X156133300Y-95340464D01*
X156113016Y-95416164D01*
X156087829Y-95448636D01*
X156083451Y-95452924D01*
X156077673Y-95457569D01*
X155944645Y-95616106D01*
X155844943Y-95797462D01*
X155782366Y-95994729D01*
X155759297Y-96200394D01*
X155776615Y-96406624D01*
X155778657Y-96413744D01*
X155778657Y-96413746D01*
X155782297Y-96426440D01*
X155833659Y-96605561D01*
X155928258Y-96789631D01*
X156056808Y-96951820D01*
X156214412Y-97085952D01*
X156220873Y-97089563D01*
X156220876Y-97089565D01*
X156336931Y-97154426D01*
X156395067Y-97186917D01*
X156591893Y-97250869D01*
X156599239Y-97251745D01*
X156599244Y-97251746D01*
X156755264Y-97270350D01*
X156797393Y-97275373D01*
X156804775Y-97274805D01*
X156804777Y-97274805D01*
X156932423Y-97264983D01*
X157003738Y-97259496D01*
X157203069Y-97203842D01*
X157387794Y-97110530D01*
X157521162Y-97006332D01*
X157545042Y-96987675D01*
X157545043Y-96987674D01*
X157550877Y-96983116D01*
X157686105Y-96826452D01*
X157689761Y-96820016D01*
X157689764Y-96820012D01*
X157784669Y-96652948D01*
X157788329Y-96646506D01*
X157853654Y-96450131D01*
X157879593Y-96244808D01*
X157880006Y-96215200D01*
X157859811Y-96009233D01*
X157799994Y-95811111D01*
X157702835Y-95628380D01*
X157572033Y-95468002D01*
X157566336Y-95463289D01*
X157566330Y-95463283D01*
X157560792Y-95458702D01*
X157515395Y-95394820D01*
X157505900Y-95342048D01*
X157505900Y-92967610D01*
X157506251Y-92957313D01*
X157509372Y-92911529D01*
X157509372Y-92911528D01*
X157509993Y-92902418D01*
X157508424Y-92893430D01*
X157508424Y-92893424D01*
X157499484Y-92842201D01*
X157498327Y-92834361D01*
X157492082Y-92782757D01*
X157490985Y-92773692D01*
X157487758Y-92765153D01*
X157485611Y-92756410D01*
X157483004Y-92747774D01*
X157481434Y-92738781D01*
X157456866Y-92682812D01*
X157453885Y-92675508D01*
X157432269Y-92618304D01*
X157427100Y-92610783D01*
X157422930Y-92602805D01*
X157418337Y-92595038D01*
X157414667Y-92586679D01*
X157377441Y-92538166D01*
X157372800Y-92531777D01*
X157343353Y-92488930D01*
X157343352Y-92488928D01*
X157338183Y-92481408D01*
X157293748Y-92441818D01*
X157287408Y-92435833D01*
X156137816Y-91286241D01*
X154984344Y-90132770D01*
X154945159Y-90064899D01*
X154940000Y-90025714D01*
X154940000Y-88366100D01*
X154960284Y-88290400D01*
X155015700Y-88234984D01*
X155091400Y-88214700D01*
X155380413Y-88214700D01*
X155456113Y-88234984D01*
X155487469Y-88259044D01*
X156396205Y-89167780D01*
X156435390Y-89235651D01*
X156440534Y-89276946D01*
X156440521Y-89277843D01*
X156439697Y-89285194D01*
X156440316Y-89292566D01*
X156440316Y-89292568D01*
X156443779Y-89333801D01*
X156457015Y-89491424D01*
X156514059Y-89690361D01*
X156608658Y-89874431D01*
X156737208Y-90036620D01*
X156894812Y-90170752D01*
X156901273Y-90174363D01*
X156901276Y-90174365D01*
X157022714Y-90242234D01*
X157075467Y-90271717D01*
X157272293Y-90335669D01*
X157279639Y-90336545D01*
X157279644Y-90336546D01*
X157435664Y-90355150D01*
X157477793Y-90360173D01*
X157485175Y-90359605D01*
X157485177Y-90359605D01*
X157612823Y-90349783D01*
X157684138Y-90344296D01*
X157883469Y-90288642D01*
X158068194Y-90195330D01*
X158231277Y-90067916D01*
X158366505Y-89911252D01*
X158370161Y-89904816D01*
X158370164Y-89904812D01*
X158465069Y-89737748D01*
X158468729Y-89731306D01*
X158534054Y-89534931D01*
X158559993Y-89329608D01*
X158560406Y-89300000D01*
X158548398Y-89177533D01*
X158540934Y-89101405D01*
X158540934Y-89101403D01*
X158540211Y-89094033D01*
X158480394Y-88895911D01*
X158416645Y-88776016D01*
X158386707Y-88719709D01*
X158386705Y-88719705D01*
X158383235Y-88713180D01*
X158252433Y-88552802D01*
X158092972Y-88420884D01*
X158027405Y-88385432D01*
X157917433Y-88325970D01*
X157917430Y-88325969D01*
X157910924Y-88322451D01*
X157903855Y-88320263D01*
X157903853Y-88320262D01*
X157720297Y-88263442D01*
X157720293Y-88263441D01*
X157713224Y-88261253D01*
X157705868Y-88260480D01*
X157705864Y-88260479D01*
X157514760Y-88240393D01*
X157514757Y-88240393D01*
X157507403Y-88239620D01*
X157500030Y-88240291D01*
X157488013Y-88241384D01*
X157410786Y-88228043D01*
X157367238Y-88197663D01*
X156233206Y-87063632D01*
X156226173Y-87056103D01*
X156195995Y-87021509D01*
X156195993Y-87021507D01*
X156189997Y-87014634D01*
X156182536Y-87009390D01*
X156182530Y-87009385D01*
X156139997Y-86979493D01*
X156133632Y-86974766D01*
X156092719Y-86942686D01*
X156092716Y-86942684D01*
X156085533Y-86937052D01*
X156077211Y-86933294D01*
X156069494Y-86928621D01*
X156061563Y-86924368D01*
X156054094Y-86919119D01*
X155997132Y-86896910D01*
X155989853Y-86893850D01*
X155934139Y-86868694D01*
X155925157Y-86867029D01*
X155916553Y-86864333D01*
X155907830Y-86862093D01*
X155899330Y-86858779D01*
X155890288Y-86857589D01*
X155890286Y-86857588D01*
X155838740Y-86850802D01*
X155830912Y-86849562D01*
X155829809Y-86849358D01*
X155770810Y-86838423D01*
X155761703Y-86838948D01*
X155761701Y-86838948D01*
X155711392Y-86841849D01*
X155702677Y-86842100D01*
X155091400Y-86842100D01*
X155015700Y-86821816D01*
X154960284Y-86766400D01*
X154940000Y-86690700D01*
X154940000Y-86360000D01*
X154376202Y-86360000D01*
X154300502Y-86339716D01*
X154245086Y-86284300D01*
X154224802Y-86208600D01*
X154245086Y-86132900D01*
X154292782Y-86085204D01*
X154291512Y-86083355D01*
X154303031Y-86075438D01*
X154315806Y-86069764D01*
X154396157Y-85989272D01*
X154442145Y-85885251D01*
X154445187Y-85859158D01*
X154445187Y-84168442D01*
X154442020Y-84141822D01*
X154401728Y-84051111D01*
X154401526Y-84050656D01*
X154401524Y-84050654D01*
X154395851Y-84037881D01*
X154380121Y-84022178D01*
X154325250Y-83967404D01*
X154315359Y-83957530D01*
X154211338Y-83911542D01*
X154200031Y-83910224D01*
X154200028Y-83910223D01*
X154193795Y-83909497D01*
X154185245Y-83908500D01*
X152494529Y-83908500D01*
X152482176Y-83909970D01*
X152479188Y-83910325D01*
X152479187Y-83910325D01*
X152467909Y-83911667D01*
X152432433Y-83927425D01*
X152376743Y-83952161D01*
X152376741Y-83952163D01*
X152363968Y-83957836D01*
X152283617Y-84038328D01*
X152277966Y-84051111D01*
X152243333Y-84129448D01*
X152237629Y-84142349D01*
X152234587Y-84168442D01*
X152234587Y-85859158D01*
X152237754Y-85885778D01*
X152242366Y-85896160D01*
X152278248Y-85976944D01*
X152278250Y-85976946D01*
X152283923Y-85989719D01*
X152364415Y-86070070D01*
X152377198Y-86075721D01*
X152388732Y-86083619D01*
X152386097Y-86087467D01*
X152425694Y-86119444D01*
X152453878Y-86192571D01*
X152441723Y-86269993D01*
X152392485Y-86330965D01*
X152319358Y-86359149D01*
X152303329Y-86360000D01*
X151189965Y-86360000D01*
X151114265Y-86339716D01*
X151058849Y-86284300D01*
X151038565Y-86208600D01*
X151058849Y-86132900D01*
X151114265Y-86077484D01*
X151141298Y-86065235D01*
X151244810Y-86030097D01*
X151244811Y-86030097D01*
X151251379Y-86027867D01*
X151428618Y-85928609D01*
X151584800Y-85798713D01*
X151714696Y-85642531D01*
X151813954Y-85465292D01*
X151841435Y-85384337D01*
X151877021Y-85279506D01*
X151877022Y-85279503D01*
X151879252Y-85272933D01*
X151908401Y-85071895D01*
X151909922Y-85013800D01*
X151891334Y-84811512D01*
X151836194Y-84615999D01*
X151822884Y-84589008D01*
X151749418Y-84440036D01*
X151746347Y-84433808D01*
X151732580Y-84415371D01*
X151628960Y-84276608D01*
X151624804Y-84271042D01*
X151475633Y-84133150D01*
X151303832Y-84024752D01*
X151210411Y-83987481D01*
X151121597Y-83952047D01*
X151121592Y-83952046D01*
X151115154Y-83949477D01*
X150915917Y-83909846D01*
X150908974Y-83909755D01*
X150908973Y-83909755D01*
X150837952Y-83908825D01*
X150712795Y-83907187D01*
X150705958Y-83908362D01*
X150705956Y-83908362D01*
X150519432Y-83940413D01*
X150519430Y-83940413D01*
X150512589Y-83941589D01*
X150506076Y-83943992D01*
X150506075Y-83943992D01*
X150328518Y-84009496D01*
X150328516Y-84009497D01*
X150322005Y-84011899D01*
X150278333Y-84037881D01*
X150153386Y-84112216D01*
X150153382Y-84112219D01*
X150147425Y-84115763D01*
X150142215Y-84120332D01*
X150142211Y-84120335D01*
X150082240Y-84172928D01*
X149994696Y-84249702D01*
X149868933Y-84409232D01*
X149865704Y-84415370D01*
X149865703Y-84415371D01*
X149795413Y-84548971D01*
X149774348Y-84589008D01*
X149714109Y-84783011D01*
X149690232Y-84984743D01*
X149692429Y-85018260D01*
X149701294Y-85153509D01*
X149703518Y-85187448D01*
X149705225Y-85194170D01*
X149705226Y-85194175D01*
X149733443Y-85305276D01*
X149753522Y-85384337D01*
X149756429Y-85390642D01*
X149756429Y-85390643D01*
X149800382Y-85485984D01*
X149838568Y-85568817D01*
X149955810Y-85734710D01*
X149960780Y-85739552D01*
X149960783Y-85739555D01*
X150016027Y-85793371D01*
X150101319Y-85876459D01*
X150107094Y-85880318D01*
X150107098Y-85880321D01*
X150195918Y-85939668D01*
X150270224Y-85989318D01*
X150276605Y-85992060D01*
X150276606Y-85992060D01*
X150456841Y-86069495D01*
X150518387Y-86118014D01*
X150547428Y-86190805D01*
X150536182Y-86268364D01*
X150487663Y-86329910D01*
X150414872Y-86358951D01*
X150397077Y-86360000D01*
X148649965Y-86360000D01*
X148574265Y-86339716D01*
X148518849Y-86284300D01*
X148498565Y-86208600D01*
X148518849Y-86132900D01*
X148574265Y-86077484D01*
X148601298Y-86065235D01*
X148704810Y-86030097D01*
X148704811Y-86030097D01*
X148711379Y-86027867D01*
X148888618Y-85928609D01*
X149044800Y-85798713D01*
X149174696Y-85642531D01*
X149273954Y-85465292D01*
X149301435Y-85384337D01*
X149337021Y-85279506D01*
X149337022Y-85279503D01*
X149339252Y-85272933D01*
X149368401Y-85071895D01*
X149369922Y-85013800D01*
X149351334Y-84811512D01*
X149296194Y-84615999D01*
X149282884Y-84589008D01*
X149209418Y-84440036D01*
X149206347Y-84433808D01*
X149192580Y-84415371D01*
X149088960Y-84276608D01*
X149084804Y-84271042D01*
X148935633Y-84133150D01*
X148763832Y-84024752D01*
X148670411Y-83987481D01*
X148581597Y-83952047D01*
X148581592Y-83952046D01*
X148575154Y-83949477D01*
X148375917Y-83909846D01*
X148368974Y-83909755D01*
X148368973Y-83909755D01*
X148297952Y-83908825D01*
X148172795Y-83907187D01*
X148165958Y-83908362D01*
X148165956Y-83908362D01*
X147979432Y-83940413D01*
X147979430Y-83940413D01*
X147972589Y-83941589D01*
X147966076Y-83943992D01*
X147966075Y-83943992D01*
X147788518Y-84009496D01*
X147788516Y-84009497D01*
X147782005Y-84011899D01*
X147738333Y-84037881D01*
X147613386Y-84112216D01*
X147613382Y-84112219D01*
X147607425Y-84115763D01*
X147602215Y-84120332D01*
X147602211Y-84120335D01*
X147542240Y-84172928D01*
X147454696Y-84249702D01*
X147328933Y-84409232D01*
X147325704Y-84415370D01*
X147325703Y-84415371D01*
X147255413Y-84548971D01*
X147234348Y-84589008D01*
X147174109Y-84783011D01*
X147150232Y-84984743D01*
X147152429Y-85018260D01*
X147161294Y-85153509D01*
X147163518Y-85187448D01*
X147165225Y-85194170D01*
X147165226Y-85194175D01*
X147193443Y-85305276D01*
X147213522Y-85384337D01*
X147216429Y-85390642D01*
X147216429Y-85390643D01*
X147260382Y-85485984D01*
X147298568Y-85568817D01*
X147415810Y-85734710D01*
X147420780Y-85739552D01*
X147420783Y-85739555D01*
X147476027Y-85793371D01*
X147561319Y-85876459D01*
X147567094Y-85880318D01*
X147567098Y-85880321D01*
X147655918Y-85939668D01*
X147730224Y-85989318D01*
X147736605Y-85992060D01*
X147736606Y-85992060D01*
X147916841Y-86069495D01*
X147978387Y-86118014D01*
X148007428Y-86190805D01*
X147996182Y-86268364D01*
X147947663Y-86329910D01*
X147874872Y-86358951D01*
X147857077Y-86360000D01*
X146109965Y-86360000D01*
X146034265Y-86339716D01*
X145978849Y-86284300D01*
X145958565Y-86208600D01*
X145978849Y-86132900D01*
X146034265Y-86077484D01*
X146061298Y-86065235D01*
X146164810Y-86030097D01*
X146164811Y-86030097D01*
X146171379Y-86027867D01*
X146348618Y-85928609D01*
X146504800Y-85798713D01*
X146634696Y-85642531D01*
X146733954Y-85465292D01*
X146761435Y-85384337D01*
X146797021Y-85279506D01*
X146797022Y-85279503D01*
X146799252Y-85272933D01*
X146828401Y-85071895D01*
X146829922Y-85013800D01*
X146811334Y-84811512D01*
X146756194Y-84615999D01*
X146742884Y-84589008D01*
X146669418Y-84440036D01*
X146666347Y-84433808D01*
X146652580Y-84415371D01*
X146548960Y-84276608D01*
X146544804Y-84271042D01*
X146395633Y-84133150D01*
X146223832Y-84024752D01*
X146130411Y-83987481D01*
X146041597Y-83952047D01*
X146041592Y-83952046D01*
X146035154Y-83949477D01*
X145835917Y-83909846D01*
X145828974Y-83909755D01*
X145828973Y-83909755D01*
X145757952Y-83908825D01*
X145632795Y-83907187D01*
X145625958Y-83908362D01*
X145625956Y-83908362D01*
X145439432Y-83940413D01*
X145439430Y-83940413D01*
X145432589Y-83941589D01*
X145426076Y-83943992D01*
X145426075Y-83943992D01*
X145248518Y-84009496D01*
X145248516Y-84009497D01*
X145242005Y-84011899D01*
X145198333Y-84037881D01*
X145073386Y-84112216D01*
X145073382Y-84112219D01*
X145067425Y-84115763D01*
X145062215Y-84120332D01*
X145062211Y-84120335D01*
X145002240Y-84172928D01*
X144914696Y-84249702D01*
X144788933Y-84409232D01*
X144785704Y-84415370D01*
X144785703Y-84415371D01*
X144715413Y-84548971D01*
X144694348Y-84589008D01*
X144634109Y-84783011D01*
X144610232Y-84984743D01*
X144612429Y-85018260D01*
X144621294Y-85153509D01*
X144623518Y-85187448D01*
X144625225Y-85194170D01*
X144625226Y-85194175D01*
X144653443Y-85305276D01*
X144673522Y-85384337D01*
X144676429Y-85390642D01*
X144676429Y-85390643D01*
X144720382Y-85485984D01*
X144758568Y-85568817D01*
X144875810Y-85734710D01*
X144880780Y-85739552D01*
X144880783Y-85739555D01*
X144936027Y-85793371D01*
X145021319Y-85876459D01*
X145027094Y-85880318D01*
X145027098Y-85880321D01*
X145115918Y-85939668D01*
X145190224Y-85989318D01*
X145196605Y-85992060D01*
X145196606Y-85992060D01*
X145376841Y-86069495D01*
X145438387Y-86118014D01*
X145467428Y-86190805D01*
X145456182Y-86268364D01*
X145407663Y-86329910D01*
X145334872Y-86358951D01*
X145317077Y-86360000D01*
X143569965Y-86360000D01*
X143494265Y-86339716D01*
X143438849Y-86284300D01*
X143418565Y-86208600D01*
X143438849Y-86132900D01*
X143494265Y-86077484D01*
X143521298Y-86065235D01*
X143624810Y-86030097D01*
X143624811Y-86030097D01*
X143631379Y-86027867D01*
X143808618Y-85928609D01*
X143964800Y-85798713D01*
X144094696Y-85642531D01*
X144193954Y-85465292D01*
X144221435Y-85384337D01*
X144257021Y-85279506D01*
X144257022Y-85279503D01*
X144259252Y-85272933D01*
X144288401Y-85071895D01*
X144289922Y-85013800D01*
X144271334Y-84811512D01*
X144216194Y-84615999D01*
X144202884Y-84589008D01*
X144129418Y-84440036D01*
X144126347Y-84433808D01*
X144112580Y-84415371D01*
X144008960Y-84276608D01*
X144004804Y-84271042D01*
X143855633Y-84133150D01*
X143683832Y-84024752D01*
X143590411Y-83987481D01*
X143501597Y-83952047D01*
X143501592Y-83952046D01*
X143495154Y-83949477D01*
X143295917Y-83909846D01*
X143288974Y-83909755D01*
X143288973Y-83909755D01*
X143217952Y-83908825D01*
X143092795Y-83907187D01*
X143085958Y-83908362D01*
X143085956Y-83908362D01*
X143066723Y-83911667D01*
X142975019Y-83927425D01*
X142896979Y-83920254D01*
X142842324Y-83885268D01*
X139852685Y-80895629D01*
X139848296Y-80891052D01*
X139812937Y-80852599D01*
X139812936Y-80852598D01*
X139805950Y-80845001D01*
X139769316Y-80822287D01*
X139757560Y-80814207D01*
X139731451Y-80794389D01*
X139731450Y-80794389D01*
X139723230Y-80788149D01*
X139713637Y-80784351D01*
X139713634Y-80784349D01*
X139710959Y-80783290D01*
X139686919Y-80771199D01*
X139675713Y-80764251D01*
X139665802Y-80761371D01*
X139665801Y-80761371D01*
X139651125Y-80757107D01*
X139634328Y-80752227D01*
X139620838Y-80747608D01*
X139590351Y-80735537D01*
X139590344Y-80735535D01*
X139580753Y-80731738D01*
X139570489Y-80730659D01*
X139570484Y-80730658D01*
X139567632Y-80730358D01*
X139541226Y-80725178D01*
X139528559Y-80721498D01*
X139517692Y-80720700D01*
X139483674Y-80720700D01*
X139467848Y-80719871D01*
X139438614Y-80716798D01*
X139438611Y-80716798D01*
X139428354Y-80715720D01*
X139418180Y-80717441D01*
X139418176Y-80717441D01*
X139411447Y-80718579D01*
X139386196Y-80720700D01*
X124643381Y-80720700D01*
X124567681Y-80700416D01*
X124536325Y-80676356D01*
X123731644Y-79871675D01*
X123692459Y-79803804D01*
X123687300Y-79764619D01*
X123687300Y-79219856D01*
X123676341Y-79129297D01*
X123630935Y-79014612D01*
X123624135Y-78997438D01*
X123624135Y-78997437D01*
X123620334Y-78987838D01*
X123600702Y-78961973D01*
X123534589Y-78874874D01*
X123528348Y-78866652D01*
X123449419Y-78806741D01*
X123415386Y-78780908D01*
X123415384Y-78780907D01*
X123407162Y-78774666D01*
X123397562Y-78770865D01*
X123397560Y-78770864D01*
X123354380Y-78753768D01*
X123291462Y-78707042D01*
X123260337Y-78635118D01*
X123269345Y-78557267D01*
X123316071Y-78494349D01*
X123354380Y-78472232D01*
X123397560Y-78455136D01*
X123397562Y-78455135D01*
X123407162Y-78451334D01*
X123415384Y-78445093D01*
X123415386Y-78445092D01*
X123481387Y-78394994D01*
X127006584Y-78394994D01*
X127023902Y-78601224D01*
X127080946Y-78800161D01*
X127175545Y-78984231D01*
X127304095Y-79146420D01*
X127461699Y-79280552D01*
X127468160Y-79284163D01*
X127468163Y-79284165D01*
X127589601Y-79352034D01*
X127642354Y-79381517D01*
X127839180Y-79445469D01*
X127846526Y-79446345D01*
X127846531Y-79446346D01*
X128002551Y-79464950D01*
X128044680Y-79469973D01*
X128052062Y-79469405D01*
X128052064Y-79469405D01*
X128179710Y-79459583D01*
X128251025Y-79454096D01*
X128450356Y-79398442D01*
X128635081Y-79305130D01*
X128769519Y-79200096D01*
X128792329Y-79182275D01*
X128792330Y-79182274D01*
X128798164Y-79177716D01*
X128933392Y-79021052D01*
X128937048Y-79014616D01*
X128937051Y-79014612D01*
X128991871Y-78918111D01*
X129035616Y-78841106D01*
X129100941Y-78644731D01*
X129126880Y-78439408D01*
X129127293Y-78409800D01*
X129125841Y-78394994D01*
X131886584Y-78394994D01*
X131903902Y-78601224D01*
X131960946Y-78800161D01*
X132055545Y-78984231D01*
X132184095Y-79146420D01*
X132341699Y-79280552D01*
X132348160Y-79284163D01*
X132348163Y-79284165D01*
X132469601Y-79352034D01*
X132522354Y-79381517D01*
X132719180Y-79445469D01*
X132726526Y-79446345D01*
X132726531Y-79446346D01*
X132882551Y-79464950D01*
X132924680Y-79469973D01*
X132932062Y-79469405D01*
X132932064Y-79469405D01*
X133059710Y-79459583D01*
X133131025Y-79454096D01*
X133330356Y-79398442D01*
X133515081Y-79305130D01*
X133649519Y-79200096D01*
X133672329Y-79182275D01*
X133672330Y-79182274D01*
X133678164Y-79177716D01*
X133813392Y-79021052D01*
X133817048Y-79014616D01*
X133817051Y-79014612D01*
X133871871Y-78918111D01*
X133915616Y-78841106D01*
X133980941Y-78644731D01*
X134006880Y-78439408D01*
X134007293Y-78409800D01*
X134001540Y-78351126D01*
X133987821Y-78211205D01*
X133987821Y-78211203D01*
X133987098Y-78203833D01*
X133927281Y-78005711D01*
X133869712Y-77897439D01*
X133833594Y-77829509D01*
X133833592Y-77829505D01*
X133830122Y-77822980D01*
X133699320Y-77662602D01*
X133539859Y-77530684D01*
X133491975Y-77504793D01*
X133364320Y-77435770D01*
X133364317Y-77435769D01*
X133357811Y-77432251D01*
X133350742Y-77430063D01*
X133350740Y-77430062D01*
X133167184Y-77373242D01*
X133167180Y-77373241D01*
X133160111Y-77371053D01*
X133152755Y-77370280D01*
X133152751Y-77370279D01*
X132961647Y-77350193D01*
X132961644Y-77350193D01*
X132954290Y-77349420D01*
X132748187Y-77368177D01*
X132741083Y-77370268D01*
X132741082Y-77370268D01*
X132591352Y-77414336D01*
X132549652Y-77426609D01*
X132366248Y-77522490D01*
X132204960Y-77652169D01*
X132071932Y-77810706D01*
X132068366Y-77817193D01*
X132068365Y-77817194D01*
X131995446Y-77949833D01*
X131972230Y-77992062D01*
X131909653Y-78189329D01*
X131908828Y-78196687D01*
X131908827Y-78196690D01*
X131903253Y-78246386D01*
X131886584Y-78394994D01*
X129125841Y-78394994D01*
X129121540Y-78351126D01*
X129107821Y-78211205D01*
X129107821Y-78211203D01*
X129107098Y-78203833D01*
X129047281Y-78005711D01*
X128989712Y-77897439D01*
X128953594Y-77829509D01*
X128953592Y-77829505D01*
X128950122Y-77822980D01*
X128819320Y-77662602D01*
X128659859Y-77530684D01*
X128611975Y-77504793D01*
X128484320Y-77435770D01*
X128484317Y-77435769D01*
X128477811Y-77432251D01*
X128470742Y-77430063D01*
X128470740Y-77430062D01*
X128287184Y-77373242D01*
X128287180Y-77373241D01*
X128280111Y-77371053D01*
X128272755Y-77370280D01*
X128272751Y-77370279D01*
X128081647Y-77350193D01*
X128081644Y-77350193D01*
X128074290Y-77349420D01*
X127868187Y-77368177D01*
X127861083Y-77370268D01*
X127861082Y-77370268D01*
X127711352Y-77414336D01*
X127669652Y-77426609D01*
X127486248Y-77522490D01*
X127324960Y-77652169D01*
X127191932Y-77810706D01*
X127188366Y-77817193D01*
X127188365Y-77817194D01*
X127115446Y-77949833D01*
X127092230Y-77992062D01*
X127029653Y-78189329D01*
X127028828Y-78196687D01*
X127028827Y-78196690D01*
X127023253Y-78246386D01*
X127006584Y-78394994D01*
X123481387Y-78394994D01*
X123520126Y-78365589D01*
X123528348Y-78359348D01*
X123620334Y-78238162D01*
X123636754Y-78196690D01*
X123672760Y-78105748D01*
X123672760Y-78105747D01*
X123676341Y-78096703D01*
X123677656Y-78085841D01*
X123686752Y-78010670D01*
X123687300Y-78006144D01*
X123687300Y-77219856D01*
X123676341Y-77129297D01*
X123633225Y-77020396D01*
X123624135Y-76997438D01*
X123624135Y-76997437D01*
X123620334Y-76987838D01*
X123610433Y-76974793D01*
X123534589Y-76874874D01*
X123528348Y-76866652D01*
X123496125Y-76842193D01*
X123415386Y-76780908D01*
X123415384Y-76780907D01*
X123407162Y-76774666D01*
X123336964Y-76746873D01*
X123274049Y-76700149D01*
X123242924Y-76628224D01*
X123241300Y-76606106D01*
X123241300Y-75839428D01*
X146983036Y-75839428D01*
X146986250Y-75888469D01*
X146996279Y-76041472D01*
X146996923Y-76051303D01*
X146998629Y-76058022D01*
X146998630Y-76058026D01*
X147027914Y-76173332D01*
X147049188Y-76257099D01*
X147088197Y-76341716D01*
X147132756Y-76438370D01*
X147138082Y-76449924D01*
X147260627Y-76623321D01*
X147265597Y-76628163D01*
X147265600Y-76628166D01*
X147407747Y-76766640D01*
X147407750Y-76766643D01*
X147412719Y-76771483D01*
X147418489Y-76775339D01*
X147418491Y-76775340D01*
X147544454Y-76859506D01*
X147589264Y-76889447D01*
X147595644Y-76892188D01*
X147777976Y-76970524D01*
X147777980Y-76970525D01*
X147784350Y-76973262D01*
X147791109Y-76974792D01*
X147791114Y-76974793D01*
X147984676Y-77018592D01*
X147984681Y-77018593D01*
X147991444Y-77020123D01*
X147998375Y-77020395D01*
X147998380Y-77020396D01*
X148145104Y-77026160D01*
X148203610Y-77028459D01*
X148210486Y-77027462D01*
X148210487Y-77027462D01*
X148406868Y-76998988D01*
X148406871Y-76998987D01*
X148413742Y-76997991D01*
X148494817Y-76970470D01*
X148608231Y-76931971D01*
X148608232Y-76931971D01*
X148614803Y-76929740D01*
X148800059Y-76825992D01*
X148860962Y-76775340D01*
X148957972Y-76694657D01*
X148963307Y-76690220D01*
X149099079Y-76526972D01*
X149202827Y-76341716D01*
X149263360Y-76163393D01*
X149271078Y-76140655D01*
X149273247Y-76141391D01*
X149305269Y-76082418D01*
X149372093Y-76041472D01*
X149450436Y-76039424D01*
X149519308Y-76076821D01*
X149561829Y-76149372D01*
X149567914Y-76173332D01*
X149589188Y-76257099D01*
X149628197Y-76341716D01*
X149672756Y-76438370D01*
X149678082Y-76449924D01*
X149800627Y-76623321D01*
X149805597Y-76628163D01*
X149805600Y-76628166D01*
X149947747Y-76766640D01*
X149947750Y-76766643D01*
X149952719Y-76771483D01*
X149958489Y-76775339D01*
X149958491Y-76775340D01*
X150084454Y-76859506D01*
X150129264Y-76889447D01*
X150135644Y-76892188D01*
X150317976Y-76970524D01*
X150317980Y-76970525D01*
X150324350Y-76973262D01*
X150331109Y-76974792D01*
X150331114Y-76974793D01*
X150524676Y-77018592D01*
X150524681Y-77018593D01*
X150531444Y-77020123D01*
X150538375Y-77020395D01*
X150538380Y-77020396D01*
X150685104Y-77026160D01*
X150743610Y-77028459D01*
X150750486Y-77027462D01*
X150750487Y-77027462D01*
X150946868Y-76998988D01*
X150946871Y-76998987D01*
X150953742Y-76997991D01*
X151034817Y-76970470D01*
X151148231Y-76931971D01*
X151148232Y-76931971D01*
X151154803Y-76929740D01*
X151340059Y-76825992D01*
X151400962Y-76775340D01*
X151497972Y-76694657D01*
X151503307Y-76690220D01*
X151639079Y-76526972D01*
X151742827Y-76341716D01*
X151803360Y-76163393D01*
X151811078Y-76140655D01*
X151813247Y-76141391D01*
X151845269Y-76082418D01*
X151912093Y-76041472D01*
X151990436Y-76039424D01*
X152059308Y-76076821D01*
X152101829Y-76149372D01*
X152107914Y-76173332D01*
X152129188Y-76257099D01*
X152168197Y-76341716D01*
X152212756Y-76438370D01*
X152218082Y-76449924D01*
X152340627Y-76623321D01*
X152345597Y-76628163D01*
X152345600Y-76628166D01*
X152487747Y-76766640D01*
X152487750Y-76766643D01*
X152492719Y-76771483D01*
X152498489Y-76775339D01*
X152498491Y-76775340D01*
X152624454Y-76859506D01*
X152669264Y-76889447D01*
X152675644Y-76892188D01*
X152857976Y-76970524D01*
X152857980Y-76970525D01*
X152864350Y-76973262D01*
X152871109Y-76974792D01*
X152871114Y-76974793D01*
X153064676Y-77018592D01*
X153064681Y-77018593D01*
X153071444Y-77020123D01*
X153078375Y-77020395D01*
X153078380Y-77020396D01*
X153225104Y-77026160D01*
X153283610Y-77028459D01*
X153290486Y-77027462D01*
X153290487Y-77027462D01*
X153486868Y-76998988D01*
X153486871Y-76998987D01*
X153493742Y-76997991D01*
X153574817Y-76970470D01*
X153688231Y-76931971D01*
X153688232Y-76931971D01*
X153694803Y-76929740D01*
X153880059Y-76825992D01*
X153940962Y-76775340D01*
X154037972Y-76694657D01*
X154043307Y-76690220D01*
X154179079Y-76526972D01*
X154282827Y-76341716D01*
X154351078Y-76140655D01*
X154362219Y-76063822D01*
X154378018Y-75954856D01*
X154381546Y-75930523D01*
X154383136Y-75869800D01*
X154379816Y-75833667D01*
X154364343Y-75665271D01*
X154364343Y-75665270D01*
X154363708Y-75658361D01*
X154357249Y-75635457D01*
X154307957Y-75460685D01*
X154307956Y-75460682D01*
X154306073Y-75454004D01*
X154295431Y-75432423D01*
X154240463Y-75320961D01*
X154212162Y-75263572D01*
X154085120Y-75093442D01*
X153929202Y-74949313D01*
X153889833Y-74924473D01*
X153755497Y-74839713D01*
X153755493Y-74839711D01*
X153749629Y-74836011D01*
X153743190Y-74833442D01*
X153743188Y-74833441D01*
X153558858Y-74759900D01*
X153558857Y-74759900D01*
X153552416Y-74757330D01*
X153545612Y-74755977D01*
X153545610Y-74755976D01*
X153449491Y-74736857D01*
X153344166Y-74715907D01*
X153337223Y-74715816D01*
X153337222Y-74715816D01*
X153261082Y-74714819D01*
X153131855Y-74713128D01*
X153125018Y-74714303D01*
X153125016Y-74714303D01*
X152929434Y-74747910D01*
X152929431Y-74747911D01*
X152922592Y-74749086D01*
X152916079Y-74751489D01*
X152916078Y-74751489D01*
X152729900Y-74820173D01*
X152729898Y-74820174D01*
X152723387Y-74822576D01*
X152676098Y-74850710D01*
X152546871Y-74927592D01*
X152546867Y-74927595D01*
X152540910Y-74931139D01*
X152535700Y-74935708D01*
X152535696Y-74935711D01*
X152414974Y-75041581D01*
X152381272Y-75071137D01*
X152249820Y-75237883D01*
X152150957Y-75425792D01*
X152148898Y-75432423D01*
X152096664Y-75600643D01*
X152054844Y-75666923D01*
X151985487Y-75703413D01*
X151907177Y-75700336D01*
X151840897Y-75658516D01*
X151806358Y-75596843D01*
X151767956Y-75460682D01*
X151766073Y-75454004D01*
X151755431Y-75432423D01*
X151700463Y-75320961D01*
X151672162Y-75263572D01*
X151545120Y-75093442D01*
X151389202Y-74949313D01*
X151349833Y-74924473D01*
X151215497Y-74839713D01*
X151215493Y-74839711D01*
X151209629Y-74836011D01*
X151203190Y-74833442D01*
X151203188Y-74833441D01*
X151018858Y-74759900D01*
X151018857Y-74759900D01*
X151012416Y-74757330D01*
X151005612Y-74755977D01*
X151005610Y-74755976D01*
X150909491Y-74736857D01*
X150804166Y-74715907D01*
X150797223Y-74715816D01*
X150797222Y-74715816D01*
X150721082Y-74714819D01*
X150591855Y-74713128D01*
X150585018Y-74714303D01*
X150585016Y-74714303D01*
X150389434Y-74747910D01*
X150389431Y-74747911D01*
X150382592Y-74749086D01*
X150376079Y-74751489D01*
X150376078Y-74751489D01*
X150189900Y-74820173D01*
X150189898Y-74820174D01*
X150183387Y-74822576D01*
X150136098Y-74850710D01*
X150006871Y-74927592D01*
X150006867Y-74927595D01*
X150000910Y-74931139D01*
X149995700Y-74935708D01*
X149995696Y-74935711D01*
X149874974Y-75041581D01*
X149841272Y-75071137D01*
X149709820Y-75237883D01*
X149610957Y-75425792D01*
X149608898Y-75432423D01*
X149556664Y-75600643D01*
X149514844Y-75666923D01*
X149445487Y-75703413D01*
X149367177Y-75700336D01*
X149300897Y-75658516D01*
X149266358Y-75596843D01*
X149227956Y-75460682D01*
X149226073Y-75454004D01*
X149215431Y-75432423D01*
X149160463Y-75320961D01*
X149132162Y-75263572D01*
X149005120Y-75093442D01*
X148849202Y-74949313D01*
X148809833Y-74924473D01*
X148675497Y-74839713D01*
X148675493Y-74839711D01*
X148669629Y-74836011D01*
X148663190Y-74833442D01*
X148663188Y-74833441D01*
X148478858Y-74759900D01*
X148478857Y-74759900D01*
X148472416Y-74757330D01*
X148465612Y-74755977D01*
X148465610Y-74755976D01*
X148369491Y-74736857D01*
X148264166Y-74715907D01*
X148257223Y-74715816D01*
X148257222Y-74715816D01*
X148181082Y-74714819D01*
X148051855Y-74713128D01*
X148045018Y-74714303D01*
X148045016Y-74714303D01*
X147849434Y-74747910D01*
X147849431Y-74747911D01*
X147842592Y-74749086D01*
X147836079Y-74751489D01*
X147836078Y-74751489D01*
X147649900Y-74820173D01*
X147649898Y-74820174D01*
X147643387Y-74822576D01*
X147596098Y-74850710D01*
X147466871Y-74927592D01*
X147466867Y-74927595D01*
X147460910Y-74931139D01*
X147455700Y-74935708D01*
X147455696Y-74935711D01*
X147334974Y-75041581D01*
X147301272Y-75071137D01*
X147169820Y-75237883D01*
X147070957Y-75425792D01*
X147007992Y-75628571D01*
X147007177Y-75635457D01*
X146983877Y-75832325D01*
X146983036Y-75839428D01*
X123241300Y-75839428D01*
X123241300Y-72999894D01*
X123261584Y-72924194D01*
X123317000Y-72868778D01*
X123336957Y-72859130D01*
X123407162Y-72831334D01*
X123415384Y-72825093D01*
X123415386Y-72825092D01*
X123520126Y-72745589D01*
X123528348Y-72739348D01*
X123620334Y-72618162D01*
X123676341Y-72476703D01*
X123687300Y-72386144D01*
X123687300Y-71649856D01*
X123676341Y-71559297D01*
X123620334Y-71417838D01*
X123528348Y-71296652D01*
X123520126Y-71290411D01*
X123415386Y-71210908D01*
X123415384Y-71210907D01*
X123407162Y-71204666D01*
X123265703Y-71148659D01*
X123256045Y-71147490D01*
X123256044Y-71147490D01*
X123234027Y-71144826D01*
X123175144Y-71137700D01*
X122188856Y-71137700D01*
X122129973Y-71144826D01*
X122107956Y-71147490D01*
X122107955Y-71147490D01*
X122098297Y-71148659D01*
X121956838Y-71204666D01*
X121948616Y-71210907D01*
X121948614Y-71210908D01*
X121843874Y-71290411D01*
X121835652Y-71296652D01*
X121743666Y-71417838D01*
X121687659Y-71559297D01*
X121676700Y-71649856D01*
X121676700Y-72386144D01*
X121687659Y-72476703D01*
X121743666Y-72618162D01*
X121835652Y-72739348D01*
X121843874Y-72745589D01*
X121948614Y-72825092D01*
X121948616Y-72825093D01*
X121956838Y-72831334D01*
X122027036Y-72859127D01*
X122089951Y-72905851D01*
X122121076Y-72977776D01*
X122122700Y-72999894D01*
X122122700Y-76606106D01*
X122102416Y-76681806D01*
X122047000Y-76737222D01*
X122027043Y-76746870D01*
X121956838Y-76774666D01*
X121948616Y-76780907D01*
X121948614Y-76780908D01*
X121867875Y-76842193D01*
X121835652Y-76866652D01*
X121829411Y-76874874D01*
X121753568Y-76974793D01*
X121743666Y-76987838D01*
X121739865Y-76997437D01*
X121739865Y-76997438D01*
X121730776Y-77020396D01*
X121687659Y-77129297D01*
X121676700Y-77219856D01*
X121676700Y-78006144D01*
X121677248Y-78010670D01*
X121686345Y-78085841D01*
X121687659Y-78096703D01*
X121691240Y-78105747D01*
X121691240Y-78105748D01*
X121727246Y-78196690D01*
X121743666Y-78238162D01*
X121835652Y-78359348D01*
X121843874Y-78365589D01*
X121948614Y-78445092D01*
X121948616Y-78445093D01*
X121956838Y-78451334D01*
X121966438Y-78455135D01*
X121966440Y-78455136D01*
X122009620Y-78472232D01*
X122072538Y-78518958D01*
X122103663Y-78590882D01*
X122094655Y-78668733D01*
X122047929Y-78731651D01*
X122009620Y-78753768D01*
X121966440Y-78770864D01*
X121966438Y-78770865D01*
X121956838Y-78774666D01*
X121948616Y-78780907D01*
X121948614Y-78780908D01*
X121914581Y-78806741D01*
X121835652Y-78866652D01*
X121829411Y-78874874D01*
X121763299Y-78961973D01*
X121743666Y-78987838D01*
X121739865Y-78997437D01*
X121739865Y-78997438D01*
X121733066Y-79014612D01*
X121687659Y-79129297D01*
X121676700Y-79219856D01*
X121676700Y-80006144D01*
X121687659Y-80096703D01*
X121743666Y-80238162D01*
X121835652Y-80359348D01*
X121843874Y-80365589D01*
X121948614Y-80445092D01*
X121948616Y-80445093D01*
X121956838Y-80451334D01*
X121966437Y-80455135D01*
X121966438Y-80455135D01*
X122051412Y-80488778D01*
X122098297Y-80507341D01*
X122107955Y-80508510D01*
X122107956Y-80508510D01*
X122122699Y-80510294D01*
X122188856Y-80518300D01*
X122733619Y-80518300D01*
X122809319Y-80538584D01*
X122840675Y-80562644D01*
X123942402Y-81664371D01*
X123946790Y-81668947D01*
X123989137Y-81714999D01*
X123997908Y-81720437D01*
X123997909Y-81720438D01*
X124025771Y-81737713D01*
X124037527Y-81745793D01*
X124071857Y-81771851D01*
X124081450Y-81775649D01*
X124081453Y-81775651D01*
X124084128Y-81776710D01*
X124108166Y-81788800D01*
X124119374Y-81795749D01*
X124129285Y-81798629D01*
X124129286Y-81798629D01*
X124143962Y-81802893D01*
X124160759Y-81807773D01*
X124174249Y-81812392D01*
X124204736Y-81824463D01*
X124204743Y-81824465D01*
X124214334Y-81828262D01*
X124224598Y-81829341D01*
X124224603Y-81829342D01*
X124227455Y-81829642D01*
X124253861Y-81834822D01*
X124266528Y-81838502D01*
X124277395Y-81839300D01*
X124311413Y-81839300D01*
X124327239Y-81840129D01*
X124356473Y-81843202D01*
X124356476Y-81843202D01*
X124366733Y-81844280D01*
X124376907Y-81842559D01*
X124376911Y-81842559D01*
X124383640Y-81841421D01*
X124408891Y-81839300D01*
X139151706Y-81839300D01*
X139227406Y-81859584D01*
X139258762Y-81883644D01*
X141063411Y-83688294D01*
X141102596Y-83756165D01*
X141102596Y-83834535D01*
X141063411Y-83902406D01*
X140995540Y-83941591D01*
X140926820Y-83943841D01*
X140755917Y-83909846D01*
X140748974Y-83909755D01*
X140748973Y-83909755D01*
X140677952Y-83908825D01*
X140552795Y-83907187D01*
X140545958Y-83908362D01*
X140545956Y-83908362D01*
X140359432Y-83940413D01*
X140359430Y-83940413D01*
X140352589Y-83941589D01*
X140346076Y-83943992D01*
X140346075Y-83943992D01*
X140168518Y-84009496D01*
X140168516Y-84009497D01*
X140162005Y-84011899D01*
X140118333Y-84037881D01*
X139993386Y-84112216D01*
X139993382Y-84112219D01*
X139987425Y-84115763D01*
X139982215Y-84120332D01*
X139982211Y-84120335D01*
X139922240Y-84172928D01*
X139834696Y-84249702D01*
X139708933Y-84409232D01*
X139705704Y-84415370D01*
X139705703Y-84415371D01*
X139635413Y-84548971D01*
X139614348Y-84589008D01*
X139554109Y-84783011D01*
X139530232Y-84984743D01*
X139532429Y-85018260D01*
X139541294Y-85153509D01*
X139543518Y-85187448D01*
X139545225Y-85194170D01*
X139545226Y-85194175D01*
X139573443Y-85305276D01*
X139593522Y-85384337D01*
X139596429Y-85390642D01*
X139596429Y-85390643D01*
X139640382Y-85485984D01*
X139678568Y-85568817D01*
X139795810Y-85734710D01*
X139800780Y-85739552D01*
X139800783Y-85739555D01*
X139856027Y-85793371D01*
X139941319Y-85876459D01*
X139947094Y-85880318D01*
X139947098Y-85880321D01*
X140035918Y-85939668D01*
X140110224Y-85989318D01*
X140116605Y-85992060D01*
X140116606Y-85992060D01*
X140296841Y-86069495D01*
X140358387Y-86118014D01*
X140387428Y-86190805D01*
X140376182Y-86268364D01*
X140327663Y-86329910D01*
X140254872Y-86358951D01*
X140237077Y-86360000D01*
X138489965Y-86360000D01*
X138414265Y-86339716D01*
X138358849Y-86284300D01*
X138338565Y-86208600D01*
X138358849Y-86132900D01*
X138414265Y-86077484D01*
X138441298Y-86065235D01*
X138544810Y-86030097D01*
X138544811Y-86030097D01*
X138551379Y-86027867D01*
X138728618Y-85928609D01*
X138884800Y-85798713D01*
X139014696Y-85642531D01*
X139113954Y-85465292D01*
X139141435Y-85384337D01*
X139177021Y-85279506D01*
X139177022Y-85279503D01*
X139179252Y-85272933D01*
X139208401Y-85071895D01*
X139209922Y-85013800D01*
X139191334Y-84811512D01*
X139136194Y-84615999D01*
X139122884Y-84589008D01*
X139049418Y-84440036D01*
X139046347Y-84433808D01*
X139032580Y-84415371D01*
X138928960Y-84276608D01*
X138924804Y-84271042D01*
X138775633Y-84133150D01*
X138603832Y-84024752D01*
X138510411Y-83987481D01*
X138421597Y-83952047D01*
X138421592Y-83952046D01*
X138415154Y-83949477D01*
X138215917Y-83909846D01*
X138208974Y-83909755D01*
X138208973Y-83909755D01*
X138137952Y-83908825D01*
X138012795Y-83907187D01*
X138005958Y-83908362D01*
X138005956Y-83908362D01*
X137819432Y-83940413D01*
X137819430Y-83940413D01*
X137812589Y-83941589D01*
X137806076Y-83943992D01*
X137806075Y-83943992D01*
X137628518Y-84009496D01*
X137628516Y-84009497D01*
X137622005Y-84011899D01*
X137578333Y-84037881D01*
X137453386Y-84112216D01*
X137453382Y-84112219D01*
X137447425Y-84115763D01*
X137442215Y-84120332D01*
X137442211Y-84120335D01*
X137382240Y-84172928D01*
X137294696Y-84249702D01*
X137168933Y-84409232D01*
X137165704Y-84415370D01*
X137165703Y-84415371D01*
X137095413Y-84548971D01*
X137074348Y-84589008D01*
X137014109Y-84783011D01*
X136990232Y-84984743D01*
X136992429Y-85018260D01*
X137001294Y-85153509D01*
X137003518Y-85187448D01*
X137005225Y-85194170D01*
X137005226Y-85194175D01*
X137033443Y-85305276D01*
X137053522Y-85384337D01*
X137056429Y-85390642D01*
X137056429Y-85390643D01*
X137100382Y-85485984D01*
X137138568Y-85568817D01*
X137255810Y-85734710D01*
X137260780Y-85739552D01*
X137260783Y-85739555D01*
X137316027Y-85793371D01*
X137401319Y-85876459D01*
X137407094Y-85880318D01*
X137407098Y-85880321D01*
X137495918Y-85939668D01*
X137570224Y-85989318D01*
X137576605Y-85992060D01*
X137576606Y-85992060D01*
X137756841Y-86069495D01*
X137818387Y-86118014D01*
X137847428Y-86190805D01*
X137836182Y-86268364D01*
X137787663Y-86329910D01*
X137714872Y-86358951D01*
X137697077Y-86360000D01*
X133409965Y-86360000D01*
X133334265Y-86339716D01*
X133278849Y-86284300D01*
X133258565Y-86208600D01*
X133278849Y-86132900D01*
X133334265Y-86077484D01*
X133361298Y-86065235D01*
X133464810Y-86030097D01*
X133464811Y-86030097D01*
X133471379Y-86027867D01*
X133648618Y-85928609D01*
X133804800Y-85798713D01*
X133934696Y-85642531D01*
X134033954Y-85465292D01*
X134061435Y-85384337D01*
X134097021Y-85279506D01*
X134097022Y-85279503D01*
X134099252Y-85272933D01*
X134128401Y-85071895D01*
X134129922Y-85013800D01*
X134111334Y-84811512D01*
X134056194Y-84615999D01*
X134042884Y-84589008D01*
X133969418Y-84440036D01*
X133966347Y-84433808D01*
X133952580Y-84415371D01*
X133848960Y-84276608D01*
X133844804Y-84271042D01*
X133695633Y-84133150D01*
X133523832Y-84024752D01*
X133430411Y-83987481D01*
X133341597Y-83952047D01*
X133341592Y-83952046D01*
X133335154Y-83949477D01*
X133135917Y-83909846D01*
X133128974Y-83909755D01*
X133128973Y-83909755D01*
X133057952Y-83908825D01*
X132932795Y-83907187D01*
X132925958Y-83908362D01*
X132925956Y-83908362D01*
X132739432Y-83940413D01*
X132739430Y-83940413D01*
X132732589Y-83941589D01*
X132726076Y-83943992D01*
X132726075Y-83943992D01*
X132548518Y-84009496D01*
X132548516Y-84009497D01*
X132542005Y-84011899D01*
X132498333Y-84037881D01*
X132373386Y-84112216D01*
X132373382Y-84112219D01*
X132367425Y-84115763D01*
X132362215Y-84120332D01*
X132362211Y-84120335D01*
X132302240Y-84172928D01*
X132214696Y-84249702D01*
X132088933Y-84409232D01*
X132085704Y-84415370D01*
X132085703Y-84415371D01*
X132015413Y-84548971D01*
X131994348Y-84589008D01*
X131934109Y-84783011D01*
X131910232Y-84984743D01*
X131912429Y-85018260D01*
X131921294Y-85153509D01*
X131923518Y-85187448D01*
X131925225Y-85194170D01*
X131925226Y-85194175D01*
X131953443Y-85305276D01*
X131973522Y-85384337D01*
X131976429Y-85390642D01*
X131976429Y-85390643D01*
X132020382Y-85485984D01*
X132058568Y-85568817D01*
X132175810Y-85734710D01*
X132180780Y-85739552D01*
X132180783Y-85739555D01*
X132236027Y-85793371D01*
X132321319Y-85876459D01*
X132327094Y-85880318D01*
X132327098Y-85880321D01*
X132415918Y-85939668D01*
X132490224Y-85989318D01*
X132496605Y-85992060D01*
X132496606Y-85992060D01*
X132676841Y-86069495D01*
X132738387Y-86118014D01*
X132767428Y-86190805D01*
X132756182Y-86268364D01*
X132707663Y-86329910D01*
X132634872Y-86358951D01*
X132617077Y-86360000D01*
X130869965Y-86360000D01*
X130794265Y-86339716D01*
X130738849Y-86284300D01*
X130718565Y-86208600D01*
X130738849Y-86132900D01*
X130794265Y-86077484D01*
X130821298Y-86065235D01*
X130924810Y-86030097D01*
X130924811Y-86030097D01*
X130931379Y-86027867D01*
X131108618Y-85928609D01*
X131264800Y-85798713D01*
X131394696Y-85642531D01*
X131493954Y-85465292D01*
X131521435Y-85384337D01*
X131557021Y-85279506D01*
X131557022Y-85279503D01*
X131559252Y-85272933D01*
X131588401Y-85071895D01*
X131589922Y-85013800D01*
X131571334Y-84811512D01*
X131516194Y-84615999D01*
X131502884Y-84589008D01*
X131429418Y-84440036D01*
X131426347Y-84433808D01*
X131412580Y-84415371D01*
X131308960Y-84276608D01*
X131304804Y-84271042D01*
X131155633Y-84133150D01*
X130983832Y-84024752D01*
X130890411Y-83987481D01*
X130801597Y-83952047D01*
X130801592Y-83952046D01*
X130795154Y-83949477D01*
X130595917Y-83909846D01*
X130588974Y-83909755D01*
X130588973Y-83909755D01*
X130517952Y-83908825D01*
X130392795Y-83907187D01*
X130385958Y-83908362D01*
X130385956Y-83908362D01*
X130199432Y-83940413D01*
X130199430Y-83940413D01*
X130192589Y-83941589D01*
X130186076Y-83943992D01*
X130186075Y-83943992D01*
X130008518Y-84009496D01*
X130008516Y-84009497D01*
X130002005Y-84011899D01*
X129958333Y-84037881D01*
X129833386Y-84112216D01*
X129833382Y-84112219D01*
X129827425Y-84115763D01*
X129822215Y-84120332D01*
X129822211Y-84120335D01*
X129762240Y-84172928D01*
X129674696Y-84249702D01*
X129548933Y-84409232D01*
X129545704Y-84415370D01*
X129545703Y-84415371D01*
X129475413Y-84548971D01*
X129454348Y-84589008D01*
X129394109Y-84783011D01*
X129370232Y-84984743D01*
X129378210Y-85106459D01*
X129362921Y-85183323D01*
X129311248Y-85242245D01*
X129237036Y-85267437D01*
X129160172Y-85252148D01*
X129120078Y-85223417D01*
X129091662Y-85195001D01*
X129052477Y-85127130D01*
X129047894Y-85075393D01*
X129048401Y-85071895D01*
X129049922Y-85013800D01*
X129031334Y-84811512D01*
X128976194Y-84615999D01*
X128962884Y-84589008D01*
X128889418Y-84440036D01*
X128886347Y-84433808D01*
X128872580Y-84415371D01*
X128768960Y-84276608D01*
X128764804Y-84271042D01*
X128615633Y-84133150D01*
X128443832Y-84024752D01*
X128350411Y-83987481D01*
X128261597Y-83952047D01*
X128261592Y-83952046D01*
X128255154Y-83949477D01*
X128055917Y-83909846D01*
X128048974Y-83909755D01*
X128048973Y-83909755D01*
X127977952Y-83908825D01*
X127852795Y-83907187D01*
X127845958Y-83908362D01*
X127845956Y-83908362D01*
X127659432Y-83940413D01*
X127659430Y-83940413D01*
X127652589Y-83941589D01*
X127646076Y-83943992D01*
X127646075Y-83943992D01*
X127468518Y-84009496D01*
X127468516Y-84009497D01*
X127462005Y-84011899D01*
X127418333Y-84037881D01*
X127293386Y-84112216D01*
X127293382Y-84112219D01*
X127287425Y-84115763D01*
X127282215Y-84120332D01*
X127282211Y-84120335D01*
X127222240Y-84172928D01*
X127134696Y-84249702D01*
X127008933Y-84409232D01*
X127005704Y-84415370D01*
X127005703Y-84415371D01*
X126935413Y-84548971D01*
X126914348Y-84589008D01*
X126854109Y-84783011D01*
X126830232Y-84984743D01*
X126832429Y-85018260D01*
X126841294Y-85153509D01*
X126843518Y-85187448D01*
X126845225Y-85194170D01*
X126845226Y-85194175D01*
X126873443Y-85305276D01*
X126893522Y-85384337D01*
X126896429Y-85390642D01*
X126896429Y-85390643D01*
X126940382Y-85485984D01*
X126978568Y-85568817D01*
X127095810Y-85734710D01*
X127100780Y-85739552D01*
X127100783Y-85739555D01*
X127156027Y-85793371D01*
X127241319Y-85876459D01*
X127247094Y-85880318D01*
X127247098Y-85880321D01*
X127335918Y-85939668D01*
X127410224Y-85989318D01*
X127416605Y-85992060D01*
X127416606Y-85992060D01*
X127596841Y-86069495D01*
X127658387Y-86118014D01*
X127687428Y-86190805D01*
X127676182Y-86268364D01*
X127627663Y-86329910D01*
X127554872Y-86358951D01*
X127537077Y-86360000D01*
X126237587Y-86360000D01*
X126161887Y-86339716D01*
X126106471Y-86284300D01*
X126086187Y-86208600D01*
X126086187Y-85951730D01*
X126106471Y-85876030D01*
X126140775Y-85835328D01*
X126184800Y-85798713D01*
X126314696Y-85642531D01*
X126413954Y-85465292D01*
X126441435Y-85384337D01*
X126477021Y-85279506D01*
X126477022Y-85279503D01*
X126479252Y-85272933D01*
X126508401Y-85071895D01*
X126509922Y-85013800D01*
X126491334Y-84811512D01*
X126436194Y-84615999D01*
X126422884Y-84589008D01*
X126349418Y-84440036D01*
X126346347Y-84433808D01*
X126332580Y-84415371D01*
X126228960Y-84276608D01*
X126224804Y-84271042D01*
X126075633Y-84133150D01*
X125903832Y-84024752D01*
X125810411Y-83987481D01*
X125721597Y-83952047D01*
X125721592Y-83952046D01*
X125715154Y-83949477D01*
X125515917Y-83909846D01*
X125508974Y-83909755D01*
X125508973Y-83909755D01*
X125437952Y-83908825D01*
X125312795Y-83907187D01*
X125305958Y-83908362D01*
X125305956Y-83908362D01*
X125119432Y-83940413D01*
X125119430Y-83940413D01*
X125112589Y-83941589D01*
X125106076Y-83943992D01*
X125106075Y-83943992D01*
X124928518Y-84009496D01*
X124928516Y-84009497D01*
X124922005Y-84011899D01*
X124878333Y-84037881D01*
X124753386Y-84112216D01*
X124753382Y-84112219D01*
X124747425Y-84115763D01*
X124742215Y-84120332D01*
X124742211Y-84120335D01*
X124682240Y-84172928D01*
X124594696Y-84249702D01*
X124468933Y-84409232D01*
X124465704Y-84415370D01*
X124465703Y-84415371D01*
X124395413Y-84548971D01*
X124374348Y-84589008D01*
X124314109Y-84783011D01*
X124290232Y-84984743D01*
X124292429Y-85018260D01*
X124301294Y-85153509D01*
X124303518Y-85187448D01*
X124305225Y-85194170D01*
X124305226Y-85194175D01*
X124333443Y-85305276D01*
X124353522Y-85384337D01*
X124356429Y-85390642D01*
X124356429Y-85390643D01*
X124400382Y-85485984D01*
X124438568Y-85568817D01*
X124555810Y-85734710D01*
X124560780Y-85739551D01*
X124560788Y-85739561D01*
X124667832Y-85843838D01*
X124707903Y-85911190D01*
X124713587Y-85952286D01*
X124713587Y-86208600D01*
X124693303Y-86284300D01*
X124637887Y-86339716D01*
X124562187Y-86360000D01*
X123249965Y-86360000D01*
X123174265Y-86339716D01*
X123118849Y-86284300D01*
X123098565Y-86208600D01*
X123118849Y-86132900D01*
X123174265Y-86077484D01*
X123201298Y-86065235D01*
X123304810Y-86030097D01*
X123304811Y-86030097D01*
X123311379Y-86027867D01*
X123488618Y-85928609D01*
X123644800Y-85798713D01*
X123774696Y-85642531D01*
X123873954Y-85465292D01*
X123901435Y-85384337D01*
X123937021Y-85279506D01*
X123937022Y-85279503D01*
X123939252Y-85272933D01*
X123968401Y-85071895D01*
X123969922Y-85013800D01*
X123951334Y-84811512D01*
X123896194Y-84615999D01*
X123882884Y-84589008D01*
X123809418Y-84440036D01*
X123806347Y-84433808D01*
X123792580Y-84415371D01*
X123688960Y-84276608D01*
X123684804Y-84271042D01*
X123535633Y-84133150D01*
X123363832Y-84024752D01*
X123270411Y-83987481D01*
X123181597Y-83952047D01*
X123181592Y-83952046D01*
X123175154Y-83949477D01*
X122975917Y-83909846D01*
X122968974Y-83909755D01*
X122968973Y-83909755D01*
X122897952Y-83908825D01*
X122772795Y-83907187D01*
X122765958Y-83908362D01*
X122765956Y-83908362D01*
X122579432Y-83940413D01*
X122579430Y-83940413D01*
X122572589Y-83941589D01*
X122566076Y-83943992D01*
X122566075Y-83943992D01*
X122388518Y-84009496D01*
X122388516Y-84009497D01*
X122382005Y-84011899D01*
X122338333Y-84037881D01*
X122213386Y-84112216D01*
X122213382Y-84112219D01*
X122207425Y-84115763D01*
X122202215Y-84120332D01*
X122202211Y-84120335D01*
X122142240Y-84172928D01*
X122054696Y-84249702D01*
X121928933Y-84409232D01*
X121925704Y-84415370D01*
X121925703Y-84415371D01*
X121855413Y-84548971D01*
X121834348Y-84589008D01*
X121774109Y-84783011D01*
X121750232Y-84984743D01*
X121752429Y-85018260D01*
X121761294Y-85153509D01*
X121763518Y-85187448D01*
X121765225Y-85194170D01*
X121765226Y-85194175D01*
X121793443Y-85305276D01*
X121813522Y-85384337D01*
X121816429Y-85390642D01*
X121816429Y-85390643D01*
X121860382Y-85485984D01*
X121898568Y-85568817D01*
X122015810Y-85734710D01*
X122020780Y-85739552D01*
X122020783Y-85739555D01*
X122076027Y-85793371D01*
X122161319Y-85876459D01*
X122167094Y-85880318D01*
X122167098Y-85880321D01*
X122255918Y-85939668D01*
X122330224Y-85989318D01*
X122336605Y-85992060D01*
X122336606Y-85992060D01*
X122516841Y-86069495D01*
X122578387Y-86118014D01*
X122607428Y-86190805D01*
X122596182Y-86268364D01*
X122547663Y-86329910D01*
X122474872Y-86358951D01*
X122457077Y-86360000D01*
X120709965Y-86360000D01*
X120634265Y-86339716D01*
X120578849Y-86284300D01*
X120558565Y-86208600D01*
X120578849Y-86132900D01*
X120634265Y-86077484D01*
X120661298Y-86065235D01*
X120764810Y-86030097D01*
X120764811Y-86030097D01*
X120771379Y-86027867D01*
X120948618Y-85928609D01*
X121104800Y-85798713D01*
X121234696Y-85642531D01*
X121333954Y-85465292D01*
X121361435Y-85384337D01*
X121397021Y-85279506D01*
X121397022Y-85279503D01*
X121399252Y-85272933D01*
X121428401Y-85071895D01*
X121429922Y-85013800D01*
X121411334Y-84811512D01*
X121356194Y-84615999D01*
X121342884Y-84589008D01*
X121269418Y-84440036D01*
X121266347Y-84433808D01*
X121252580Y-84415371D01*
X121148960Y-84276608D01*
X121144804Y-84271042D01*
X120995633Y-84133150D01*
X120823832Y-84024752D01*
X120730411Y-83987481D01*
X120641597Y-83952047D01*
X120641592Y-83952046D01*
X120635154Y-83949477D01*
X120435917Y-83909846D01*
X120428974Y-83909755D01*
X120428973Y-83909755D01*
X120357952Y-83908825D01*
X120232795Y-83907187D01*
X120225958Y-83908362D01*
X120225956Y-83908362D01*
X120039432Y-83940413D01*
X120039430Y-83940413D01*
X120032589Y-83941589D01*
X120026076Y-83943992D01*
X120026075Y-83943992D01*
X119848518Y-84009496D01*
X119848516Y-84009497D01*
X119842005Y-84011899D01*
X119798333Y-84037881D01*
X119673386Y-84112216D01*
X119673382Y-84112219D01*
X119667425Y-84115763D01*
X119662215Y-84120332D01*
X119662211Y-84120335D01*
X119602240Y-84172928D01*
X119514696Y-84249702D01*
X119388933Y-84409232D01*
X119385704Y-84415370D01*
X119385703Y-84415371D01*
X119315413Y-84548971D01*
X119294348Y-84589008D01*
X119234109Y-84783011D01*
X119210232Y-84984743D01*
X119212429Y-85018260D01*
X119221294Y-85153509D01*
X119223518Y-85187448D01*
X119225225Y-85194170D01*
X119225226Y-85194175D01*
X119253443Y-85305276D01*
X119273522Y-85384337D01*
X119276429Y-85390642D01*
X119276429Y-85390643D01*
X119320382Y-85485984D01*
X119358568Y-85568817D01*
X119475810Y-85734710D01*
X119480780Y-85739552D01*
X119480783Y-85739555D01*
X119536027Y-85793371D01*
X119621319Y-85876459D01*
X119627094Y-85880318D01*
X119627098Y-85880321D01*
X119715918Y-85939668D01*
X119790224Y-85989318D01*
X119796605Y-85992060D01*
X119796606Y-85992060D01*
X119976841Y-86069495D01*
X120038387Y-86118014D01*
X120067428Y-86190805D01*
X120056182Y-86268364D01*
X120007663Y-86329910D01*
X119934872Y-86358951D01*
X119917077Y-86360000D01*
X118947700Y-86360000D01*
X118872000Y-86339716D01*
X118816584Y-86284300D01*
X118796300Y-86208600D01*
X118796300Y-83352381D01*
X118816584Y-83276681D01*
X118840644Y-83245325D01*
X120399383Y-81686587D01*
X120403960Y-81682198D01*
X120442401Y-81646850D01*
X120442402Y-81646849D01*
X120449999Y-81639863D01*
X120472710Y-81603234D01*
X120480789Y-81591480D01*
X120500608Y-81565369D01*
X120500610Y-81565365D01*
X120506851Y-81557143D01*
X120510649Y-81547550D01*
X120510652Y-81547545D01*
X120511710Y-81544872D01*
X120523801Y-81520832D01*
X120530749Y-81509626D01*
X120542773Y-81468241D01*
X120547392Y-81454751D01*
X120559463Y-81424264D01*
X120559465Y-81424257D01*
X120563262Y-81414666D01*
X120564341Y-81404402D01*
X120564342Y-81404397D01*
X120564642Y-81401545D01*
X120569822Y-81375139D01*
X120573502Y-81362472D01*
X120574300Y-81351605D01*
X120574300Y-81317587D01*
X120575129Y-81301761D01*
X120578202Y-81272527D01*
X120578202Y-81272524D01*
X120579280Y-81262267D01*
X120576420Y-81245358D01*
X120574300Y-81220109D01*
X120574300Y-80619894D01*
X120594584Y-80544194D01*
X120650000Y-80488778D01*
X120669957Y-80479130D01*
X120740162Y-80451334D01*
X120748384Y-80445093D01*
X120748386Y-80445092D01*
X120853126Y-80365589D01*
X120861348Y-80359348D01*
X120953334Y-80238162D01*
X121009341Y-80096703D01*
X121020300Y-80006144D01*
X121020300Y-79219856D01*
X121009341Y-79129297D01*
X120963935Y-79014612D01*
X120957135Y-78997438D01*
X120957135Y-78997437D01*
X120953334Y-78987838D01*
X120933702Y-78961973D01*
X120867589Y-78874874D01*
X120861348Y-78866652D01*
X120782419Y-78806741D01*
X120748386Y-78780908D01*
X120748384Y-78780907D01*
X120740162Y-78774666D01*
X120730562Y-78770865D01*
X120730560Y-78770864D01*
X120687380Y-78753768D01*
X120624462Y-78707042D01*
X120593337Y-78635118D01*
X120602345Y-78557267D01*
X120649071Y-78494349D01*
X120687380Y-78472232D01*
X120730560Y-78455136D01*
X120730562Y-78455135D01*
X120740162Y-78451334D01*
X120748384Y-78445093D01*
X120748386Y-78445092D01*
X120853126Y-78365589D01*
X120861348Y-78359348D01*
X120953334Y-78238162D01*
X120969754Y-78196690D01*
X121005760Y-78105748D01*
X121005760Y-78105747D01*
X121009341Y-78096703D01*
X121010656Y-78085841D01*
X121019752Y-78010670D01*
X121020300Y-78006144D01*
X121020300Y-77219856D01*
X121009341Y-77129297D01*
X120966225Y-77020396D01*
X120957135Y-76997438D01*
X120957135Y-76997437D01*
X120953334Y-76987838D01*
X120943433Y-76974793D01*
X120867589Y-76874874D01*
X120861348Y-76866652D01*
X120829125Y-76842193D01*
X120748386Y-76780908D01*
X120748384Y-76780907D01*
X120740162Y-76774666D01*
X120669964Y-76746873D01*
X120607049Y-76700149D01*
X120575924Y-76628224D01*
X120574300Y-76606106D01*
X120574300Y-72999894D01*
X120594584Y-72924194D01*
X120650000Y-72868778D01*
X120669957Y-72859130D01*
X120740162Y-72831334D01*
X120748384Y-72825093D01*
X120748386Y-72825092D01*
X120853126Y-72745589D01*
X120861348Y-72739348D01*
X120953334Y-72618162D01*
X121009341Y-72476703D01*
X121020300Y-72386144D01*
X121020300Y-71649856D01*
X121009341Y-71559297D01*
X120953334Y-71417838D01*
X120861348Y-71296652D01*
X120853126Y-71290411D01*
X120748386Y-71210908D01*
X120748384Y-71210907D01*
X120740162Y-71204666D01*
X120598703Y-71148659D01*
X120589045Y-71147490D01*
X120589044Y-71147490D01*
X120567027Y-71144826D01*
X120508144Y-71137700D01*
X119521856Y-71137700D01*
X119462973Y-71144826D01*
X119440956Y-71147490D01*
X119440955Y-71147490D01*
X119431297Y-71148659D01*
X119289838Y-71204666D01*
X119281616Y-71210907D01*
X119281614Y-71210908D01*
X119176874Y-71290411D01*
X119168652Y-71296652D01*
X119076666Y-71417838D01*
X119020659Y-71559297D01*
X119009700Y-71649856D01*
X119009700Y-72386144D01*
X119020659Y-72476703D01*
X119076666Y-72618162D01*
X119168652Y-72739348D01*
X119176874Y-72745589D01*
X119281614Y-72825092D01*
X119281616Y-72825093D01*
X119289838Y-72831334D01*
X119360036Y-72859127D01*
X119422951Y-72905851D01*
X119454076Y-72977776D01*
X119455700Y-72999894D01*
X119455700Y-76606106D01*
X119435416Y-76681806D01*
X119380000Y-76737222D01*
X119360043Y-76746870D01*
X119289838Y-76774666D01*
X119281616Y-76780907D01*
X119281614Y-76780908D01*
X119200875Y-76842193D01*
X119168652Y-76866652D01*
X119162411Y-76874874D01*
X119086568Y-76974793D01*
X119076666Y-76987838D01*
X119072865Y-76997437D01*
X119072865Y-76997438D01*
X119063776Y-77020396D01*
X119020659Y-77129297D01*
X119009700Y-77219856D01*
X119009700Y-78006144D01*
X119010248Y-78010670D01*
X119019345Y-78085841D01*
X119020659Y-78096703D01*
X119024240Y-78105747D01*
X119024240Y-78105748D01*
X119060246Y-78196690D01*
X119076666Y-78238162D01*
X119168652Y-78359348D01*
X119176874Y-78365589D01*
X119281614Y-78445092D01*
X119281616Y-78445093D01*
X119289838Y-78451334D01*
X119299438Y-78455135D01*
X119299440Y-78455136D01*
X119342620Y-78472232D01*
X119405538Y-78518958D01*
X119436663Y-78590882D01*
X119427655Y-78668733D01*
X119380929Y-78731651D01*
X119342620Y-78753768D01*
X119299440Y-78770864D01*
X119299438Y-78770865D01*
X119289838Y-78774666D01*
X119281616Y-78780907D01*
X119281614Y-78780908D01*
X119247581Y-78806741D01*
X119168652Y-78866652D01*
X119162411Y-78874874D01*
X119096299Y-78961973D01*
X119076666Y-78987838D01*
X119072865Y-78997437D01*
X119072865Y-78997438D01*
X119066066Y-79014612D01*
X119020659Y-79129297D01*
X119009700Y-79219856D01*
X119009700Y-80006144D01*
X119020659Y-80096703D01*
X119076666Y-80238162D01*
X119168652Y-80359348D01*
X119176874Y-80365589D01*
X119281614Y-80445092D01*
X119281616Y-80445093D01*
X119289838Y-80451334D01*
X119360036Y-80479127D01*
X119422951Y-80525851D01*
X119454076Y-80597776D01*
X119455700Y-80619894D01*
X119455700Y-80985619D01*
X119435416Y-81061319D01*
X119411356Y-81092675D01*
X117852629Y-82651402D01*
X117848053Y-82655790D01*
X117802001Y-82698137D01*
X117796563Y-82706908D01*
X117796562Y-82706909D01*
X117779287Y-82734771D01*
X117771207Y-82746527D01*
X117745149Y-82780857D01*
X117741351Y-82790450D01*
X117741349Y-82790453D01*
X117740290Y-82793128D01*
X117728200Y-82817166D01*
X117721251Y-82828374D01*
X117710765Y-82864467D01*
X117709228Y-82869756D01*
X117704608Y-82883249D01*
X117692537Y-82913736D01*
X117692535Y-82913743D01*
X117688738Y-82923334D01*
X117687659Y-82933598D01*
X117687658Y-82933603D01*
X117687358Y-82936455D01*
X117682178Y-82962861D01*
X117678498Y-82975528D01*
X117677700Y-82986395D01*
X117677700Y-83020413D01*
X117676871Y-83036239D01*
X117672720Y-83075733D01*
X59538100Y-83075733D01*
X59538100Y-81950994D01*
X75952584Y-81950994D01*
X75969902Y-82157224D01*
X76026946Y-82356161D01*
X76121545Y-82540231D01*
X76250095Y-82702420D01*
X76407699Y-82836552D01*
X76414160Y-82840163D01*
X76414163Y-82840165D01*
X76467110Y-82869756D01*
X76588354Y-82937517D01*
X76785180Y-83001469D01*
X76792526Y-83002345D01*
X76792531Y-83002346D01*
X76944052Y-83020413D01*
X76990680Y-83025973D01*
X76998062Y-83025405D01*
X76998064Y-83025405D01*
X77125710Y-83015583D01*
X77197025Y-83010096D01*
X77396356Y-82954442D01*
X77581081Y-82861130D01*
X77744164Y-82733716D01*
X77879392Y-82577052D01*
X77883048Y-82570616D01*
X77883051Y-82570612D01*
X77977956Y-82403548D01*
X77981616Y-82397106D01*
X78046941Y-82200731D01*
X78072880Y-81995408D01*
X78073293Y-81965800D01*
X78060870Y-81839096D01*
X78053821Y-81767205D01*
X78053821Y-81767203D01*
X78053098Y-81759833D01*
X77993281Y-81561711D01*
X77927086Y-81437215D01*
X77899594Y-81385509D01*
X77899592Y-81385505D01*
X77896122Y-81378980D01*
X77765320Y-81218602D01*
X77605859Y-81086684D01*
X77534927Y-81048331D01*
X77430320Y-80991770D01*
X77430317Y-80991769D01*
X77423811Y-80988251D01*
X77416742Y-80986063D01*
X77416740Y-80986062D01*
X77233184Y-80929242D01*
X77233180Y-80929241D01*
X77226111Y-80927053D01*
X77218755Y-80926280D01*
X77218751Y-80926279D01*
X77027647Y-80906193D01*
X77027644Y-80906193D01*
X77020290Y-80905420D01*
X76814187Y-80924177D01*
X76807083Y-80926268D01*
X76807082Y-80926268D01*
X76791918Y-80930731D01*
X76615652Y-80982609D01*
X76432248Y-81078490D01*
X76270960Y-81208169D01*
X76137932Y-81366706D01*
X76134366Y-81373193D01*
X76134365Y-81373194D01*
X76054539Y-81518397D01*
X76038230Y-81548062D01*
X75975653Y-81745329D01*
X75974828Y-81752687D01*
X75974827Y-81752690D01*
X75969997Y-81795749D01*
X75952584Y-81950994D01*
X59538100Y-81950994D01*
X59538100Y-80680994D01*
X78492584Y-80680994D01*
X78509902Y-80887224D01*
X78511944Y-80894344D01*
X78511944Y-80894346D01*
X78515312Y-80906091D01*
X78566946Y-81086161D01*
X78661545Y-81270231D01*
X78790095Y-81432420D01*
X78947699Y-81566552D01*
X78954160Y-81570163D01*
X78954163Y-81570165D01*
X79075601Y-81638034D01*
X79128354Y-81667517D01*
X79325180Y-81731469D01*
X79332526Y-81732345D01*
X79332531Y-81732346D01*
X79488551Y-81750950D01*
X79530680Y-81755973D01*
X79538062Y-81755405D01*
X79538064Y-81755405D01*
X79669014Y-81745329D01*
X79737025Y-81740096D01*
X79936356Y-81684442D01*
X80121081Y-81591130D01*
X80284164Y-81463716D01*
X80419392Y-81307052D01*
X80423048Y-81300616D01*
X80423051Y-81300612D01*
X80517956Y-81133548D01*
X80521616Y-81127106D01*
X80586941Y-80930731D01*
X80612880Y-80725408D01*
X80613293Y-80695800D01*
X80611120Y-80673634D01*
X80593821Y-80497205D01*
X80593821Y-80497203D01*
X80593098Y-80489833D01*
X80533281Y-80291711D01*
X80436122Y-80108980D01*
X80305320Y-79948602D01*
X80145859Y-79816684D01*
X80049567Y-79764619D01*
X79970320Y-79721770D01*
X79970317Y-79721769D01*
X79963811Y-79718251D01*
X79956742Y-79716063D01*
X79956740Y-79716062D01*
X79773184Y-79659242D01*
X79773180Y-79659241D01*
X79766111Y-79657053D01*
X79758755Y-79656280D01*
X79758751Y-79656279D01*
X79567647Y-79636193D01*
X79567644Y-79636193D01*
X79560290Y-79635420D01*
X79354187Y-79654177D01*
X79347083Y-79656268D01*
X79347082Y-79656268D01*
X79162760Y-79710517D01*
X79155652Y-79712609D01*
X79138129Y-79721770D01*
X78981212Y-79803804D01*
X78972248Y-79808490D01*
X78810960Y-79938169D01*
X78677932Y-80096706D01*
X78578230Y-80278062D01*
X78515653Y-80475329D01*
X78514828Y-80482687D01*
X78514827Y-80482690D01*
X78505859Y-80562644D01*
X78492584Y-80680994D01*
X59538100Y-80680994D01*
X59538100Y-78140994D01*
X78492584Y-78140994D01*
X78509902Y-78347224D01*
X78566946Y-78546161D01*
X78661545Y-78730231D01*
X78790095Y-78892420D01*
X78947699Y-79026552D01*
X78954160Y-79030163D01*
X78954163Y-79030165D01*
X79075601Y-79098034D01*
X79128354Y-79127517D01*
X79325180Y-79191469D01*
X79332526Y-79192345D01*
X79332531Y-79192346D01*
X79488551Y-79210950D01*
X79530680Y-79215973D01*
X79538062Y-79215405D01*
X79538064Y-79215405D01*
X79665710Y-79205583D01*
X79737025Y-79200096D01*
X79936356Y-79144442D01*
X80121081Y-79051130D01*
X80255519Y-78946096D01*
X80278329Y-78928275D01*
X80278330Y-78928274D01*
X80284164Y-78923716D01*
X80419392Y-78767052D01*
X80423048Y-78760616D01*
X80423051Y-78760612D01*
X80488880Y-78644731D01*
X80521616Y-78587106D01*
X80586941Y-78390731D01*
X80612880Y-78185408D01*
X80613293Y-78155800D01*
X80610703Y-78129382D01*
X80593821Y-77957205D01*
X80593821Y-77957203D01*
X80593098Y-77949833D01*
X80574126Y-77886994D01*
X107919584Y-77886994D01*
X107936902Y-78093224D01*
X107993946Y-78292161D01*
X108088545Y-78476231D01*
X108217095Y-78638420D01*
X108374699Y-78772552D01*
X108381160Y-78776163D01*
X108381163Y-78776165D01*
X108484786Y-78834078D01*
X108555354Y-78873517D01*
X108752180Y-78937469D01*
X108759526Y-78938345D01*
X108759531Y-78938346D01*
X108915551Y-78956950D01*
X108957680Y-78961973D01*
X108965062Y-78961405D01*
X108965064Y-78961405D01*
X109092710Y-78951583D01*
X109164025Y-78946096D01*
X109363356Y-78890442D01*
X109548081Y-78797130D01*
X109711164Y-78669716D01*
X109846392Y-78513052D01*
X109850048Y-78506616D01*
X109850051Y-78506612D01*
X109911888Y-78397759D01*
X109948616Y-78333106D01*
X110013941Y-78136731D01*
X110039880Y-77931408D01*
X110040293Y-77901800D01*
X110038841Y-77886994D01*
X112799584Y-77886994D01*
X112816902Y-78093224D01*
X112873946Y-78292161D01*
X112968545Y-78476231D01*
X113097095Y-78638420D01*
X113254699Y-78772552D01*
X113261160Y-78776163D01*
X113261163Y-78776165D01*
X113364786Y-78834078D01*
X113435354Y-78873517D01*
X113632180Y-78937469D01*
X113639526Y-78938345D01*
X113639531Y-78938346D01*
X113795551Y-78956950D01*
X113837680Y-78961973D01*
X113845062Y-78961405D01*
X113845064Y-78961405D01*
X113972710Y-78951583D01*
X114044025Y-78946096D01*
X114243356Y-78890442D01*
X114428081Y-78797130D01*
X114591164Y-78669716D01*
X114726392Y-78513052D01*
X114730048Y-78506616D01*
X114730051Y-78506612D01*
X114791888Y-78397759D01*
X114828616Y-78333106D01*
X114893941Y-78136731D01*
X114919880Y-77931408D01*
X114920293Y-77901800D01*
X114912003Y-77817247D01*
X114900821Y-77703205D01*
X114900821Y-77703203D01*
X114900098Y-77695833D01*
X114840281Y-77497711D01*
X114774100Y-77373242D01*
X114746594Y-77321509D01*
X114746592Y-77321505D01*
X114743122Y-77314980D01*
X114612320Y-77154602D01*
X114452859Y-77022684D01*
X114407190Y-76997991D01*
X114277320Y-76927770D01*
X114277317Y-76927769D01*
X114270811Y-76924251D01*
X114263742Y-76922063D01*
X114263740Y-76922062D01*
X114080184Y-76865242D01*
X114080180Y-76865241D01*
X114073111Y-76863053D01*
X114065755Y-76862280D01*
X114065751Y-76862279D01*
X113874647Y-76842193D01*
X113874644Y-76842193D01*
X113867290Y-76841420D01*
X113661187Y-76860177D01*
X113654083Y-76862268D01*
X113654082Y-76862268D01*
X113611251Y-76874874D01*
X113462652Y-76918609D01*
X113279248Y-77014490D01*
X113117960Y-77144169D01*
X112984932Y-77302706D01*
X112981366Y-77309193D01*
X112981365Y-77309194D01*
X112913714Y-77432251D01*
X112885230Y-77484062D01*
X112822653Y-77681329D01*
X112821828Y-77688687D01*
X112821827Y-77688690D01*
X112819072Y-77713256D01*
X112799584Y-77886994D01*
X110038841Y-77886994D01*
X110032003Y-77817247D01*
X110020821Y-77703205D01*
X110020821Y-77703203D01*
X110020098Y-77695833D01*
X109960281Y-77497711D01*
X109894100Y-77373242D01*
X109866594Y-77321509D01*
X109866592Y-77321505D01*
X109863122Y-77314980D01*
X109732320Y-77154602D01*
X109572859Y-77022684D01*
X109527190Y-76997991D01*
X109397320Y-76927770D01*
X109397317Y-76927769D01*
X109390811Y-76924251D01*
X109383742Y-76922063D01*
X109383740Y-76922062D01*
X109200184Y-76865242D01*
X109200180Y-76865241D01*
X109193111Y-76863053D01*
X109185755Y-76862280D01*
X109185751Y-76862279D01*
X108994647Y-76842193D01*
X108994644Y-76842193D01*
X108987290Y-76841420D01*
X108781187Y-76860177D01*
X108774083Y-76862268D01*
X108774082Y-76862268D01*
X108731251Y-76874874D01*
X108582652Y-76918609D01*
X108399248Y-77014490D01*
X108237960Y-77144169D01*
X108104932Y-77302706D01*
X108101366Y-77309193D01*
X108101365Y-77309194D01*
X108033714Y-77432251D01*
X108005230Y-77484062D01*
X107942653Y-77681329D01*
X107941828Y-77688687D01*
X107941827Y-77688690D01*
X107939072Y-77713256D01*
X107919584Y-77886994D01*
X80574126Y-77886994D01*
X80533281Y-77751711D01*
X80472594Y-77637574D01*
X80439594Y-77575509D01*
X80439592Y-77575505D01*
X80436122Y-77568980D01*
X80305320Y-77408602D01*
X80145859Y-77276684D01*
X80040758Y-77219856D01*
X79970320Y-77181770D01*
X79970317Y-77181769D01*
X79963811Y-77178251D01*
X79956742Y-77176063D01*
X79956740Y-77176062D01*
X79773184Y-77119242D01*
X79773180Y-77119241D01*
X79766111Y-77117053D01*
X79758755Y-77116280D01*
X79758751Y-77116279D01*
X79567647Y-77096193D01*
X79567644Y-77096193D01*
X79560290Y-77095420D01*
X79354187Y-77114177D01*
X79347083Y-77116268D01*
X79347082Y-77116268D01*
X79197352Y-77160336D01*
X79155652Y-77172609D01*
X78972248Y-77268490D01*
X78810960Y-77398169D01*
X78677932Y-77556706D01*
X78674366Y-77563193D01*
X78674365Y-77563194D01*
X78589445Y-77717663D01*
X78578230Y-77738062D01*
X78515653Y-77935329D01*
X78492584Y-78140994D01*
X59538100Y-78140994D01*
X59538100Y-75593440D01*
X68527726Y-75593440D01*
X68544446Y-75883421D01*
X68545435Y-75888464D01*
X68545436Y-75888469D01*
X68573811Y-76033096D01*
X68600367Y-76168451D01*
X68694453Y-76443254D01*
X68758442Y-76570482D01*
X68818664Y-76690220D01*
X68824963Y-76702745D01*
X68827884Y-76706995D01*
X68982507Y-76931971D01*
X68989484Y-76942123D01*
X69184969Y-77156959D01*
X69407802Y-77343276D01*
X69653860Y-77497628D01*
X69658557Y-77499749D01*
X69658563Y-77499752D01*
X69811887Y-77568980D01*
X69918589Y-77617158D01*
X69923534Y-77618623D01*
X69923540Y-77618625D01*
X70063773Y-77660163D01*
X70197091Y-77699654D01*
X70202182Y-77700433D01*
X70479119Y-77742810D01*
X70479124Y-77742810D01*
X70484212Y-77743589D01*
X70489366Y-77743670D01*
X70581657Y-77745120D01*
X70774639Y-77748152D01*
X70779753Y-77747533D01*
X70779756Y-77747533D01*
X70911621Y-77731575D01*
X71062998Y-77713256D01*
X71185349Y-77681158D01*
X75957587Y-77681158D01*
X75960754Y-77707778D01*
X75974206Y-77738062D01*
X76001248Y-77798944D01*
X76001250Y-77798946D01*
X76006923Y-77811719D01*
X76016814Y-77821593D01*
X76016815Y-77821594D01*
X76024744Y-77829509D01*
X76087415Y-77892070D01*
X76118996Y-77906032D01*
X76169299Y-77928271D01*
X76191436Y-77938058D01*
X76202743Y-77939376D01*
X76202746Y-77939377D01*
X76208979Y-77940103D01*
X76217529Y-77941100D01*
X77808245Y-77941100D01*
X77822728Y-77939377D01*
X77823586Y-77939275D01*
X77823587Y-77939275D01*
X77834865Y-77937933D01*
X77883011Y-77916547D01*
X77926031Y-77897439D01*
X77926033Y-77897437D01*
X77938806Y-77891764D01*
X78019157Y-77811272D01*
X78065145Y-77707251D01*
X78066477Y-77695833D01*
X78067677Y-77685530D01*
X78068187Y-77681158D01*
X78068187Y-76090442D01*
X78065020Y-76063822D01*
X78024728Y-75973111D01*
X78024526Y-75972656D01*
X78024524Y-75972654D01*
X78018851Y-75959881D01*
X78008784Y-75949831D01*
X77948250Y-75889404D01*
X77938359Y-75879530D01*
X77834338Y-75833542D01*
X77823031Y-75832224D01*
X77823028Y-75832223D01*
X77816795Y-75831497D01*
X77808245Y-75830500D01*
X76217529Y-75830500D01*
X76205176Y-75831970D01*
X76202188Y-75832325D01*
X76202187Y-75832325D01*
X76190909Y-75833667D01*
X76162356Y-75846350D01*
X76099743Y-75874161D01*
X76099741Y-75874163D01*
X76086968Y-75879836D01*
X76006617Y-75960328D01*
X75960629Y-76064349D01*
X75957587Y-76090442D01*
X75957587Y-77681158D01*
X71185349Y-77681158D01*
X71343954Y-77639549D01*
X71348718Y-77637576D01*
X71348723Y-77637574D01*
X71528292Y-77563194D01*
X71612307Y-77528394D01*
X71616759Y-77525793D01*
X71616762Y-77525791D01*
X71780581Y-77430062D01*
X71863091Y-77381847D01*
X71867148Y-77378666D01*
X72087606Y-77205806D01*
X72087613Y-77205800D01*
X72091667Y-77202621D01*
X72293804Y-76994032D01*
X72307937Y-76974793D01*
X72392623Y-76859506D01*
X72465762Y-76759939D01*
X72537309Y-76628166D01*
X72601898Y-76509208D01*
X72601899Y-76509205D01*
X72604359Y-76504675D01*
X72707030Y-76232963D01*
X72771876Y-75949831D01*
X72797697Y-75660518D01*
X72798165Y-75615800D01*
X72785664Y-75432423D01*
X72778760Y-75331154D01*
X72778759Y-75331149D01*
X72778409Y-75326010D01*
X72719507Y-75041581D01*
X72622548Y-74767779D01*
X72489327Y-74509668D01*
X72322310Y-74272026D01*
X72306231Y-74254723D01*
X72128097Y-74063028D01*
X72128094Y-74063026D01*
X72124585Y-74059249D01*
X72110553Y-74047764D01*
X71903798Y-73878537D01*
X71903792Y-73878533D01*
X71899813Y-73875276D01*
X71817868Y-73825060D01*
X71656545Y-73726200D01*
X71656540Y-73726197D01*
X71652153Y-73723509D01*
X71634822Y-73715901D01*
X71390906Y-73608829D01*
X71390900Y-73608827D01*
X71386187Y-73606758D01*
X71359985Y-73599294D01*
X71324114Y-73589076D01*
X71106836Y-73527183D01*
X71034114Y-73516833D01*
X70824375Y-73486982D01*
X70824369Y-73486982D01*
X70819271Y-73486256D01*
X70528812Y-73484735D01*
X70240834Y-73522649D01*
X70235856Y-73524011D01*
X70235855Y-73524011D01*
X70144022Y-73549134D01*
X69960665Y-73599294D01*
X69693491Y-73713253D01*
X69444255Y-73862418D01*
X69330362Y-73953664D01*
X69221590Y-74040806D01*
X69221585Y-74040810D01*
X69217569Y-74044028D01*
X69214028Y-74047759D01*
X69214023Y-74047764D01*
X69021174Y-74250985D01*
X69017627Y-74254723D01*
X68848130Y-74490603D01*
X68712213Y-74747304D01*
X68612393Y-75020076D01*
X68602257Y-75066565D01*
X68560516Y-75258009D01*
X68550516Y-75303872D01*
X68527726Y-75593440D01*
X59538100Y-75593440D01*
X59538100Y-68690520D01*
X69293015Y-68690520D01*
X69293773Y-68696087D01*
X69293773Y-68696093D01*
X69328442Y-68950833D01*
X69329199Y-68956395D01*
X69404284Y-69214002D01*
X69516622Y-69457681D01*
X69663743Y-69682079D01*
X69842417Y-69882265D01*
X70048717Y-70053844D01*
X70278113Y-70193044D01*
X70328102Y-70214006D01*
X70520374Y-70294633D01*
X70520378Y-70294634D01*
X70525564Y-70296809D01*
X70531016Y-70298194D01*
X70531020Y-70298195D01*
X70722960Y-70346942D01*
X70785634Y-70362859D01*
X70791226Y-70363422D01*
X70791231Y-70363423D01*
X71004718Y-70384920D01*
X71004726Y-70384920D01*
X71008496Y-70385300D01*
X71168118Y-70385300D01*
X71367589Y-70370477D01*
X71373062Y-70369239D01*
X71373066Y-70369238D01*
X71498444Y-70340867D01*
X71629299Y-70311258D01*
X71662891Y-70298195D01*
X71874140Y-70216044D01*
X71879381Y-70214006D01*
X72112342Y-70080858D01*
X72323063Y-69914739D01*
X72326907Y-69910652D01*
X72326911Y-69910649D01*
X72503062Y-69723395D01*
X72503063Y-69723394D01*
X72506916Y-69719298D01*
X72529833Y-69686264D01*
X72656659Y-69503444D01*
X72656660Y-69503442D01*
X72659861Y-69498828D01*
X72778538Y-69258174D01*
X72860342Y-69002621D01*
X72903473Y-68737783D01*
X72904092Y-68690520D01*
X132940015Y-68690520D01*
X132940773Y-68696087D01*
X132940773Y-68696093D01*
X132975442Y-68950833D01*
X132976199Y-68956395D01*
X133051284Y-69214002D01*
X133163622Y-69457681D01*
X133310743Y-69682079D01*
X133489417Y-69882265D01*
X133695717Y-70053844D01*
X133925113Y-70193044D01*
X133975102Y-70214006D01*
X134167374Y-70294633D01*
X134167378Y-70294634D01*
X134172564Y-70296809D01*
X134178016Y-70298194D01*
X134178020Y-70298195D01*
X134369960Y-70346942D01*
X134432634Y-70362859D01*
X134438226Y-70363422D01*
X134438231Y-70363423D01*
X134651718Y-70384920D01*
X134651726Y-70384920D01*
X134655496Y-70385300D01*
X134815118Y-70385300D01*
X135014589Y-70370477D01*
X135020062Y-70369239D01*
X135020066Y-70369238D01*
X135145444Y-70340867D01*
X135276299Y-70311258D01*
X135309891Y-70298195D01*
X135521140Y-70216044D01*
X135526381Y-70214006D01*
X135759342Y-70080858D01*
X135970063Y-69914739D01*
X135973907Y-69910652D01*
X135973911Y-69910649D01*
X136150062Y-69723395D01*
X136150063Y-69723394D01*
X136153916Y-69719298D01*
X136176833Y-69686264D01*
X136303659Y-69503444D01*
X136303660Y-69503442D01*
X136306861Y-69498828D01*
X136425538Y-69258174D01*
X136507342Y-69002621D01*
X136550473Y-68737783D01*
X136551166Y-68684896D01*
X136553911Y-68475104D01*
X136553985Y-68469480D01*
X136546798Y-68416666D01*
X136518558Y-68209167D01*
X136518558Y-68209166D01*
X136517801Y-68203605D01*
X136442716Y-67945998D01*
X136330378Y-67702319D01*
X136183257Y-67477921D01*
X136004583Y-67277735D01*
X135798283Y-67106156D01*
X135568887Y-66966956D01*
X135423036Y-66905796D01*
X135326626Y-66865367D01*
X135326622Y-66865366D01*
X135321436Y-66863191D01*
X135315984Y-66861806D01*
X135315980Y-66861805D01*
X135066819Y-66798526D01*
X135066820Y-66798526D01*
X135061366Y-66797141D01*
X135055774Y-66796578D01*
X135055769Y-66796577D01*
X134842282Y-66775080D01*
X134842274Y-66775080D01*
X134838504Y-66774700D01*
X134678882Y-66774700D01*
X134479411Y-66789523D01*
X134473938Y-66790761D01*
X134473934Y-66790762D01*
X134348556Y-66819133D01*
X134217701Y-66848742D01*
X134212467Y-66850777D01*
X134212465Y-66850778D01*
X134174950Y-66865367D01*
X133967619Y-66945994D01*
X133734658Y-67079142D01*
X133523937Y-67245261D01*
X133520093Y-67249348D01*
X133520089Y-67249351D01*
X133343938Y-67436605D01*
X133340084Y-67440702D01*
X133336878Y-67445324D01*
X133336876Y-67445326D01*
X133190341Y-67656556D01*
X133187139Y-67661172D01*
X133068462Y-67901826D01*
X132986658Y-68157379D01*
X132943527Y-68422217D01*
X132943453Y-68427833D01*
X132943453Y-68427839D01*
X132941716Y-68560608D01*
X132940015Y-68690520D01*
X72904092Y-68690520D01*
X72904166Y-68684896D01*
X72906911Y-68475104D01*
X72906985Y-68469480D01*
X72899798Y-68416666D01*
X72871558Y-68209167D01*
X72871558Y-68209166D01*
X72870801Y-68203605D01*
X72795716Y-67945998D01*
X72683378Y-67702319D01*
X72536257Y-67477921D01*
X72357583Y-67277735D01*
X72151283Y-67106156D01*
X71921887Y-66966956D01*
X71776036Y-66905796D01*
X71679626Y-66865367D01*
X71679622Y-66865366D01*
X71674436Y-66863191D01*
X71668984Y-66861806D01*
X71668980Y-66861805D01*
X71419819Y-66798526D01*
X71419820Y-66798526D01*
X71414366Y-66797141D01*
X71408774Y-66796578D01*
X71408769Y-66796577D01*
X71195282Y-66775080D01*
X71195274Y-66775080D01*
X71191504Y-66774700D01*
X71031882Y-66774700D01*
X70832411Y-66789523D01*
X70826938Y-66790761D01*
X70826934Y-66790762D01*
X70701556Y-66819133D01*
X70570701Y-66848742D01*
X70565467Y-66850777D01*
X70565465Y-66850778D01*
X70527950Y-66865367D01*
X70320619Y-66945994D01*
X70087658Y-67079142D01*
X69876937Y-67245261D01*
X69873093Y-67249348D01*
X69873089Y-67249351D01*
X69696938Y-67436605D01*
X69693084Y-67440702D01*
X69689878Y-67445324D01*
X69689876Y-67445326D01*
X69543341Y-67656556D01*
X69540139Y-67661172D01*
X69421462Y-67901826D01*
X69339658Y-68157379D01*
X69296527Y-68422217D01*
X69296453Y-68427833D01*
X69296453Y-68427839D01*
X69294716Y-68560608D01*
X69293015Y-68690520D01*
X59538100Y-68690520D01*
X59538100Y-64096199D01*
X59558384Y-64020499D01*
X59613800Y-63965083D01*
X59689500Y-63944799D01*
X160012130Y-63944799D01*
X160087830Y-63965083D01*
G37*
%TD.AperFunction*%
%TD*%
M02*
