M48
; DRILL file {KiCad (6.0.4)} date Mon Jun 20 19:16:04 2022
; FORMAT={-:-/ absolute / inch / decimal}
; #@! TF.CreationDate,2022-06-20T19:16:04-03:00
; #@! TF.GenerationSoftware,Kicad,Pcbnew,(6.0.4)
; #@! TF.FileFunction,Plated,1,2,PTH
FMAT,2
INCH
; #@! TA.AperFunction,Plated,PTH,ViaDrill
T1C0.0315
; #@! TA.AperFunction,Plated,PTH,ComponentDrill
T2C0.0315
; #@! TA.AperFunction,Plated,PTH,ComponentDrill
T3C0.0394
; #@! TA.AperFunction,Plated,PTH,ComponentDrill
T4C0.0591
%
G90
G05
T1
X3.235Y-3.505
X3.235Y-3.785
X3.306Y-3.855
X3.3065Y-3.6324
X3.365Y-3.505
X3.822Y-4.084
X3.895Y-3.89
X3.99Y-3.415
X4.605Y-3.695
X4.761Y-4.085
X4.81Y-3.7505
X5.6339Y-4.4331
X6.174Y-3.788
X6.2008Y-3.5157
X6.3785Y-3.24
X6.415Y-4.195
X6.43Y-3.5
X6.43Y-3.91
X6.595Y-3.335
X6.595Y-3.845
X6.685Y-3.675
X6.85Y-3.26
X6.86Y-3.7
X6.987Y-3.869
X6.987Y-3.949
X6.987Y-4.029
X6.987Y-4.109
X6.99Y-3.295
X6.99Y-3.375
X6.99Y-3.455
X6.99Y-3.535
X7.052Y-3.869
X7.052Y-3.949
X7.052Y-4.029
X7.052Y-4.109
X7.055Y-3.295
X7.055Y-3.375
X7.055Y-3.455
X7.055Y-3.535
X7.117Y-3.869
X7.117Y-3.949
X7.117Y-4.029
X7.117Y-4.109
X7.12Y-3.295
X7.12Y-3.375
X7.12Y-3.455
X7.12Y-3.535
X7.182Y-3.869
X7.182Y-3.949
X7.182Y-4.029
X7.182Y-4.109
X7.185Y-3.295
X7.185Y-3.375
X7.185Y-3.455
X7.185Y-3.535
X7.247Y-3.869
X7.247Y-3.949
X7.247Y-4.029
X7.247Y-4.109
X7.25Y-3.295
X7.25Y-3.375
X7.25Y-3.455
X7.25Y-3.535
X7.365Y-3.065
X7.365Y-3.14
X7.395Y-3.21
X7.46Y-3.28
X7.465Y-3.065
X7.465Y-3.14
X7.485Y-3.21
X7.52Y-3.335
T2
X4.2905Y-3.067
X4.4827Y-3.067
X4.737Y-3.347
X4.737Y-3.647
X4.837Y-3.347
X4.837Y-3.647
X4.937Y-3.347
X4.937Y-3.647
X5.037Y-3.347
X5.037Y-3.647
X5.042Y-3.087
X5.137Y-3.347
X5.137Y-3.647
X5.2341Y-3.087
X5.237Y-3.347
X5.237Y-3.647
X5.337Y-3.347
X5.337Y-3.647
X5.437Y-3.347
X5.437Y-3.647
X5.537Y-3.347
X5.537Y-3.647
X5.637Y-3.347
X5.637Y-3.647
X5.737Y-3.347
X5.737Y-3.647
X5.837Y-3.347
X5.837Y-3.647
X5.937Y-3.347
X5.937Y-3.647
X6.037Y-3.347
X6.037Y-3.647
T3
X3.0309Y-3.8472
X3.0309Y-3.9472
X3.0309Y-4.0472
X3.0309Y-4.1472
X3.032Y-3.027
X3.032Y-3.127
X3.032Y-3.227
X3.032Y-3.327
X3.1309Y-3.8972
X3.1309Y-3.9972
X3.1309Y-4.0972
X3.1309Y-4.1972
X3.132Y-3.077
X3.132Y-3.177
X3.132Y-3.277
X3.132Y-3.377
X5.7324Y-2.987
X5.8324Y-2.987
X5.9324Y-2.987
X6.0324Y-2.987
T4
X2.901Y-3.7171
X2.901Y-4.3273
X2.9021Y-2.8969
X2.9021Y-3.5071
X5.848Y-4.434
X6.048Y-4.434
X6.248Y-4.434
X7.652Y-3.812
X7.652Y-4.012
X7.6533Y-3.202
X7.6533Y-3.402
T0
M30
