%FSLAX45Y45*%
G04 Gerber Fmt 4.5, Leading zero omitted, Abs format (unit mm)*
G04 Created by KiCad (PCBNEW (6.0.4)) date 2022-06-21 16:57:30*
%MOMM*%
%LPD*%
G01*
G04 APERTURE LIST*
%TA.AperFunction,Profile*%
%ADD10C,0.100000*%
%TD*%
%ADD11C,0.200000*%
%ADD12C,0.080000*%
%ADD13C,0.100000*%
%ADD14C,0.150000*%
G04 APERTURE END LIST*
D10*
X20320000Y-12311350D02*
X5923280Y-12311350D01*
X5923280Y-6363950D01*
X20320000Y-6363950D01*
X20320000Y-12311350D01*
D11*
D12*
X8176900Y-8862700D02*
X8256900Y-8942700D01*
X8256900Y-8862700D02*
X8176900Y-8942700D01*
X8176900Y-9573900D02*
X8256900Y-9653900D01*
X8256900Y-9573900D02*
X8176900Y-9653900D01*
X8357240Y-9751670D02*
X8437240Y-9831670D01*
X8437240Y-9751670D02*
X8357240Y-9831670D01*
X8358589Y-9186379D02*
X8438589Y-9266379D01*
X8438589Y-9186379D02*
X8358589Y-9266379D01*
X8507100Y-8862700D02*
X8587100Y-8942700D01*
X8587100Y-8862700D02*
X8507100Y-8942700D01*
X9894511Y-9848620D02*
X9974511Y-9928620D01*
X9974511Y-9848620D02*
X9894511Y-9928620D01*
X10084111Y-8377720D02*
X10164111Y-8457720D01*
X10164111Y-8377720D02*
X10084111Y-8457720D01*
X11584511Y-9078620D02*
X11664511Y-9158620D01*
X11664511Y-9078620D02*
X11584511Y-9158620D01*
X11789511Y-9583620D02*
X11869511Y-9663620D01*
X11869511Y-9583620D02*
X11789511Y-9663620D01*
X12042451Y-10079520D02*
X12122451Y-10159520D01*
X12122451Y-10079520D02*
X12042451Y-10159520D01*
X12069511Y-9346877D02*
X12149511Y-9426877D01*
X12149511Y-9346877D02*
X12069511Y-9426877D01*
X12548240Y-10546720D02*
X12628240Y-10626720D01*
X12628240Y-10546720D02*
X12548240Y-10626720D01*
X12654511Y-8573620D02*
X12734511Y-8653620D01*
X12734511Y-8573620D02*
X12654511Y-8653620D01*
X12929511Y-8488620D02*
X13009511Y-8568620D01*
X13009511Y-8488620D02*
X12929511Y-8568620D01*
X13142600Y-9215760D02*
X13222600Y-9295760D01*
X13222600Y-9215760D02*
X13142600Y-9295760D01*
X13422000Y-11517000D02*
X13502000Y-11597000D01*
X13502000Y-11517000D02*
X13422000Y-11597000D01*
X14006200Y-9469760D02*
X14086200Y-9549760D01*
X14086200Y-9469760D02*
X14006200Y-9549760D01*
X14064511Y-7918620D02*
X14144511Y-7998620D01*
X14144511Y-7918620D02*
X14064511Y-7998620D01*
X14463400Y-9205600D02*
X14543400Y-9285600D01*
X14543400Y-9205600D02*
X14463400Y-9285600D01*
X14773280Y-9200520D02*
X14853280Y-9280520D01*
X14853280Y-9200520D02*
X14773280Y-9280520D01*
X15614020Y-10607680D02*
X15694020Y-10687680D01*
X15694020Y-10607680D02*
X15614020Y-10687680D01*
X15616560Y-11298560D02*
X15696560Y-11378560D01*
X15696560Y-11298560D02*
X15616560Y-11378560D01*
X15644500Y-8583300D02*
X15724500Y-8663300D01*
X15724500Y-8583300D02*
X15644500Y-8663300D01*
X15728320Y-9876160D02*
X15808320Y-9956160D01*
X15808320Y-9876160D02*
X15728320Y-9956160D01*
X15771500Y-9434200D02*
X15851500Y-9514200D01*
X15851500Y-9434200D02*
X15771500Y-9514200D01*
X15771500Y-10894700D02*
X15851500Y-10974700D01*
X15851500Y-10894700D02*
X15771500Y-10974700D01*
X16190600Y-7959225D02*
X16270600Y-8039225D01*
X16270600Y-7959225D02*
X16190600Y-8039225D01*
X16292200Y-8850000D02*
X16372200Y-8930000D01*
X16372200Y-8850000D02*
X16292200Y-8930000D01*
X16292200Y-9891400D02*
X16372200Y-9971400D01*
X16372200Y-9891400D02*
X16292200Y-9971400D01*
X16597000Y-7996560D02*
X16677000Y-8076560D01*
X16677000Y-7996560D02*
X16597000Y-8076560D01*
X16660500Y-10607680D02*
X16740500Y-10687680D01*
X16740500Y-10607680D02*
X16660500Y-10687680D01*
X16711300Y-8430900D02*
X16791300Y-8510900D01*
X16791300Y-8430900D02*
X16711300Y-8510900D01*
X16711300Y-9726300D02*
X16791300Y-9806300D01*
X16791300Y-9726300D02*
X16711300Y-9806300D01*
X16787500Y-10891838D02*
X16867500Y-10971838D01*
X16867500Y-10891838D02*
X16787500Y-10971838D01*
X16939900Y-9294500D02*
X17019900Y-9374500D01*
X17019900Y-9294500D02*
X16939900Y-9374500D01*
X17359000Y-8240400D02*
X17439000Y-8320400D01*
X17439000Y-8240400D02*
X17359000Y-8320400D01*
X17384400Y-9358000D02*
X17464400Y-9438000D01*
X17464400Y-9358000D02*
X17384400Y-9438000D01*
X17706980Y-9787230D02*
X17786980Y-9867230D01*
X17786980Y-9787230D02*
X17706980Y-9867230D01*
X17706980Y-9990430D02*
X17786980Y-10070430D01*
X17786980Y-9990430D02*
X17706980Y-10070430D01*
X17706980Y-10193630D02*
X17786980Y-10273630D01*
X17786980Y-10193630D02*
X17706980Y-10273630D01*
X17706980Y-10396830D02*
X17786980Y-10476830D01*
X17786980Y-10396830D02*
X17706980Y-10476830D01*
X17714600Y-8329270D02*
X17794600Y-8409270D01*
X17794600Y-8329270D02*
X17714600Y-8409270D01*
X17714600Y-8532470D02*
X17794600Y-8612470D01*
X17794600Y-8532470D02*
X17714600Y-8612470D01*
X17714600Y-8735670D02*
X17794600Y-8815670D01*
X17794600Y-8735670D02*
X17714600Y-8815670D01*
X17714600Y-8938870D02*
X17794600Y-9018870D01*
X17794600Y-8938870D02*
X17714600Y-9018870D01*
X17872080Y-9787230D02*
X17952080Y-9867230D01*
X17952080Y-9787230D02*
X17872080Y-9867230D01*
X17872080Y-9990430D02*
X17952080Y-10070430D01*
X17952080Y-9990430D02*
X17872080Y-10070430D01*
X17872080Y-10193630D02*
X17952080Y-10273630D01*
X17952080Y-10193630D02*
X17872080Y-10273630D01*
X17872080Y-10396830D02*
X17952080Y-10476830D01*
X17952080Y-10396830D02*
X17872080Y-10476830D01*
X17879700Y-8329270D02*
X17959700Y-8409270D01*
X17959700Y-8329270D02*
X17879700Y-8409270D01*
X17879700Y-8532470D02*
X17959700Y-8612470D01*
X17959700Y-8532470D02*
X17879700Y-8612470D01*
X17879700Y-8735670D02*
X17959700Y-8815670D01*
X17959700Y-8735670D02*
X17879700Y-8815670D01*
X17879700Y-8938870D02*
X17959700Y-9018870D01*
X17959700Y-8938870D02*
X17879700Y-9018870D01*
X18037180Y-9787230D02*
X18117180Y-9867230D01*
X18117180Y-9787230D02*
X18037180Y-9867230D01*
X18037180Y-9990430D02*
X18117180Y-10070430D01*
X18117180Y-9990430D02*
X18037180Y-10070430D01*
X18037180Y-10193630D02*
X18117180Y-10273630D01*
X18117180Y-10193630D02*
X18037180Y-10273630D01*
X18037180Y-10396830D02*
X18117180Y-10476830D01*
X18117180Y-10396830D02*
X18037180Y-10476830D01*
X18044800Y-8329270D02*
X18124800Y-8409270D01*
X18124800Y-8329270D02*
X18044800Y-8409270D01*
X18044800Y-8532470D02*
X18124800Y-8612470D01*
X18124800Y-8532470D02*
X18044800Y-8612470D01*
X18044800Y-8735670D02*
X18124800Y-8815670D01*
X18124800Y-8735670D02*
X18044800Y-8815670D01*
X18044800Y-8938870D02*
X18124800Y-9018870D01*
X18124800Y-8938870D02*
X18044800Y-9018870D01*
X18202280Y-9787230D02*
X18282280Y-9867230D01*
X18282280Y-9787230D02*
X18202280Y-9867230D01*
X18202280Y-9990430D02*
X18282280Y-10070430D01*
X18282280Y-9990430D02*
X18202280Y-10070430D01*
X18202280Y-10193630D02*
X18282280Y-10273630D01*
X18282280Y-10193630D02*
X18202280Y-10273630D01*
X18202280Y-10396830D02*
X18282280Y-10476830D01*
X18282280Y-10396830D02*
X18202280Y-10476830D01*
X18209900Y-8329270D02*
X18289900Y-8409270D01*
X18289900Y-8329270D02*
X18209900Y-8409270D01*
X18209900Y-8532470D02*
X18289900Y-8612470D01*
X18289900Y-8532470D02*
X18209900Y-8612470D01*
X18209900Y-8735670D02*
X18289900Y-8815670D01*
X18289900Y-8735670D02*
X18209900Y-8815670D01*
X18209900Y-8938870D02*
X18289900Y-9018870D01*
X18289900Y-8938870D02*
X18209900Y-9018870D01*
X18367380Y-9787230D02*
X18447380Y-9867230D01*
X18447380Y-9787230D02*
X18367380Y-9867230D01*
X18367380Y-9990430D02*
X18447380Y-10070430D01*
X18447380Y-9990430D02*
X18367380Y-10070430D01*
X18367380Y-10193630D02*
X18447380Y-10273630D01*
X18447380Y-10193630D02*
X18367380Y-10273630D01*
X18367380Y-10396830D02*
X18447380Y-10476830D01*
X18447380Y-10396830D02*
X18367380Y-10476830D01*
X18375000Y-8329270D02*
X18455000Y-8409270D01*
X18455000Y-8329270D02*
X18375000Y-8409270D01*
X18375000Y-8532470D02*
X18455000Y-8612470D01*
X18455000Y-8532470D02*
X18375000Y-8612470D01*
X18375000Y-8735670D02*
X18455000Y-8815670D01*
X18455000Y-8735670D02*
X18375000Y-8815670D01*
X18375000Y-8938870D02*
X18455000Y-9018870D01*
X18455000Y-8938870D02*
X18375000Y-9018870D01*
X18667100Y-7745100D02*
X18747100Y-7825100D01*
X18747100Y-7745100D02*
X18667100Y-7825100D01*
X18667100Y-7935600D02*
X18747100Y-8015600D01*
X18747100Y-7935600D02*
X18667100Y-8015600D01*
X18743300Y-8113400D02*
X18823300Y-8193400D01*
X18823300Y-8113400D02*
X18743300Y-8193400D01*
X18908400Y-8291200D02*
X18988400Y-8371200D01*
X18988400Y-8291200D02*
X18908400Y-8371200D01*
X18921100Y-7745100D02*
X19001100Y-7825100D01*
X19001100Y-7745100D02*
X18921100Y-7825100D01*
X18921100Y-7935600D02*
X19001100Y-8015600D01*
X19001100Y-7935600D02*
X18921100Y-8015600D01*
X18971900Y-8113400D02*
X19051900Y-8193400D01*
X19051900Y-8113400D02*
X18971900Y-8193400D01*
X19060800Y-8430900D02*
X19140800Y-8510900D01*
X19140800Y-8430900D02*
X19060800Y-8510900D01*
X10927500Y-7533800D02*
G75*
G03*
X10927500Y-7533800I-40000J0D01*
G01*
X11415500Y-7533800D02*
G75*
G03*
X11415500Y-7533800I-40000J0D01*
G01*
X12061500Y-8245000D02*
G75*
G03*
X12061500Y-8245000I-40000J0D01*
G01*
X12061500Y-9007000D02*
G75*
G03*
X12061500Y-9007000I-40000J0D01*
G01*
X12315500Y-8245000D02*
G75*
G03*
X12315500Y-8245000I-40000J0D01*
G01*
X12315500Y-9007000D02*
G75*
G03*
X12315500Y-9007000I-40000J0D01*
G01*
X12569500Y-8245000D02*
G75*
G03*
X12569500Y-8245000I-40000J0D01*
G01*
X12569500Y-9007000D02*
G75*
G03*
X12569500Y-9007000I-40000J0D01*
G01*
X12823500Y-8245000D02*
G75*
G03*
X12823500Y-8245000I-40000J0D01*
G01*
X12823500Y-9007000D02*
G75*
G03*
X12823500Y-9007000I-40000J0D01*
G01*
X12836200Y-7584600D02*
G75*
G03*
X12836200Y-7584600I-40000J0D01*
G01*
X13077500Y-8245000D02*
G75*
G03*
X13077500Y-8245000I-40000J0D01*
G01*
X13077500Y-9007000D02*
G75*
G03*
X13077500Y-9007000I-40000J0D01*
G01*
X13324200Y-7584600D02*
G75*
G03*
X13324200Y-7584600I-40000J0D01*
G01*
X13331500Y-8245000D02*
G75*
G03*
X13331500Y-8245000I-40000J0D01*
G01*
X13331500Y-9007000D02*
G75*
G03*
X13331500Y-9007000I-40000J0D01*
G01*
X13585500Y-8245000D02*
G75*
G03*
X13585500Y-8245000I-40000J0D01*
G01*
X13585500Y-9007000D02*
G75*
G03*
X13585500Y-9007000I-40000J0D01*
G01*
X13839500Y-8245000D02*
G75*
G03*
X13839500Y-8245000I-40000J0D01*
G01*
X13839500Y-9007000D02*
G75*
G03*
X13839500Y-9007000I-40000J0D01*
G01*
X14093500Y-8245000D02*
G75*
G03*
X14093500Y-8245000I-40000J0D01*
G01*
X14093500Y-9007000D02*
G75*
G03*
X14093500Y-9007000I-40000J0D01*
G01*
X14347500Y-8245000D02*
G75*
G03*
X14347500Y-8245000I-40000J0D01*
G01*
X14347500Y-9007000D02*
G75*
G03*
X14347500Y-9007000I-40000J0D01*
G01*
X14601500Y-8245000D02*
G75*
G03*
X14601500Y-8245000I-40000J0D01*
G01*
X14601500Y-9007000D02*
G75*
G03*
X14601500Y-9007000I-40000J0D01*
G01*
X14855500Y-8245000D02*
G75*
G03*
X14855500Y-8245000I-40000J0D01*
G01*
X14855500Y-9007000D02*
G75*
G03*
X14855500Y-9007000I-40000J0D01*
G01*
X15109500Y-8245000D02*
G75*
G03*
X15109500Y-8245000I-40000J0D01*
G01*
X15109500Y-9007000D02*
G75*
G03*
X15109500Y-9007000I-40000J0D01*
G01*
X15363500Y-8245000D02*
G75*
G03*
X15363500Y-8245000I-40000J0D01*
G01*
X15363500Y-9007000D02*
G75*
G03*
X15363500Y-9007000I-40000J0D01*
G01*
D13*
X7698589Y-9800500D02*
X7698589Y-9900500D01*
X7648589Y-9850500D02*
X7748589Y-9850500D01*
X7698589Y-10054500D02*
X7698589Y-10154500D01*
X7648589Y-10104500D02*
X7748589Y-10104500D01*
X7698589Y-10308500D02*
X7698589Y-10408500D01*
X7648589Y-10358500D02*
X7748589Y-10358500D01*
X7698589Y-10562500D02*
X7698589Y-10662500D01*
X7648589Y-10612500D02*
X7748589Y-10612500D01*
X7700400Y-7750500D02*
X7700400Y-7850500D01*
X7650400Y-7800500D02*
X7750400Y-7800500D01*
X7700400Y-8004500D02*
X7700400Y-8104500D01*
X7650400Y-8054500D02*
X7750400Y-8054500D01*
X7700400Y-8258500D02*
X7700400Y-8358500D01*
X7650400Y-8308500D02*
X7750400Y-8308500D01*
X7700400Y-8512500D02*
X7700400Y-8612500D01*
X7650400Y-8562500D02*
X7750400Y-8562500D01*
X7952589Y-9927500D02*
X7952589Y-10027500D01*
X7902589Y-9977500D02*
X8002589Y-9977500D01*
X7952589Y-10181500D02*
X7952589Y-10281500D01*
X7902589Y-10231500D02*
X8002589Y-10231500D01*
X7952589Y-10435500D02*
X7952589Y-10535500D01*
X7902589Y-10485500D02*
X8002589Y-10485500D01*
X7952589Y-10689500D02*
X7952589Y-10789500D01*
X7902589Y-10739500D02*
X8002589Y-10739500D01*
X7954400Y-7877500D02*
X7954400Y-7977500D01*
X7904400Y-7927500D02*
X8004400Y-7927500D01*
X7954400Y-8131500D02*
X7954400Y-8231500D01*
X7904400Y-8181500D02*
X8004400Y-8181500D01*
X7954400Y-8385500D02*
X7954400Y-8485500D01*
X7904400Y-8435500D02*
X8004400Y-8435500D01*
X7954400Y-8639500D02*
X7954400Y-8739500D01*
X7904400Y-8689500D02*
X8004400Y-8689500D01*
X14549800Y-7280600D02*
X14549800Y-7380600D01*
X14499800Y-7330600D02*
X14599800Y-7330600D01*
X14803800Y-7280600D02*
X14803800Y-7380600D01*
X14753800Y-7330600D02*
X14853800Y-7330600D01*
X15057800Y-7280600D02*
X15057800Y-7380600D01*
X15007800Y-7330600D02*
X15107800Y-7330600D01*
X15311800Y-7280600D02*
X15311800Y-7380600D01*
X15261800Y-7330600D02*
X15361800Y-7330600D01*
D14*
X7421622Y-9573034D02*
X7421622Y-9466967D01*
X7315555Y-9466967D01*
X7315555Y-9573034D01*
X7421622Y-9573034D01*
X7421622Y-11123034D02*
X7421622Y-11016967D01*
X7315555Y-11016967D01*
X7315555Y-11123034D01*
X7421622Y-11123034D01*
X7423433Y-7523033D02*
X7423433Y-7416966D01*
X7317366Y-7416966D01*
X7317366Y-7523033D01*
X7423433Y-7523033D01*
X7423433Y-9073034D02*
X7423433Y-8966967D01*
X7317366Y-8966967D01*
X7317366Y-9073034D01*
X7423433Y-9073034D01*
X14135033Y-11325283D02*
X14135033Y-11219216D01*
X14028966Y-11219216D01*
X14028966Y-11325283D01*
X14135033Y-11325283D01*
X14643033Y-11325283D02*
X14643033Y-11219216D01*
X14536966Y-11219216D01*
X14536966Y-11325283D01*
X14643033Y-11325283D01*
X15151033Y-11325283D02*
X15151033Y-11219216D01*
X15044966Y-11219216D01*
X15044966Y-11325283D01*
X15151033Y-11325283D01*
X19489114Y-9735514D02*
X19489114Y-9629447D01*
X19383047Y-9629447D01*
X19383047Y-9735514D01*
X19489114Y-9735514D01*
X19489114Y-10243514D02*
X19489114Y-10137447D01*
X19383047Y-10137447D01*
X19383047Y-10243514D01*
X19489114Y-10243514D01*
X19492364Y-8186113D02*
X19492364Y-8080046D01*
X19386297Y-8080046D01*
X19386297Y-8186113D01*
X19492364Y-8186113D01*
X19492364Y-8694114D02*
X19492364Y-8588047D01*
X19386297Y-8588047D01*
X19386297Y-8694114D01*
X19492364Y-8694114D01*
D11*
X6175899Y-12626826D02*
X6175899Y-12426826D01*
X6223518Y-12426826D01*
X6252089Y-12436350D01*
X6271137Y-12455397D01*
X6280661Y-12474445D01*
X6290185Y-12512540D01*
X6290185Y-12541112D01*
X6280661Y-12579207D01*
X6271137Y-12598255D01*
X6252089Y-12617302D01*
X6223518Y-12626826D01*
X6175899Y-12626826D01*
X6375899Y-12626826D02*
X6375899Y-12493493D01*
X6375899Y-12531588D02*
X6385423Y-12512540D01*
X6394947Y-12503016D01*
X6413994Y-12493493D01*
X6433042Y-12493493D01*
X6499708Y-12626826D02*
X6499708Y-12493493D01*
X6499708Y-12426826D02*
X6490185Y-12436350D01*
X6499708Y-12445874D01*
X6509232Y-12436350D01*
X6499708Y-12426826D01*
X6499708Y-12445874D01*
X6623518Y-12626826D02*
X6604470Y-12617302D01*
X6594947Y-12598255D01*
X6594947Y-12426826D01*
X6728280Y-12626826D02*
X6709232Y-12617302D01*
X6699708Y-12598255D01*
X6699708Y-12426826D01*
X6956851Y-12626826D02*
X6956851Y-12426826D01*
X7023518Y-12569683D01*
X7090185Y-12426826D01*
X7090185Y-12626826D01*
X7271137Y-12626826D02*
X7271137Y-12522064D01*
X7261613Y-12503016D01*
X7242566Y-12493493D01*
X7204470Y-12493493D01*
X7185423Y-12503016D01*
X7271137Y-12617302D02*
X7252089Y-12626826D01*
X7204470Y-12626826D01*
X7185423Y-12617302D01*
X7175899Y-12598255D01*
X7175899Y-12579207D01*
X7185423Y-12560159D01*
X7204470Y-12550636D01*
X7252089Y-12550636D01*
X7271137Y-12541112D01*
X7366375Y-12493493D02*
X7366375Y-12693493D01*
X7366375Y-12503016D02*
X7385423Y-12493493D01*
X7423518Y-12493493D01*
X7442566Y-12503016D01*
X7452089Y-12512540D01*
X7461613Y-12531588D01*
X7461613Y-12588731D01*
X7452089Y-12607778D01*
X7442566Y-12617302D01*
X7423518Y-12626826D01*
X7385423Y-12626826D01*
X7366375Y-12617302D01*
X7547328Y-12607778D02*
X7556851Y-12617302D01*
X7547328Y-12626826D01*
X7537804Y-12617302D01*
X7547328Y-12607778D01*
X7547328Y-12626826D01*
X7547328Y-12503016D02*
X7556851Y-12512540D01*
X7547328Y-12522064D01*
X7537804Y-12512540D01*
X7547328Y-12503016D01*
X7547328Y-12522064D01*
D12*
X5838280Y-12916350D02*
X5918280Y-12996350D01*
X5918280Y-12916350D02*
X5838280Y-12996350D01*
D11*
X6213994Y-12846826D02*
X6233042Y-12846826D01*
X6252089Y-12856350D01*
X6261613Y-12865874D01*
X6271137Y-12884921D01*
X6280661Y-12923016D01*
X6280661Y-12970636D01*
X6271137Y-13008731D01*
X6261613Y-13027778D01*
X6252089Y-13037302D01*
X6233042Y-13046826D01*
X6213994Y-13046826D01*
X6194947Y-13037302D01*
X6185423Y-13027778D01*
X6175899Y-13008731D01*
X6166375Y-12970636D01*
X6166375Y-12923016D01*
X6175899Y-12884921D01*
X6185423Y-12865874D01*
X6194947Y-12856350D01*
X6213994Y-12846826D01*
X6366375Y-13027778D02*
X6375899Y-13037302D01*
X6366375Y-13046826D01*
X6356851Y-13037302D01*
X6366375Y-13027778D01*
X6366375Y-13046826D01*
X6490185Y-12932540D02*
X6471137Y-12923016D01*
X6461613Y-12913493D01*
X6452089Y-12894445D01*
X6452089Y-12884921D01*
X6461613Y-12865874D01*
X6471137Y-12856350D01*
X6490185Y-12846826D01*
X6528280Y-12846826D01*
X6547328Y-12856350D01*
X6556851Y-12865874D01*
X6566375Y-12884921D01*
X6566375Y-12894445D01*
X6556851Y-12913493D01*
X6547328Y-12923016D01*
X6528280Y-12932540D01*
X6490185Y-12932540D01*
X6471137Y-12942064D01*
X6461613Y-12951588D01*
X6452089Y-12970636D01*
X6452089Y-13008731D01*
X6461613Y-13027778D01*
X6471137Y-13037302D01*
X6490185Y-13046826D01*
X6528280Y-13046826D01*
X6547328Y-13037302D01*
X6556851Y-13027778D01*
X6566375Y-13008731D01*
X6566375Y-12970636D01*
X6556851Y-12951588D01*
X6547328Y-12942064D01*
X6528280Y-12932540D01*
X6690185Y-12846826D02*
X6709232Y-12846826D01*
X6728280Y-12856350D01*
X6737804Y-12865874D01*
X6747328Y-12884921D01*
X6756851Y-12923016D01*
X6756851Y-12970636D01*
X6747328Y-13008731D01*
X6737804Y-13027778D01*
X6728280Y-13037302D01*
X6709232Y-13046826D01*
X6690185Y-13046826D01*
X6671137Y-13037302D01*
X6661613Y-13027778D01*
X6652089Y-13008731D01*
X6642566Y-12970636D01*
X6642566Y-12923016D01*
X6652089Y-12884921D01*
X6661613Y-12865874D01*
X6671137Y-12856350D01*
X6690185Y-12846826D01*
X6880661Y-12846826D02*
X6899708Y-12846826D01*
X6918756Y-12856350D01*
X6928280Y-12865874D01*
X6937804Y-12884921D01*
X6947328Y-12923016D01*
X6947328Y-12970636D01*
X6937804Y-13008731D01*
X6928280Y-13027778D01*
X6918756Y-13037302D01*
X6899708Y-13046826D01*
X6880661Y-13046826D01*
X6861613Y-13037302D01*
X6852089Y-13027778D01*
X6842566Y-13008731D01*
X6833042Y-12970636D01*
X6833042Y-12923016D01*
X6842566Y-12884921D01*
X6852089Y-12865874D01*
X6861613Y-12856350D01*
X6880661Y-12846826D01*
X7033042Y-13046826D02*
X7033042Y-12913493D01*
X7033042Y-12932540D02*
X7042566Y-12923016D01*
X7061613Y-12913493D01*
X7090185Y-12913493D01*
X7109232Y-12923016D01*
X7118756Y-12942064D01*
X7118756Y-13046826D01*
X7118756Y-12942064D02*
X7128280Y-12923016D01*
X7147328Y-12913493D01*
X7175899Y-12913493D01*
X7194947Y-12923016D01*
X7204470Y-12942064D01*
X7204470Y-13046826D01*
X7299708Y-13046826D02*
X7299708Y-12913493D01*
X7299708Y-12932540D02*
X7309232Y-12923016D01*
X7328280Y-12913493D01*
X7356851Y-12913493D01*
X7375899Y-12923016D01*
X7385423Y-12942064D01*
X7385423Y-13046826D01*
X7385423Y-12942064D02*
X7394947Y-12923016D01*
X7413994Y-12913493D01*
X7442566Y-12913493D01*
X7461613Y-12923016D01*
X7471137Y-12942064D01*
X7471137Y-13046826D01*
X7861613Y-12837302D02*
X7690185Y-13094445D01*
X8118756Y-12846826D02*
X8137804Y-12846826D01*
X8156851Y-12856350D01*
X8166375Y-12865874D01*
X8175899Y-12884921D01*
X8185423Y-12923016D01*
X8185423Y-12970636D01*
X8175899Y-13008731D01*
X8166375Y-13027778D01*
X8156851Y-13037302D01*
X8137804Y-13046826D01*
X8118756Y-13046826D01*
X8099708Y-13037302D01*
X8090185Y-13027778D01*
X8080661Y-13008731D01*
X8071137Y-12970636D01*
X8071137Y-12923016D01*
X8080661Y-12884921D01*
X8090185Y-12865874D01*
X8099708Y-12856350D01*
X8118756Y-12846826D01*
X8271137Y-13027778D02*
X8280661Y-13037302D01*
X8271137Y-13046826D01*
X8261613Y-13037302D01*
X8271137Y-13027778D01*
X8271137Y-13046826D01*
X8404470Y-12846826D02*
X8423518Y-12846826D01*
X8442566Y-12856350D01*
X8452090Y-12865874D01*
X8461613Y-12884921D01*
X8471137Y-12923016D01*
X8471137Y-12970636D01*
X8461613Y-13008731D01*
X8452090Y-13027778D01*
X8442566Y-13037302D01*
X8423518Y-13046826D01*
X8404470Y-13046826D01*
X8385423Y-13037302D01*
X8375899Y-13027778D01*
X8366375Y-13008731D01*
X8356851Y-12970636D01*
X8356851Y-12923016D01*
X8366375Y-12884921D01*
X8375899Y-12865874D01*
X8385423Y-12856350D01*
X8404470Y-12846826D01*
X8537804Y-12846826D02*
X8661613Y-12846826D01*
X8594947Y-12923016D01*
X8623518Y-12923016D01*
X8642566Y-12932540D01*
X8652090Y-12942064D01*
X8661613Y-12961112D01*
X8661613Y-13008731D01*
X8652090Y-13027778D01*
X8642566Y-13037302D01*
X8623518Y-13046826D01*
X8566375Y-13046826D01*
X8547328Y-13037302D01*
X8537804Y-13027778D01*
X8852090Y-13046826D02*
X8737804Y-13046826D01*
X8794947Y-13046826D02*
X8794947Y-12846826D01*
X8775899Y-12875397D01*
X8756851Y-12894445D01*
X8737804Y-12903969D01*
X9033042Y-12846826D02*
X8937804Y-12846826D01*
X8928280Y-12942064D01*
X8937804Y-12932540D01*
X8956851Y-12923016D01*
X9004470Y-12923016D01*
X9023518Y-12932540D01*
X9033042Y-12942064D01*
X9042566Y-12961112D01*
X9042566Y-13008731D01*
X9033042Y-13027778D01*
X9023518Y-13037302D01*
X9004470Y-13046826D01*
X8956851Y-13046826D01*
X8937804Y-13037302D01*
X8928280Y-13027778D01*
X9118756Y-12846826D02*
X9118756Y-12884921D01*
X9194947Y-12846826D02*
X9194947Y-12884921D01*
X9490185Y-13123016D02*
X9480661Y-13113493D01*
X9461613Y-13084921D01*
X9452090Y-13065874D01*
X9442566Y-13037302D01*
X9433042Y-12989683D01*
X9433042Y-12951588D01*
X9442566Y-12903969D01*
X9452090Y-12875397D01*
X9461613Y-12856350D01*
X9480661Y-12827778D01*
X9490185Y-12818255D01*
X9594947Y-12932540D02*
X9575899Y-12923016D01*
X9566375Y-12913493D01*
X9556851Y-12894445D01*
X9556851Y-12884921D01*
X9566375Y-12865874D01*
X9575899Y-12856350D01*
X9594947Y-12846826D01*
X9633042Y-12846826D01*
X9652090Y-12856350D01*
X9661613Y-12865874D01*
X9671137Y-12884921D01*
X9671137Y-12894445D01*
X9661613Y-12913493D01*
X9652090Y-12923016D01*
X9633042Y-12932540D01*
X9594947Y-12932540D01*
X9575899Y-12942064D01*
X9566375Y-12951588D01*
X9556851Y-12970636D01*
X9556851Y-13008731D01*
X9566375Y-13027778D01*
X9575899Y-13037302D01*
X9594947Y-13046826D01*
X9633042Y-13046826D01*
X9652090Y-13037302D01*
X9661613Y-13027778D01*
X9671137Y-13008731D01*
X9671137Y-12970636D01*
X9661613Y-12951588D01*
X9652090Y-12942064D01*
X9633042Y-12932540D01*
X9852090Y-12846826D02*
X9756851Y-12846826D01*
X9747328Y-12942064D01*
X9756851Y-12932540D01*
X9775899Y-12923016D01*
X9823518Y-12923016D01*
X9842566Y-12932540D01*
X9852090Y-12942064D01*
X9861613Y-12961112D01*
X9861613Y-13008731D01*
X9852090Y-13027778D01*
X9842566Y-13037302D01*
X9823518Y-13046826D01*
X9775899Y-13046826D01*
X9756851Y-13037302D01*
X9747328Y-13027778D01*
X10099709Y-13046826D02*
X10099709Y-12846826D01*
X10185423Y-13046826D02*
X10185423Y-12942064D01*
X10175899Y-12923016D01*
X10156851Y-12913493D01*
X10128280Y-12913493D01*
X10109232Y-12923016D01*
X10099709Y-12932540D01*
X10309232Y-13046826D02*
X10290185Y-13037302D01*
X10280661Y-13027778D01*
X10271137Y-13008731D01*
X10271137Y-12951588D01*
X10280661Y-12932540D01*
X10290185Y-12923016D01*
X10309232Y-12913493D01*
X10337804Y-12913493D01*
X10356851Y-12923016D01*
X10366375Y-12932540D01*
X10375899Y-12951588D01*
X10375899Y-13008731D01*
X10366375Y-13027778D01*
X10356851Y-13037302D01*
X10337804Y-13046826D01*
X10309232Y-13046826D01*
X10490185Y-13046826D02*
X10471137Y-13037302D01*
X10461613Y-13018255D01*
X10461613Y-12846826D01*
X10642566Y-13037302D02*
X10623518Y-13046826D01*
X10585423Y-13046826D01*
X10566375Y-13037302D01*
X10556851Y-13018255D01*
X10556851Y-12942064D01*
X10566375Y-12923016D01*
X10585423Y-12913493D01*
X10623518Y-12913493D01*
X10642566Y-12923016D01*
X10652090Y-12942064D01*
X10652090Y-12961112D01*
X10556851Y-12980159D01*
X10728280Y-13037302D02*
X10747328Y-13046826D01*
X10785423Y-13046826D01*
X10804470Y-13037302D01*
X10813994Y-13018255D01*
X10813994Y-13008731D01*
X10804470Y-12989683D01*
X10785423Y-12980159D01*
X10756851Y-12980159D01*
X10737804Y-12970636D01*
X10728280Y-12951588D01*
X10728280Y-12942064D01*
X10737804Y-12923016D01*
X10756851Y-12913493D01*
X10785423Y-12913493D01*
X10804470Y-12923016D01*
X10880661Y-13123016D02*
X10890185Y-13113493D01*
X10909232Y-13084921D01*
X10918756Y-13065874D01*
X10928280Y-13037302D01*
X10937804Y-12989683D01*
X10937804Y-12951588D01*
X10928280Y-12903969D01*
X10918756Y-12875397D01*
X10909232Y-12856350D01*
X10890185Y-12827778D01*
X10880661Y-12818255D01*
D12*
X5918280Y-13220350D02*
G75*
G03*
X5918280Y-13220350I-40000J0D01*
G01*
D11*
X6213994Y-13110826D02*
X6233042Y-13110826D01*
X6252089Y-13120350D01*
X6261613Y-13129874D01*
X6271137Y-13148921D01*
X6280661Y-13187016D01*
X6280661Y-13234636D01*
X6271137Y-13272731D01*
X6261613Y-13291778D01*
X6252089Y-13301302D01*
X6233042Y-13310826D01*
X6213994Y-13310826D01*
X6194947Y-13301302D01*
X6185423Y-13291778D01*
X6175899Y-13272731D01*
X6166375Y-13234636D01*
X6166375Y-13187016D01*
X6175899Y-13148921D01*
X6185423Y-13129874D01*
X6194947Y-13120350D01*
X6213994Y-13110826D01*
X6366375Y-13291778D02*
X6375899Y-13301302D01*
X6366375Y-13310826D01*
X6356851Y-13301302D01*
X6366375Y-13291778D01*
X6366375Y-13310826D01*
X6490185Y-13196540D02*
X6471137Y-13187016D01*
X6461613Y-13177493D01*
X6452089Y-13158445D01*
X6452089Y-13148921D01*
X6461613Y-13129874D01*
X6471137Y-13120350D01*
X6490185Y-13110826D01*
X6528280Y-13110826D01*
X6547328Y-13120350D01*
X6556851Y-13129874D01*
X6566375Y-13148921D01*
X6566375Y-13158445D01*
X6556851Y-13177493D01*
X6547328Y-13187016D01*
X6528280Y-13196540D01*
X6490185Y-13196540D01*
X6471137Y-13206064D01*
X6461613Y-13215588D01*
X6452089Y-13234636D01*
X6452089Y-13272731D01*
X6461613Y-13291778D01*
X6471137Y-13301302D01*
X6490185Y-13310826D01*
X6528280Y-13310826D01*
X6547328Y-13301302D01*
X6556851Y-13291778D01*
X6566375Y-13272731D01*
X6566375Y-13234636D01*
X6556851Y-13215588D01*
X6547328Y-13206064D01*
X6528280Y-13196540D01*
X6690185Y-13110826D02*
X6709232Y-13110826D01*
X6728280Y-13120350D01*
X6737804Y-13129874D01*
X6747328Y-13148921D01*
X6756851Y-13187016D01*
X6756851Y-13234636D01*
X6747328Y-13272731D01*
X6737804Y-13291778D01*
X6728280Y-13301302D01*
X6709232Y-13310826D01*
X6690185Y-13310826D01*
X6671137Y-13301302D01*
X6661613Y-13291778D01*
X6652089Y-13272731D01*
X6642566Y-13234636D01*
X6642566Y-13187016D01*
X6652089Y-13148921D01*
X6661613Y-13129874D01*
X6671137Y-13120350D01*
X6690185Y-13110826D01*
X6880661Y-13110826D02*
X6899708Y-13110826D01*
X6918756Y-13120350D01*
X6928280Y-13129874D01*
X6937804Y-13148921D01*
X6947328Y-13187016D01*
X6947328Y-13234636D01*
X6937804Y-13272731D01*
X6928280Y-13291778D01*
X6918756Y-13301302D01*
X6899708Y-13310826D01*
X6880661Y-13310826D01*
X6861613Y-13301302D01*
X6852089Y-13291778D01*
X6842566Y-13272731D01*
X6833042Y-13234636D01*
X6833042Y-13187016D01*
X6842566Y-13148921D01*
X6852089Y-13129874D01*
X6861613Y-13120350D01*
X6880661Y-13110826D01*
X7033042Y-13310826D02*
X7033042Y-13177493D01*
X7033042Y-13196540D02*
X7042566Y-13187016D01*
X7061613Y-13177493D01*
X7090185Y-13177493D01*
X7109232Y-13187016D01*
X7118756Y-13206064D01*
X7118756Y-13310826D01*
X7118756Y-13206064D02*
X7128280Y-13187016D01*
X7147328Y-13177493D01*
X7175899Y-13177493D01*
X7194947Y-13187016D01*
X7204470Y-13206064D01*
X7204470Y-13310826D01*
X7299708Y-13310826D02*
X7299708Y-13177493D01*
X7299708Y-13196540D02*
X7309232Y-13187016D01*
X7328280Y-13177493D01*
X7356851Y-13177493D01*
X7375899Y-13187016D01*
X7385423Y-13206064D01*
X7385423Y-13310826D01*
X7385423Y-13206064D02*
X7394947Y-13187016D01*
X7413994Y-13177493D01*
X7442566Y-13177493D01*
X7461613Y-13187016D01*
X7471137Y-13206064D01*
X7471137Y-13310826D01*
X7861613Y-13101302D02*
X7690185Y-13358445D01*
X8118756Y-13110826D02*
X8137804Y-13110826D01*
X8156851Y-13120350D01*
X8166375Y-13129874D01*
X8175899Y-13148921D01*
X8185423Y-13187016D01*
X8185423Y-13234636D01*
X8175899Y-13272731D01*
X8166375Y-13291778D01*
X8156851Y-13301302D01*
X8137804Y-13310826D01*
X8118756Y-13310826D01*
X8099708Y-13301302D01*
X8090185Y-13291778D01*
X8080661Y-13272731D01*
X8071137Y-13234636D01*
X8071137Y-13187016D01*
X8080661Y-13148921D01*
X8090185Y-13129874D01*
X8099708Y-13120350D01*
X8118756Y-13110826D01*
X8271137Y-13291778D02*
X8280661Y-13301302D01*
X8271137Y-13310826D01*
X8261613Y-13301302D01*
X8271137Y-13291778D01*
X8271137Y-13310826D01*
X8404470Y-13110826D02*
X8423518Y-13110826D01*
X8442566Y-13120350D01*
X8452090Y-13129874D01*
X8461613Y-13148921D01*
X8471137Y-13187016D01*
X8471137Y-13234636D01*
X8461613Y-13272731D01*
X8452090Y-13291778D01*
X8442566Y-13301302D01*
X8423518Y-13310826D01*
X8404470Y-13310826D01*
X8385423Y-13301302D01*
X8375899Y-13291778D01*
X8366375Y-13272731D01*
X8356851Y-13234636D01*
X8356851Y-13187016D01*
X8366375Y-13148921D01*
X8375899Y-13129874D01*
X8385423Y-13120350D01*
X8404470Y-13110826D01*
X8537804Y-13110826D02*
X8661613Y-13110826D01*
X8594947Y-13187016D01*
X8623518Y-13187016D01*
X8642566Y-13196540D01*
X8652090Y-13206064D01*
X8661613Y-13225112D01*
X8661613Y-13272731D01*
X8652090Y-13291778D01*
X8642566Y-13301302D01*
X8623518Y-13310826D01*
X8566375Y-13310826D01*
X8547328Y-13301302D01*
X8537804Y-13291778D01*
X8852090Y-13310826D02*
X8737804Y-13310826D01*
X8794947Y-13310826D02*
X8794947Y-13110826D01*
X8775899Y-13139397D01*
X8756851Y-13158445D01*
X8737804Y-13167969D01*
X9033042Y-13110826D02*
X8937804Y-13110826D01*
X8928280Y-13206064D01*
X8937804Y-13196540D01*
X8956851Y-13187016D01*
X9004470Y-13187016D01*
X9023518Y-13196540D01*
X9033042Y-13206064D01*
X9042566Y-13225112D01*
X9042566Y-13272731D01*
X9033042Y-13291778D01*
X9023518Y-13301302D01*
X9004470Y-13310826D01*
X8956851Y-13310826D01*
X8937804Y-13301302D01*
X8928280Y-13291778D01*
X9118756Y-13110826D02*
X9118756Y-13148921D01*
X9194947Y-13110826D02*
X9194947Y-13148921D01*
X9490185Y-13387016D02*
X9480661Y-13377493D01*
X9461613Y-13348921D01*
X9452090Y-13329874D01*
X9442566Y-13301302D01*
X9433042Y-13253683D01*
X9433042Y-13215588D01*
X9442566Y-13167969D01*
X9452090Y-13139397D01*
X9461613Y-13120350D01*
X9480661Y-13091778D01*
X9490185Y-13082255D01*
X9547328Y-13110826D02*
X9671137Y-13110826D01*
X9604470Y-13187016D01*
X9633042Y-13187016D01*
X9652090Y-13196540D01*
X9661613Y-13206064D01*
X9671137Y-13225112D01*
X9671137Y-13272731D01*
X9661613Y-13291778D01*
X9652090Y-13301302D01*
X9633042Y-13310826D01*
X9575899Y-13310826D01*
X9556851Y-13301302D01*
X9547328Y-13291778D01*
X9747328Y-13129874D02*
X9756851Y-13120350D01*
X9775899Y-13110826D01*
X9823518Y-13110826D01*
X9842566Y-13120350D01*
X9852090Y-13129874D01*
X9861613Y-13148921D01*
X9861613Y-13167969D01*
X9852090Y-13196540D01*
X9737804Y-13310826D01*
X9861613Y-13310826D01*
X10099709Y-13310826D02*
X10099709Y-13110826D01*
X10185423Y-13310826D02*
X10185423Y-13206064D01*
X10175899Y-13187016D01*
X10156851Y-13177493D01*
X10128280Y-13177493D01*
X10109232Y-13187016D01*
X10099709Y-13196540D01*
X10309232Y-13310826D02*
X10290185Y-13301302D01*
X10280661Y-13291778D01*
X10271137Y-13272731D01*
X10271137Y-13215588D01*
X10280661Y-13196540D01*
X10290185Y-13187016D01*
X10309232Y-13177493D01*
X10337804Y-13177493D01*
X10356851Y-13187016D01*
X10366375Y-13196540D01*
X10375899Y-13215588D01*
X10375899Y-13272731D01*
X10366375Y-13291778D01*
X10356851Y-13301302D01*
X10337804Y-13310826D01*
X10309232Y-13310826D01*
X10490185Y-13310826D02*
X10471137Y-13301302D01*
X10461613Y-13282255D01*
X10461613Y-13110826D01*
X10642566Y-13301302D02*
X10623518Y-13310826D01*
X10585423Y-13310826D01*
X10566375Y-13301302D01*
X10556851Y-13282255D01*
X10556851Y-13206064D01*
X10566375Y-13187016D01*
X10585423Y-13177493D01*
X10623518Y-13177493D01*
X10642566Y-13187016D01*
X10652090Y-13206064D01*
X10652090Y-13225112D01*
X10556851Y-13244159D01*
X10728280Y-13301302D02*
X10747328Y-13310826D01*
X10785423Y-13310826D01*
X10804470Y-13301302D01*
X10813994Y-13282255D01*
X10813994Y-13272731D01*
X10804470Y-13253683D01*
X10785423Y-13244159D01*
X10756851Y-13244159D01*
X10737804Y-13234636D01*
X10728280Y-13215588D01*
X10728280Y-13206064D01*
X10737804Y-13187016D01*
X10756851Y-13177493D01*
X10785423Y-13177493D01*
X10804470Y-13187016D01*
X10880661Y-13387016D02*
X10890185Y-13377493D01*
X10909232Y-13348921D01*
X10918756Y-13329874D01*
X10928280Y-13301302D01*
X10937804Y-13253683D01*
X10937804Y-13215588D01*
X10928280Y-13167969D01*
X10918756Y-13139397D01*
X10909232Y-13120350D01*
X10890185Y-13091778D01*
X10880661Y-13082255D01*
D13*
X5868280Y-13434350D02*
X5868280Y-13534350D01*
X5818280Y-13484350D02*
X5918280Y-13484350D01*
D11*
X6280661Y-13574826D02*
X6166375Y-13574826D01*
X6223518Y-13574826D02*
X6223518Y-13374826D01*
X6204470Y-13403397D01*
X6185423Y-13422445D01*
X6166375Y-13431969D01*
X6366375Y-13555778D02*
X6375899Y-13565302D01*
X6366375Y-13574826D01*
X6356851Y-13565302D01*
X6366375Y-13555778D01*
X6366375Y-13574826D01*
X6499708Y-13374826D02*
X6518756Y-13374826D01*
X6537804Y-13384350D01*
X6547328Y-13393874D01*
X6556851Y-13412921D01*
X6566375Y-13451016D01*
X6566375Y-13498636D01*
X6556851Y-13536731D01*
X6547328Y-13555778D01*
X6537804Y-13565302D01*
X6518756Y-13574826D01*
X6499708Y-13574826D01*
X6480661Y-13565302D01*
X6471137Y-13555778D01*
X6461613Y-13536731D01*
X6452089Y-13498636D01*
X6452089Y-13451016D01*
X6461613Y-13412921D01*
X6471137Y-13393874D01*
X6480661Y-13384350D01*
X6499708Y-13374826D01*
X6690185Y-13374826D02*
X6709232Y-13374826D01*
X6728280Y-13384350D01*
X6737804Y-13393874D01*
X6747328Y-13412921D01*
X6756851Y-13451016D01*
X6756851Y-13498636D01*
X6747328Y-13536731D01*
X6737804Y-13555778D01*
X6728280Y-13565302D01*
X6709232Y-13574826D01*
X6690185Y-13574826D01*
X6671137Y-13565302D01*
X6661613Y-13555778D01*
X6652089Y-13536731D01*
X6642566Y-13498636D01*
X6642566Y-13451016D01*
X6652089Y-13412921D01*
X6661613Y-13393874D01*
X6671137Y-13384350D01*
X6690185Y-13374826D01*
X6880661Y-13374826D02*
X6899708Y-13374826D01*
X6918756Y-13384350D01*
X6928280Y-13393874D01*
X6937804Y-13412921D01*
X6947328Y-13451016D01*
X6947328Y-13498636D01*
X6937804Y-13536731D01*
X6928280Y-13555778D01*
X6918756Y-13565302D01*
X6899708Y-13574826D01*
X6880661Y-13574826D01*
X6861613Y-13565302D01*
X6852089Y-13555778D01*
X6842566Y-13536731D01*
X6833042Y-13498636D01*
X6833042Y-13451016D01*
X6842566Y-13412921D01*
X6852089Y-13393874D01*
X6861613Y-13384350D01*
X6880661Y-13374826D01*
X7033042Y-13574826D02*
X7033042Y-13441493D01*
X7033042Y-13460540D02*
X7042566Y-13451016D01*
X7061613Y-13441493D01*
X7090185Y-13441493D01*
X7109232Y-13451016D01*
X7118756Y-13470064D01*
X7118756Y-13574826D01*
X7118756Y-13470064D02*
X7128280Y-13451016D01*
X7147328Y-13441493D01*
X7175899Y-13441493D01*
X7194947Y-13451016D01*
X7204470Y-13470064D01*
X7204470Y-13574826D01*
X7299708Y-13574826D02*
X7299708Y-13441493D01*
X7299708Y-13460540D02*
X7309232Y-13451016D01*
X7328280Y-13441493D01*
X7356851Y-13441493D01*
X7375899Y-13451016D01*
X7385423Y-13470064D01*
X7385423Y-13574826D01*
X7385423Y-13470064D02*
X7394947Y-13451016D01*
X7413994Y-13441493D01*
X7442566Y-13441493D01*
X7461613Y-13451016D01*
X7471137Y-13470064D01*
X7471137Y-13574826D01*
X7861613Y-13365302D02*
X7690185Y-13622445D01*
X8118756Y-13374826D02*
X8137804Y-13374826D01*
X8156851Y-13384350D01*
X8166375Y-13393874D01*
X8175899Y-13412921D01*
X8185423Y-13451016D01*
X8185423Y-13498636D01*
X8175899Y-13536731D01*
X8166375Y-13555778D01*
X8156851Y-13565302D01*
X8137804Y-13574826D01*
X8118756Y-13574826D01*
X8099708Y-13565302D01*
X8090185Y-13555778D01*
X8080661Y-13536731D01*
X8071137Y-13498636D01*
X8071137Y-13451016D01*
X8080661Y-13412921D01*
X8090185Y-13393874D01*
X8099708Y-13384350D01*
X8118756Y-13374826D01*
X8271137Y-13555778D02*
X8280661Y-13565302D01*
X8271137Y-13574826D01*
X8261613Y-13565302D01*
X8271137Y-13555778D01*
X8271137Y-13574826D01*
X8404470Y-13374826D02*
X8423518Y-13374826D01*
X8442566Y-13384350D01*
X8452090Y-13393874D01*
X8461613Y-13412921D01*
X8471137Y-13451016D01*
X8471137Y-13498636D01*
X8461613Y-13536731D01*
X8452090Y-13555778D01*
X8442566Y-13565302D01*
X8423518Y-13574826D01*
X8404470Y-13574826D01*
X8385423Y-13565302D01*
X8375899Y-13555778D01*
X8366375Y-13536731D01*
X8356851Y-13498636D01*
X8356851Y-13451016D01*
X8366375Y-13412921D01*
X8375899Y-13393874D01*
X8385423Y-13384350D01*
X8404470Y-13374826D01*
X8537804Y-13374826D02*
X8661613Y-13374826D01*
X8594947Y-13451016D01*
X8623518Y-13451016D01*
X8642566Y-13460540D01*
X8652090Y-13470064D01*
X8661613Y-13489112D01*
X8661613Y-13536731D01*
X8652090Y-13555778D01*
X8642566Y-13565302D01*
X8623518Y-13574826D01*
X8566375Y-13574826D01*
X8547328Y-13565302D01*
X8537804Y-13555778D01*
X8756851Y-13574826D02*
X8794947Y-13574826D01*
X8813994Y-13565302D01*
X8823518Y-13555778D01*
X8842566Y-13527207D01*
X8852090Y-13489112D01*
X8852090Y-13412921D01*
X8842566Y-13393874D01*
X8833042Y-13384350D01*
X8813994Y-13374826D01*
X8775899Y-13374826D01*
X8756851Y-13384350D01*
X8747328Y-13393874D01*
X8737804Y-13412921D01*
X8737804Y-13460540D01*
X8747328Y-13479588D01*
X8756851Y-13489112D01*
X8775899Y-13498636D01*
X8813994Y-13498636D01*
X8833042Y-13489112D01*
X8842566Y-13479588D01*
X8852090Y-13460540D01*
X9023518Y-13441493D02*
X9023518Y-13574826D01*
X8975899Y-13365302D02*
X8928280Y-13508159D01*
X9052090Y-13508159D01*
X9118756Y-13374826D02*
X9118756Y-13412921D01*
X9194947Y-13374826D02*
X9194947Y-13412921D01*
X9490185Y-13651016D02*
X9480661Y-13641493D01*
X9461613Y-13612921D01*
X9452090Y-13593874D01*
X9442566Y-13565302D01*
X9433042Y-13517683D01*
X9433042Y-13479588D01*
X9442566Y-13431969D01*
X9452090Y-13403397D01*
X9461613Y-13384350D01*
X9480661Y-13355778D01*
X9490185Y-13346255D01*
X9556851Y-13393874D02*
X9566375Y-13384350D01*
X9585423Y-13374826D01*
X9633042Y-13374826D01*
X9652090Y-13384350D01*
X9661613Y-13393874D01*
X9671137Y-13412921D01*
X9671137Y-13431969D01*
X9661613Y-13460540D01*
X9547328Y-13574826D01*
X9671137Y-13574826D01*
X9794947Y-13374826D02*
X9813994Y-13374826D01*
X9833042Y-13384350D01*
X9842566Y-13393874D01*
X9852090Y-13412921D01*
X9861613Y-13451016D01*
X9861613Y-13498636D01*
X9852090Y-13536731D01*
X9842566Y-13555778D01*
X9833042Y-13565302D01*
X9813994Y-13574826D01*
X9794947Y-13574826D01*
X9775899Y-13565302D01*
X9766375Y-13555778D01*
X9756851Y-13536731D01*
X9747328Y-13498636D01*
X9747328Y-13451016D01*
X9756851Y-13412921D01*
X9766375Y-13393874D01*
X9775899Y-13384350D01*
X9794947Y-13374826D01*
X10099709Y-13574826D02*
X10099709Y-13374826D01*
X10185423Y-13574826D02*
X10185423Y-13470064D01*
X10175899Y-13451016D01*
X10156851Y-13441493D01*
X10128280Y-13441493D01*
X10109232Y-13451016D01*
X10099709Y-13460540D01*
X10309232Y-13574826D02*
X10290185Y-13565302D01*
X10280661Y-13555778D01*
X10271137Y-13536731D01*
X10271137Y-13479588D01*
X10280661Y-13460540D01*
X10290185Y-13451016D01*
X10309232Y-13441493D01*
X10337804Y-13441493D01*
X10356851Y-13451016D01*
X10366375Y-13460540D01*
X10375899Y-13479588D01*
X10375899Y-13536731D01*
X10366375Y-13555778D01*
X10356851Y-13565302D01*
X10337804Y-13574826D01*
X10309232Y-13574826D01*
X10490185Y-13574826D02*
X10471137Y-13565302D01*
X10461613Y-13546255D01*
X10461613Y-13374826D01*
X10642566Y-13565302D02*
X10623518Y-13574826D01*
X10585423Y-13574826D01*
X10566375Y-13565302D01*
X10556851Y-13546255D01*
X10556851Y-13470064D01*
X10566375Y-13451016D01*
X10585423Y-13441493D01*
X10623518Y-13441493D01*
X10642566Y-13451016D01*
X10652090Y-13470064D01*
X10652090Y-13489112D01*
X10556851Y-13508159D01*
X10728280Y-13565302D02*
X10747328Y-13574826D01*
X10785423Y-13574826D01*
X10804470Y-13565302D01*
X10813994Y-13546255D01*
X10813994Y-13536731D01*
X10804470Y-13517683D01*
X10785423Y-13508159D01*
X10756851Y-13508159D01*
X10737804Y-13498636D01*
X10728280Y-13479588D01*
X10728280Y-13470064D01*
X10737804Y-13451016D01*
X10756851Y-13441493D01*
X10785423Y-13441493D01*
X10804470Y-13451016D01*
X10880661Y-13651016D02*
X10890185Y-13641493D01*
X10909232Y-13612921D01*
X10918756Y-13593874D01*
X10928280Y-13565302D01*
X10937804Y-13517683D01*
X10937804Y-13479588D01*
X10928280Y-13431969D01*
X10918756Y-13403397D01*
X10909232Y-13384350D01*
X10890185Y-13355778D01*
X10880661Y-13346255D01*
D14*
X5896313Y-13801383D02*
X5896313Y-13695316D01*
X5790246Y-13695316D01*
X5790246Y-13801383D01*
X5896313Y-13801383D01*
D11*
X6280661Y-13838826D02*
X6166375Y-13838826D01*
X6223518Y-13838826D02*
X6223518Y-13638826D01*
X6204470Y-13667397D01*
X6185423Y-13686445D01*
X6166375Y-13695969D01*
X6366375Y-13819778D02*
X6375899Y-13829302D01*
X6366375Y-13838826D01*
X6356851Y-13829302D01*
X6366375Y-13819778D01*
X6366375Y-13838826D01*
X6556851Y-13638826D02*
X6461613Y-13638826D01*
X6452089Y-13734064D01*
X6461613Y-13724540D01*
X6480661Y-13715016D01*
X6528280Y-13715016D01*
X6547328Y-13724540D01*
X6556851Y-13734064D01*
X6566375Y-13753112D01*
X6566375Y-13800731D01*
X6556851Y-13819778D01*
X6547328Y-13829302D01*
X6528280Y-13838826D01*
X6480661Y-13838826D01*
X6461613Y-13829302D01*
X6452089Y-13819778D01*
X6690185Y-13638826D02*
X6709232Y-13638826D01*
X6728280Y-13648350D01*
X6737804Y-13657874D01*
X6747328Y-13676921D01*
X6756851Y-13715016D01*
X6756851Y-13762636D01*
X6747328Y-13800731D01*
X6737804Y-13819778D01*
X6728280Y-13829302D01*
X6709232Y-13838826D01*
X6690185Y-13838826D01*
X6671137Y-13829302D01*
X6661613Y-13819778D01*
X6652089Y-13800731D01*
X6642566Y-13762636D01*
X6642566Y-13715016D01*
X6652089Y-13676921D01*
X6661613Y-13657874D01*
X6671137Y-13648350D01*
X6690185Y-13638826D01*
X6880661Y-13638826D02*
X6899708Y-13638826D01*
X6918756Y-13648350D01*
X6928280Y-13657874D01*
X6937804Y-13676921D01*
X6947328Y-13715016D01*
X6947328Y-13762636D01*
X6937804Y-13800731D01*
X6928280Y-13819778D01*
X6918756Y-13829302D01*
X6899708Y-13838826D01*
X6880661Y-13838826D01*
X6861613Y-13829302D01*
X6852089Y-13819778D01*
X6842566Y-13800731D01*
X6833042Y-13762636D01*
X6833042Y-13715016D01*
X6842566Y-13676921D01*
X6852089Y-13657874D01*
X6861613Y-13648350D01*
X6880661Y-13638826D01*
X7033042Y-13838826D02*
X7033042Y-13705493D01*
X7033042Y-13724540D02*
X7042566Y-13715016D01*
X7061613Y-13705493D01*
X7090185Y-13705493D01*
X7109232Y-13715016D01*
X7118756Y-13734064D01*
X7118756Y-13838826D01*
X7118756Y-13734064D02*
X7128280Y-13715016D01*
X7147328Y-13705493D01*
X7175899Y-13705493D01*
X7194947Y-13715016D01*
X7204470Y-13734064D01*
X7204470Y-13838826D01*
X7299708Y-13838826D02*
X7299708Y-13705493D01*
X7299708Y-13724540D02*
X7309232Y-13715016D01*
X7328280Y-13705493D01*
X7356851Y-13705493D01*
X7375899Y-13715016D01*
X7385423Y-13734064D01*
X7385423Y-13838826D01*
X7385423Y-13734064D02*
X7394947Y-13715016D01*
X7413994Y-13705493D01*
X7442566Y-13705493D01*
X7461613Y-13715016D01*
X7471137Y-13734064D01*
X7471137Y-13838826D01*
X7861613Y-13629302D02*
X7690185Y-13886445D01*
X8118756Y-13638826D02*
X8137804Y-13638826D01*
X8156851Y-13648350D01*
X8166375Y-13657874D01*
X8175899Y-13676921D01*
X8185423Y-13715016D01*
X8185423Y-13762636D01*
X8175899Y-13800731D01*
X8166375Y-13819778D01*
X8156851Y-13829302D01*
X8137804Y-13838826D01*
X8118756Y-13838826D01*
X8099708Y-13829302D01*
X8090185Y-13819778D01*
X8080661Y-13800731D01*
X8071137Y-13762636D01*
X8071137Y-13715016D01*
X8080661Y-13676921D01*
X8090185Y-13657874D01*
X8099708Y-13648350D01*
X8118756Y-13638826D01*
X8271137Y-13819778D02*
X8280661Y-13829302D01*
X8271137Y-13838826D01*
X8261613Y-13829302D01*
X8271137Y-13819778D01*
X8271137Y-13838826D01*
X8404470Y-13638826D02*
X8423518Y-13638826D01*
X8442566Y-13648350D01*
X8452090Y-13657874D01*
X8461613Y-13676921D01*
X8471137Y-13715016D01*
X8471137Y-13762636D01*
X8461613Y-13800731D01*
X8452090Y-13819778D01*
X8442566Y-13829302D01*
X8423518Y-13838826D01*
X8404470Y-13838826D01*
X8385423Y-13829302D01*
X8375899Y-13819778D01*
X8366375Y-13800731D01*
X8356851Y-13762636D01*
X8356851Y-13715016D01*
X8366375Y-13676921D01*
X8375899Y-13657874D01*
X8385423Y-13648350D01*
X8404470Y-13638826D01*
X8652090Y-13638826D02*
X8556851Y-13638826D01*
X8547328Y-13734064D01*
X8556851Y-13724540D01*
X8575899Y-13715016D01*
X8623518Y-13715016D01*
X8642566Y-13724540D01*
X8652090Y-13734064D01*
X8661613Y-13753112D01*
X8661613Y-13800731D01*
X8652090Y-13819778D01*
X8642566Y-13829302D01*
X8623518Y-13838826D01*
X8575899Y-13838826D01*
X8556851Y-13829302D01*
X8547328Y-13819778D01*
X8756851Y-13838826D02*
X8794947Y-13838826D01*
X8813994Y-13829302D01*
X8823518Y-13819778D01*
X8842566Y-13791207D01*
X8852090Y-13753112D01*
X8852090Y-13676921D01*
X8842566Y-13657874D01*
X8833042Y-13648350D01*
X8813994Y-13638826D01*
X8775899Y-13638826D01*
X8756851Y-13648350D01*
X8747328Y-13657874D01*
X8737804Y-13676921D01*
X8737804Y-13724540D01*
X8747328Y-13743588D01*
X8756851Y-13753112D01*
X8775899Y-13762636D01*
X8813994Y-13762636D01*
X8833042Y-13753112D01*
X8842566Y-13743588D01*
X8852090Y-13724540D01*
X9042566Y-13838826D02*
X8928280Y-13838826D01*
X8985423Y-13838826D02*
X8985423Y-13638826D01*
X8966375Y-13667397D01*
X8947328Y-13686445D01*
X8928280Y-13695969D01*
X9118756Y-13638826D02*
X9118756Y-13676921D01*
X9194947Y-13638826D02*
X9194947Y-13676921D01*
X9490185Y-13915016D02*
X9480661Y-13905493D01*
X9461613Y-13876921D01*
X9452090Y-13857874D01*
X9442566Y-13829302D01*
X9433042Y-13781683D01*
X9433042Y-13743588D01*
X9442566Y-13695969D01*
X9452090Y-13667397D01*
X9461613Y-13648350D01*
X9480661Y-13619778D01*
X9490185Y-13610255D01*
X9671137Y-13838826D02*
X9556851Y-13838826D01*
X9613994Y-13838826D02*
X9613994Y-13638826D01*
X9594947Y-13667397D01*
X9575899Y-13686445D01*
X9556851Y-13695969D01*
X9861613Y-13838826D02*
X9747328Y-13838826D01*
X9804470Y-13838826D02*
X9804470Y-13638826D01*
X9785423Y-13667397D01*
X9766375Y-13686445D01*
X9747328Y-13695969D01*
X10099709Y-13838826D02*
X10099709Y-13638826D01*
X10185423Y-13838826D02*
X10185423Y-13734064D01*
X10175899Y-13715016D01*
X10156851Y-13705493D01*
X10128280Y-13705493D01*
X10109232Y-13715016D01*
X10099709Y-13724540D01*
X10309232Y-13838826D02*
X10290185Y-13829302D01*
X10280661Y-13819778D01*
X10271137Y-13800731D01*
X10271137Y-13743588D01*
X10280661Y-13724540D01*
X10290185Y-13715016D01*
X10309232Y-13705493D01*
X10337804Y-13705493D01*
X10356851Y-13715016D01*
X10366375Y-13724540D01*
X10375899Y-13743588D01*
X10375899Y-13800731D01*
X10366375Y-13819778D01*
X10356851Y-13829302D01*
X10337804Y-13838826D01*
X10309232Y-13838826D01*
X10490185Y-13838826D02*
X10471137Y-13829302D01*
X10461613Y-13810255D01*
X10461613Y-13638826D01*
X10642566Y-13829302D02*
X10623518Y-13838826D01*
X10585423Y-13838826D01*
X10566375Y-13829302D01*
X10556851Y-13810255D01*
X10556851Y-13734064D01*
X10566375Y-13715016D01*
X10585423Y-13705493D01*
X10623518Y-13705493D01*
X10642566Y-13715016D01*
X10652090Y-13734064D01*
X10652090Y-13753112D01*
X10556851Y-13772159D01*
X10728280Y-13829302D02*
X10747328Y-13838826D01*
X10785423Y-13838826D01*
X10804470Y-13829302D01*
X10813994Y-13810255D01*
X10813994Y-13800731D01*
X10804470Y-13781683D01*
X10785423Y-13772159D01*
X10756851Y-13772159D01*
X10737804Y-13762636D01*
X10728280Y-13743588D01*
X10728280Y-13734064D01*
X10737804Y-13715016D01*
X10756851Y-13705493D01*
X10785423Y-13705493D01*
X10804470Y-13715016D01*
X10880661Y-13915016D02*
X10890185Y-13905493D01*
X10909232Y-13876921D01*
X10918756Y-13857874D01*
X10928280Y-13829302D01*
X10937804Y-13781683D01*
X10937804Y-13743588D01*
X10928280Y-13695969D01*
X10918756Y-13667397D01*
X10909232Y-13648350D01*
X10890185Y-13619778D01*
X10880661Y-13610255D01*
M02*
