M48
; DRILL file {KiCad (6.0.4)} date Tue Jun 21 16:57:27 2022
; FORMAT={-:-/ absolute / metric / decimal}
; #@! TF.CreationDate,2022-06-21T16:57:27-03:00
; #@! TF.GenerationSoftware,Kicad,Pcbnew,(6.0.4)
; #@! TF.FileFunction,Plated,1,2,PTH
FMAT,2
METRIC
; #@! TA.AperFunction,Plated,PTH,ViaDrill
T1C0.800
; #@! TA.AperFunction,Plated,PTH,ComponentDrill
T2C0.800
; #@! TA.AperFunction,Plated,PTH,ComponentDrill
T3C1.000
; #@! TA.AperFunction,Plated,PTH,ComponentDrill
T4C1.500
%
G90
G05
T1
X82.169Y-89.027
X82.169Y-96.139
X83.972Y-97.917
X83.986Y-92.264
X85.471Y-89.027
X99.345Y-98.886
X101.241Y-84.177
X116.245Y-91.186
X118.295Y-96.236
X120.825Y-101.195
X121.095Y-93.869
X125.882Y-105.867
X126.945Y-86.136
X129.695Y-85.286
X131.826Y-92.558
X134.62Y-115.57
X140.462Y-95.098
X141.045Y-79.586
X145.034Y-92.456
X148.133Y-92.405
X156.54Y-106.477
X156.566Y-113.386
X156.845Y-86.233
X157.683Y-99.162
X158.115Y-94.742
X158.115Y-109.347
X162.306Y-79.992
X163.322Y-88.9
X163.322Y-99.314
X166.37Y-80.366
X167.005Y-106.477
X167.513Y-84.709
X167.513Y-97.663
X168.275Y-109.318
X169.799Y-93.345
X173.99Y-82.804
X174.244Y-93.98
X177.47Y-98.272
X177.47Y-100.304
X177.47Y-102.336
X177.47Y-104.368
X177.546Y-83.693
X177.546Y-85.725
X177.546Y-87.757
X177.546Y-89.789
X179.121Y-98.272
X179.121Y-100.304
X179.121Y-102.336
X179.121Y-104.368
X179.197Y-83.693
X179.197Y-85.725
X179.197Y-87.757
X179.197Y-89.789
X180.772Y-98.272
X180.772Y-100.304
X180.772Y-102.336
X180.772Y-104.368
X180.848Y-83.693
X180.848Y-85.725
X180.848Y-87.757
X180.848Y-89.789
X182.423Y-98.272
X182.423Y-100.304
X182.423Y-102.336
X182.423Y-104.368
X182.499Y-83.693
X182.499Y-85.725
X182.499Y-87.757
X182.499Y-89.789
X184.074Y-98.272
X184.074Y-100.304
X184.074Y-102.336
X184.074Y-104.368
X184.15Y-83.693
X184.15Y-85.725
X184.15Y-87.757
X184.15Y-89.789
X187.071Y-77.851
X187.071Y-79.756
X187.833Y-81.534
X189.484Y-83.312
X189.611Y-77.851
X189.611Y-79.756
X190.119Y-81.534
X191.008Y-84.709
T2
X108.875Y-75.338
X113.755Y-75.338
X120.215Y-82.45
X120.215Y-90.07
X122.755Y-82.45
X122.755Y-90.07
X125.295Y-82.45
X125.295Y-90.07
X127.835Y-82.45
X127.835Y-90.07
X127.962Y-75.846
X130.375Y-82.45
X130.375Y-90.07
X132.842Y-75.846
X132.915Y-82.45
X132.915Y-90.07
X135.455Y-82.45
X135.455Y-90.07
X137.995Y-82.45
X137.995Y-90.07
X140.535Y-82.45
X140.535Y-90.07
X143.075Y-82.45
X143.075Y-90.07
X145.615Y-82.45
X145.615Y-90.07
X148.155Y-82.45
X148.155Y-90.07
X150.695Y-82.45
X150.695Y-90.07
X153.235Y-82.45
X153.235Y-90.07
T3
X76.986Y-98.505
X76.986Y-101.045
X76.986Y-103.585
X76.986Y-106.125
X77.004Y-78.005
X77.004Y-80.545
X77.004Y-83.085
X77.004Y-85.625
X79.526Y-99.775
X79.526Y-102.315
X79.526Y-104.855
X79.526Y-107.395
X79.544Y-79.275
X79.544Y-81.815
X79.544Y-84.355
X79.544Y-86.895
X145.498Y-73.306
X148.038Y-73.306
X150.578Y-73.306
X153.118Y-73.306
T4
X73.686Y-95.2
X73.686Y-110.7
X73.704Y-74.7
X73.704Y-90.2
X140.82Y-112.722
X145.9Y-112.722
X150.98Y-112.722
X194.361Y-96.825
X194.361Y-101.905
X194.393Y-81.331
X194.393Y-86.411
T0
M30
